<?xml version="1.0" encoding="UTF-8"?>
<svg width="9px" height="13px" viewBox="0 0 9 13" version="1.1" xmlns="http://www.w3.org/2000/svg" xmlns:xlink="http://www.w3.org/1999/xlink">
    <!-- Generator: Sketch 46 (44423) - http://www.bohemiancoding.com/sketch -->
    <title>Chevron Right</title>
    <desc>Created with Sketch.</desc>
    <defs></defs>
    <g id="Page-1" stroke="none" stroke-width="1" fill="none" fill-rule="evenodd">
        <path d="M8.6484375,6.8515625 L2.8515625,12.6484375 C2.75260367,12.7473963 2.63541734,12.796875 2.5,12.796875 C2.36458266,12.796875 2.24739633,12.7473963 2.1484375,12.6484375 L0.8515625,11.3515625 C0.752603672,11.2526037 0.703125,11.1354173 0.703125,11 C0.703125,10.8645827 0.752603672,10.7473963 0.8515625,10.6484375 L5,6.5 L0.8515625,2.3515625 C0.752603672,2.25260367 0.703125,2.13541734 0.703125,2 C0.703125,1.86458266 0.752603672,1.74739633 0.8515625,1.6484375 L2.1484375,0.3515625 C2.24739633,0.252603672 2.36458266,0.203125 2.5,0.203125 C2.63541734,0.203125 2.75260367,0.252603672 2.8515625,0.3515625 L8.6484375,6.1484375 C8.74739633,6.24739633 8.796875,6.36458266 8.796875,6.5 C8.796875,6.63541734 8.74739633,6.75260367 8.6484375,6.8515625 Z" id="Chevron-Right" fill="#FFFFFF"></path>
    </g>
</svg>