<?xml version="1.0" encoding="UTF-8"?>
<svg width="480px" height="36px" viewBox="0 0 480 36" version="1.1" xmlns="http://www.w3.org/2000/svg" xmlns:xlink="http://www.w3.org/1999/xlink">
    <!-- Generator: Sketch 48.2 (47327) - http://www.bohemiancoding.com/sketch -->
    <title>Unit Name</title>
    <desc>Created with Sketch.</desc>
    <defs></defs>
    <g id="Page-1" stroke="none" stroke-width="1" fill="none" fill-rule="evenodd">
        <path d="M21.4389648,3.38183594 L21.4389648,3.96289062 C21.4389648,4.76042065 21.4674476,5.58926979 21.5244141,6.44946289 C21.5813805,7.30965599 21.6668289,8.21256038 21.7807617,9.15820312 L20.5332031,9.36328125 C20.3053374,7.72264805 19.5306056,6.44377086 18.2089844,5.52661133 C16.8873632,4.60945179 15.1613062,4.15087891 13.0307617,4.15087891 C10.1938335,4.15087891 8.00350707,5.01960394 6.4597168,6.75708008 C4.91592653,8.49455621 4.14404297,10.9583174 4.14404297,14.1484375 C4.14404297,17.5550301 5.02985768,20.3093157 6.80151367,22.411377 C8.57316967,24.5134382 10.8717307,25.5644531 13.6972656,25.5644531 C15.4746183,25.5644531 17.0155371,25.154301 18.3200684,24.3339844 C19.6245996,23.5136678 20.6414352,22.3116941 21.3706055,20.7280273 L22.515625,21.2919922 C22.1510398,22.0325558 21.8206395,22.7873497 21.5244141,23.5563965 C21.2281886,24.3254433 20.966147,25.0973269 20.7382812,25.8720703 C19.5078063,26.4303413 18.2545637,26.8518866 16.9785156,27.1367188 C15.7024676,27.4215509 14.4207421,27.5639648 13.1333008,27.5639648 C9.35072979,27.5639648 6.28883007,26.3933223 3.94750977,24.052002 C1.60618947,21.7106817 0.435546875,18.6316923 0.435546875,14.8149414 C0.435546875,11.055157 1.67169988,7.99325726 4.14404297,5.62915039 C6.61638606,3.26504352 9.81215488,2.08300781 13.7314453,2.08300781 C14.8935605,2.08300781 16.1211687,2.19124241 17.4143066,2.40771484 C18.7074446,2.62418728 20.0489839,2.94889106 21.4389648,3.38183594 Z M33.128418,11.5336914 C31.6017176,11.5336914 30.3741095,12.0891058 29.4455566,13.1999512 C28.5170038,14.3107966 28.0527344,15.8061429 28.0527344,17.6860352 C28.0527344,20.0900185 28.5682728,22.0382412 29.5993652,23.5307617 C30.6304576,25.0232822 31.9719969,25.7695312 33.6240234,25.7695312 C35.2190835,25.7695312 36.4922641,25.1770893 37.4436035,23.9921875 C38.3949429,22.8072857 38.8706055,21.1951599 38.8706055,19.1557617 C38.8706055,16.9226776 38.3322808,15.0940826 37.2556152,13.6699219 C36.1789497,12.2457611 34.803231,11.5336914 33.128418,11.5336914 Z M33.5727539,9.73925781 C35.9767373,9.73925781 37.9676842,10.5453207 39.5456543,12.1574707 C41.1236244,13.7696207 41.9125977,15.7662641 41.9125977,18.1474609 C41.9125977,20.7679167 41.0809002,22.9753328 39.4174805,24.7697754 C37.7540607,26.564218 35.7033,27.4614258 33.2651367,27.4614258 C30.8269735,27.4614258 28.8246335,26.6411215 27.2580566,25.0004883 C25.6914798,23.3598551 24.9082031,21.2863081 24.9082031,18.7797852 C24.9082031,16.2732622 25.7598385,14.1399014 27.4631348,12.3796387 C29.166431,10.619376 31.2029504,9.73925781 33.5727539,9.73925781 Z M49.4663086,0.579101562 C49.3979489,2.69825278 49.358073,5.45538667 49.3466797,8.85058594 C49.3352864,10.1608138 49.3295898,11.1007458 49.3295898,11.6704102 L49.2954102,15.1738281 L49.2954102,22.7958984 C49.2954102,24.1061263 49.4406724,24.9349755 49.7312012,25.2824707 C50.02173,25.6299659 50.5714478,25.8037109 51.3803711,25.8037109 L51.7734375,25.8037109 L51.7734375,27 C50.9873008,26.9430336 50.2495965,26.9003094 49.5603027,26.8718262 C48.8710089,26.843343 48.2643255,26.8291016 47.7402344,26.8291016 C47.2047499,26.8291016 46.6180045,26.843343 45.9799805,26.8718262 C45.3419564,26.9003094 44.6754592,26.9430336 43.9804688,27 L43.9633789,25.8037109 C44.0431319,25.8037109 44.1428217,25.8094075 44.2624512,25.8208008 C44.3820807,25.8321941 44.4703773,25.8378906 44.5273438,25.8378906 C45.3248738,25.8378906 45.8575019,25.6299663 46.1252441,25.2141113 C46.3929864,24.7982564 46.5268555,23.5877379 46.5268555,21.5825195 L46.5268555,20.3178711 L46.5952148,7.46630859 L46.5952148,4.52685547 C46.5952148,4.03694417 46.4898285,3.6695162 46.2790527,3.42456055 C46.0682769,3.1796049 45.752118,3.05712891 45.3305664,3.05712891 C45.1710604,3.05712891 44.8748394,3.09700481 44.4418945,3.17675781 C44.3849281,3.1881511 44.3450522,3.19384766 44.3222656,3.19384766 L44.065918,2.08300781 C45.022954,1.92350181 45.9486446,1.71842573 46.8430176,1.46777344 C47.7373905,1.21712114 48.6118121,0.920900146 49.4663086,0.579101562 Z M59.6860352,0.579101562 C59.6176754,2.69825278 59.5777995,5.45538667 59.5664062,8.85058594 C59.555013,10.1608138 59.5493164,11.1007458 59.5493164,11.6704102 L59.5151367,15.1738281 L59.5151367,22.7958984 C59.5151367,24.1061263 59.6603989,24.9349755 59.9509277,25.2824707 C60.2414565,25.6299659 60.7911743,25.8037109 61.6000977,25.8037109 L61.9931641,25.8037109 L61.9931641,27 C61.2070273,26.9430336 60.4693231,26.9003094 59.7800293,26.8718262 C59.0907355,26.843343 58.4840521,26.8291016 57.9599609,26.8291016 C57.4244765,26.8291016 56.8377311,26.843343 56.199707,26.8718262 C55.561683,26.9003094 54.8951858,26.9430336 54.2001953,27 L54.1831055,25.8037109 C54.2628585,25.8037109 54.3625482,25.8094075 54.4821777,25.8208008 C54.6018072,25.8321941 54.6901039,25.8378906 54.7470703,25.8378906 C55.5446003,25.8378906 56.0772285,25.6299663 56.3449707,25.2141113 C56.6127129,24.7982564 56.746582,23.5877379 56.746582,21.5825195 L56.746582,20.3178711 L56.8149414,7.46630859 L56.8149414,4.52685547 C56.8149414,4.03694417 56.7095551,3.6695162 56.4987793,3.42456055 C56.2880035,3.1796049 55.9718446,3.05712891 55.550293,3.05712891 C55.390787,3.05712891 55.094566,3.09700481 54.6616211,3.17675781 C54.6046547,3.1881511 54.5647788,3.19384766 54.5419922,3.19384766 L54.2856445,2.08300781 C55.2426806,1.92350181 56.1683712,1.71842573 57.0627441,1.46777344 C57.9571171,1.21712114 58.8315387,0.920900146 59.6860352,0.579101562 Z M79.3564453,17.4467773 L71.0166016,17.4467773 C70.3671843,17.4467773 69.7690457,17.4581705 69.222168,17.480957 C68.6752902,17.5037436 68.1682966,17.5379229 67.7011719,17.5834961 L67.7011719,18.2158203 C67.7011719,20.4489044 68.2167103,22.1749614 69.2478027,23.394043 C70.2788951,24.6131246 71.7343656,25.2226562 73.6142578,25.2226562 C74.4459677,25.2226562 75.266272,25.0830906 76.0751953,24.8039551 C76.8841186,24.5248196 77.7442988,24.0890329 78.6557617,23.496582 L79.3222656,24.590332 C78.1487572,25.5473681 76.9781146,26.2708309 75.8103027,26.7607422 C74.6424909,27.2506535 73.488938,27.4956055 72.3496094,27.4956055 C70.1393119,27.4956055 68.3164134,26.7066322 66.8808594,25.1286621 C65.4453053,23.550692 64.7275391,21.5255657 64.7275391,19.0532227 C64.7275391,16.4213736 65.4794847,14.2111092 66.9833984,12.4223633 C68.4873122,10.6336174 70.3216038,9.73925781 72.4863281,9.73925781 C74.5029398,9.73925781 76.109369,10.4114516 77.3056641,11.7558594 C78.5019591,13.1002671 79.185546,14.9972208 79.3564453,17.4467773 Z M76.1948242,15.6523438 C75.8530256,14.2509696 75.3346389,13.1771684 74.6396484,12.4309082 C73.944658,11.684648 73.1129606,11.3115234 72.1445312,11.3115234 C71.0507758,11.3115234 70.1136921,11.7501584 69.333252,12.6274414 C68.5528119,13.5047244 68.0429699,14.6896084 67.8037109,16.1821289 C70.0595816,16.1821289 71.8340593,16.142253 73.1271973,16.0625 C74.4203352,15.982747 75.4428673,15.8460296 76.1948242,15.6523438 Z M89.1831055,11.0380859 C87.9640239,11.0380859 87.0183953,11.4140587 86.3461914,12.1660156 C85.6739875,12.9179725 85.3378906,13.9775322 85.3378906,15.3447266 C85.3378906,16.8486403 85.6654427,18.0192829 86.3205566,18.8566895 C86.9756706,19.694096 87.8956646,20.112793 89.0805664,20.112793 C90.2768615,20.112793 91.2167935,19.7339719 91.9003906,18.9763184 C92.5839878,18.2186648 92.9257812,17.1733465 92.9257812,15.840332 C92.9257812,14.3022384 92.6010775,13.1173544 91.9516602,12.2856445 C91.3022428,11.4539346 90.3794005,11.0380859 89.1831055,11.0380859 Z M86.0727539,26.7607422 C85.5144829,27.3873729 85.1043307,27.9570287 84.8422852,28.4697266 C84.5802396,28.9824244 84.4492188,29.4723284 84.4492188,29.9394531 C84.4492188,30.9990287 84.9248813,31.8933883 85.8762207,32.6225586 C86.8275601,33.3517289 88.0209889,33.7163086 89.456543,33.7163086 C91.0857829,33.7163086 92.4956809,33.2634323 93.6862793,32.357666 C94.8768777,31.4518998 95.472168,30.4350642 95.472168,29.3071289 C95.472168,28.3842727 95.1816435,27.7348652 94.6005859,27.3588867 C94.0195283,26.9829083 92.9030031,26.7949219 91.2509766,26.7949219 C91.0800773,26.7949219 90.7041045,26.7892253 90.1230469,26.777832 C89.5419893,26.7664387 89.0520853,26.7607422 88.6533203,26.7607422 L86.0727539,26.7607422 Z M93.2333984,10.9355469 C93.9967486,10.9355469 94.7686322,10.9241538 95.5490723,10.9013672 C96.3295124,10.8785806 97.112789,10.8444013 97.8989258,10.7988281 L97.8134766,12.5078125 C97.312172,12.4508461 96.7624542,12.4081219 96.1643066,12.3796387 C95.5661591,12.3511555 94.8740274,12.3369141 94.0878906,12.3369141 C94.6233751,12.7470724 95.0306789,13.2455212 95.3098145,13.8322754 C95.58895,14.4190296 95.7285156,15.0655889 95.7285156,15.7719727 C95.7285156,17.3100663 95.0876529,18.6316677 93.8059082,19.7368164 C92.5241635,20.8419652 90.9490653,21.3945312 89.0805664,21.3945312 C88.8868805,21.3945312 88.6134458,21.3802899 88.2602539,21.3518066 C87.907062,21.3233234 87.6564135,21.3033855 87.5083008,21.2919922 C87.2006821,21.4970713 86.9101576,21.7106922 86.6367188,21.9328613 C86.3632799,22.1550304 86.1126313,22.385741 85.8847656,22.625 C86.0556649,22.944012 86.2521962,23.2373847 86.4743652,23.505127 C86.6965343,23.7728692 86.9557277,24.026366 87.2519531,24.265625 C87.605145,24.265625 88.1121386,24.2599284 88.7729492,24.2485352 C90.3680093,24.2143553 91.4161759,24.1972656 91.9174805,24.1972656 C93.9796653,24.1972656 95.4636185,24.5105763 96.3693848,25.137207 C97.275151,25.7638378 97.7280273,26.7721285 97.7280273,28.1621094 C97.7280273,29.0507857 97.4802271,29.9479935 96.9846191,30.8537598 C96.4890112,31.759526 95.7911829,32.5883751 94.8911133,33.340332 C93.9682571,34.1036822 92.9058491,34.7018208 91.7038574,35.1347656 C90.5018657,35.5677105 89.3084369,35.7841797 88.1235352,35.7841797 C86.3575758,35.7841797 84.8793191,35.317062 83.6887207,34.3828125 C82.4981223,33.448563 81.902832,32.3149481 81.902832,30.9819336 C81.902832,30.2071901 82.1506323,29.4466997 82.6462402,28.7004395 C83.1418482,27.9541792 84.0105732,27.0740611 85.2524414,26.0600586 C84.7397435,25.5929339 84.31535,25.114423 83.979248,24.6245117 C83.6431461,24.1346004 83.3725596,23.599124 83.1674805,23.0180664 C83.5776388,22.6306947 84.0276668,22.2632667 84.5175781,21.9157715 C85.0074894,21.5682763 85.5486624,21.2236345 86.1411133,20.8818359 C84.9903914,20.5172508 84.0903353,19.9077191 83.440918,19.0532227 C82.7915007,18.1987262 82.4667969,17.2075252 82.4667969,16.0795898 C82.4667969,14.3136305 83.1190527,12.8211324 84.423584,11.6020508 C85.7281152,10.3829692 87.360179,9.7734375 89.3198242,9.7734375 C90.0376012,9.7734375 90.709795,9.8674307 91.3364258,10.0554199 C91.9630565,10.2434091 92.5953744,10.5367819 93.2333984,10.9355469 Z M114.493164,17.4467773 L106.15332,17.4467773 C105.503903,17.4467773 104.905764,17.4581705 104.358887,17.480957 C103.812009,17.5037436 103.305015,17.5379229 102.837891,17.5834961 L102.837891,18.2158203 C102.837891,20.4489044 103.353429,22.1749614 104.384521,23.394043 C105.415614,24.6131246 106.871084,25.2226562 108.750977,25.2226562 C109.582686,25.2226562 110.402991,25.0830906 111.211914,24.8039551 C112.020837,24.5248196 112.881018,24.0890329 113.79248,23.496582 L114.458984,24.590332 C113.285476,25.5473681 112.114833,26.2708309 110.947021,26.7607422 C109.77921,27.2506535 108.625657,27.4956055 107.486328,27.4956055 C105.276031,27.4956055 103.453132,26.7066322 102.017578,25.1286621 C100.582024,23.550692 99.8642578,21.5255657 99.8642578,19.0532227 C99.8642578,16.4213736 100.616203,14.2111092 102.120117,12.4223633 C103.624031,10.6336174 105.458323,9.73925781 107.623047,9.73925781 C109.639659,9.73925781 111.246088,10.4114516 112.442383,11.7558594 C113.638678,13.1002671 114.322265,14.9972208 114.493164,17.4467773 Z M111.331543,15.6523438 C110.989744,14.2509696 110.471358,13.1771684 109.776367,12.4309082 C109.081377,11.684648 108.249679,11.3115234 107.28125,11.3115234 C106.187495,11.3115234 105.250411,11.7501584 104.469971,12.6274414 C103.689531,13.5047244 103.179689,14.6896084 102.94043,16.1821289 C105.1963,16.1821289 106.970778,16.142253 108.263916,16.0625 C109.557054,15.982747 110.579586,15.8460296 111.331543,15.6523438 Z M134.778809,11.5336914 C133.252108,11.5336914 132.0245,12.0891058 131.095947,13.1999512 C130.167394,14.3107966 129.703125,15.8061429 129.703125,17.6860352 C129.703125,20.0900185 130.218663,22.0382412 131.249756,23.5307617 C132.280848,25.0232822 133.622388,25.7695312 135.274414,25.7695312 C136.869474,25.7695312 138.142655,25.1770893 139.093994,23.9921875 C140.045334,22.8072857 140.520996,21.1951599 140.520996,19.1557617 C140.520996,16.9226776 139.982671,15.0940826 138.906006,13.6699219 C137.82934,12.2457611 136.453622,11.5336914 134.778809,11.5336914 Z M135.223145,9.73925781 C137.627128,9.73925781 139.618075,10.5453207 141.196045,12.1574707 C142.774015,13.7696207 143.562988,15.7662641 143.562988,18.1474609 C143.562988,20.7679167 142.731291,22.9753328 141.067871,24.7697754 C139.404451,26.564218 137.353691,27.4614258 134.915527,27.4614258 C132.477364,27.4614258 130.475024,26.6411215 128.908447,25.0004883 C127.34187,23.3598551 126.558594,21.2863081 126.558594,18.7797852 C126.558594,16.2732622 127.410229,14.1399014 129.113525,12.3796387 C130.816822,10.619376 132.853341,9.73925781 135.223145,9.73925781 Z M151.08252,9.53417969 C151.002767,10.3089231 150.940104,11.0921998 150.894531,11.8840332 C150.848958,12.6758666 150.814779,13.5161088 150.791992,14.4047852 C151.714848,12.7755452 152.566484,11.6020544 153.346924,10.8842773 C154.127364,10.1665003 154.933427,9.80761719 155.765137,9.80761719 C156.414554,9.80761719 156.927244,9.98136219 157.303223,10.3288574 C157.679201,10.6763526 157.867188,11.1463187 157.867188,11.7387695 C157.867188,12.1603211 157.744712,12.5220525 157.499756,12.8239746 C157.2548,13.1258967 156.967124,13.2768555 156.636719,13.2768555 C156.43164,13.2768555 156.115481,13.1657726 155.688232,12.9436035 C155.260984,12.7214344 154.893556,12.6103516 154.585938,12.6103516 C153.993487,12.6103516 153.401045,12.8695449 152.808594,13.3879395 C152.216143,13.906334 151.595218,14.7123969 150.945801,15.8061523 L150.945801,17.6860352 C150.945801,19.5089609 150.960042,20.9872176 150.988525,22.1208496 C151.017009,23.2544816 151.059733,23.9750961 151.116699,24.2827148 C151.219239,24.8637724 151.438556,25.2625315 151.774658,25.4790039 C152.11076,25.6954763 152.683264,25.8037109 153.492188,25.8037109 L153.987793,25.8037109 L153.987793,27 C153.099117,26.9316403 152.307295,26.8803713 151.612305,26.8461914 C150.917314,26.8120115 150.330569,26.7949219 149.852051,26.7949219 C149.19124,26.7949219 148.510502,26.8120115 147.809814,26.8461914 C147.109127,26.8803713 146.37712,26.9316403 145.61377,27 L145.61377,25.8037109 L146.006836,25.8037109 C146.838546,25.8037109 147.402505,25.6043314 147.69873,25.2055664 C147.994956,24.8068014 148.143066,23.8782625 148.143066,22.4199219 L148.143066,15.0712891 C148.143066,13.8408142 148.057618,13.0489927 147.886719,12.6958008 C147.715819,12.3426089 147.402509,12.1660156 146.946777,12.1660156 C146.855631,12.1660156 146.75879,12.1688639 146.65625,12.1745605 C146.55371,12.1802572 146.382814,12.2001951 146.143555,12.234375 L145.938477,11.1748047 C146.7474,10.9925121 147.579097,10.7646498 148.433594,10.4912109 C149.28809,10.2177721 150.171057,9.89876484 151.08252,9.53417969 Z M184.117188,3.34765625 C184.117188,4.19075942 184.165608,5.02245684 184.262451,5.84277344 C184.359294,6.66309004 184.510253,7.47200122 184.715332,8.26953125 L183.382324,8.52587891 C183.188638,7.11311143 182.644617,6.06494482 181.750244,5.38134766 C180.855871,4.69775049 179.594084,4.35595703 177.964844,4.35595703 C176.46093,4.35595703 175.239018,4.72053672 174.299072,5.44970703 C173.359126,6.17887734 172.88916,7.11880935 172.88916,8.26953125 C172.88916,10.1608167 174.894348,11.7786391 178.904785,13.1230469 C179.44027,13.2939462 179.850422,13.4306635 180.135254,13.5332031 C181.969573,14.1712271 183.319657,14.9886832 184.185547,15.9855957 C185.051437,16.9825082 185.484375,18.215813 185.484375,19.6855469 C185.484375,21.9528108 184.624195,23.7899506 182.903809,25.1970215 C181.183422,26.6040923 178.904799,27.3076172 176.067871,27.3076172 C174.985509,27.3076172 173.928797,27.2193205 172.897705,27.0427246 C171.866613,26.8661287 170.821294,26.5898456 169.761719,26.2138672 C169.773112,26.0999343 169.781657,25.9660652 169.787354,25.8122559 C169.79305,25.6584465 169.795898,25.4334325 169.795898,25.137207 C169.795898,24.3282837 169.750326,23.5307656 169.65918,22.7446289 C169.568033,21.9584922 169.431316,21.1723672 169.249023,20.3862305 L170.787109,20.0273438 C170.980795,21.8958427 171.567541,23.2630165 172.547363,24.1289062 C173.527186,24.994796 174.979808,25.4277344 176.905273,25.4277344 C178.59148,25.4277344 179.96435,25.0033408 181.023926,24.154541 C182.083501,23.3057412 182.613281,22.2148504 182.613281,20.8818359 C182.613281,18.9905504 180.96128,17.5208386 177.657227,16.4726562 C177.190102,16.3245435 176.825522,16.2049158 176.563477,16.1137695 C174.273426,15.3732059 172.632817,14.4674533 171.641602,13.3964844 C170.650386,12.3255155 170.154785,10.9583417 170.154785,9.29492188 C170.154785,7.33527666 170.929517,5.70036462 172.479004,4.39013672 C174.028491,3.07990881 175.971017,2.42480469 178.306641,2.42480469 C179.161137,2.42480469 180.027014,2.49316338 180.904297,2.62988281 C181.78158,2.76660225 182.852533,3.00585767 184.117188,3.34765625 Z M201.155762,23.6333008 L202.010254,24.9321289 C200.905105,25.7752321 199.817063,26.4132465 198.746094,26.8461914 C197.675125,27.2791363 196.661138,27.4956055 195.704102,27.4956055 C193.471017,27.4956055 191.648119,26.6952391 190.235352,25.0944824 C188.822584,23.4937257 188.116211,21.4458133 188.116211,18.9506836 C188.116211,16.3644076 189.01057,14.1769295 190.799316,12.3881836 C192.588062,10.5994377 194.769844,9.70507812 197.344727,9.70507812 C198.666348,9.70507812 199.686032,9.89021625 200.403809,10.260498 C201.121586,10.6307798 201.480469,11.1463183 201.480469,11.8071289 C201.480469,12.2856469 201.335207,12.6986474 201.044678,13.0461426 C200.754149,13.3936378 200.4209,13.5673828 200.044922,13.5673828 C199.919596,13.5673828 199.392664,13.2797067 198.464111,12.7043457 C197.535559,12.1289848 196.649744,11.8413086 195.806641,11.8413086 C194.325513,11.8413086 193.149174,12.3739367 192.277588,13.439209 C191.406002,14.5044812 190.970215,15.9542552 190.970215,17.7885742 C190.970215,20.1014113 191.497146,21.9043718 192.551025,23.1975098 C193.604904,24.4906477 195.066071,25.137207 196.93457,25.137207 C197.629561,25.137207 198.321693,25.0175793 199.010986,24.7783203 C199.70028,24.5390613 200.415198,24.1573919 201.155762,23.6333008 Z M208.98291,0.579101562 C208.937337,2.49317363 208.897461,4.4470929 208.863281,6.44091797 C208.829101,8.43474304 208.806315,10.4798072 208.794922,12.5761719 C210.07097,11.6077426 211.210281,10.8928246 212.212891,10.4313965 C213.2155,9.9699684 214.126949,9.73925781 214.947266,9.73925781 C216.622079,9.73925781 217.881018,10.2120721 218.724121,11.1577148 C219.567224,12.1033576 219.98877,13.5218004 219.98877,15.4130859 C219.98877,15.4244792 219.983073,15.9257763 219.97168,16.9169922 C219.960286,17.9082081 219.95459,18.8994091 219.95459,19.890625 C219.95459,20.3121766 219.948893,20.8391082 219.9375,21.4714355 C219.926107,22.1037629 219.92041,22.533853 219.92041,22.7617188 C219.92041,24.0377668 220.034341,24.8694642 220.262207,25.2568359 C220.490073,25.6442077 220.923011,25.8378906 221.561035,25.8378906 C221.595215,25.8378906 221.660725,25.8321941 221.757568,25.8208008 C221.854411,25.8094075 221.931315,25.8037109 221.988281,25.8037109 L221.988281,27 C220.951492,26.9316403 220.171064,26.8860678 219.646973,26.8632812 C219.122881,26.8404947 218.689943,26.8291016 218.348145,26.8291016 C217.801267,26.8291016 217.211673,26.843343 216.579346,26.8718262 C215.947018,26.9003094 215.289066,26.9430336 214.605469,27 L214.588379,25.8037109 L214.844727,25.8037109 C216.303067,25.8037109 217.049316,24.4707165 217.083496,21.8046875 L217.083496,21.4628906 L217.117676,17.7885742 L217.117676,17.0878906 C217.117676,15.0143125 216.872724,13.6385939 216.382813,12.9606934 C215.892901,12.2827928 215.049811,11.9438477 213.853516,11.9438477 C213.204098,11.9438477 212.483484,12.1033513 211.69165,12.4223633 C210.899817,12.7413753 209.96843,13.2483689 208.897461,13.9433594 L208.812012,20.0273438 C208.812012,20.3691423 208.806315,20.8077773 208.794922,21.3432617 C208.783529,21.8787462 208.777832,22.2490224 208.777832,22.4541016 C208.777832,23.866869 208.891763,24.7840148 209.119629,25.2055664 C209.347495,25.627118 209.78613,25.8378906 210.435547,25.8378906 C210.48112,25.8378906 210.552327,25.8321941 210.64917,25.8208008 C210.746013,25.8094075 210.822916,25.8037109 210.879883,25.8037109 L210.879883,27 C210.162106,26.9430336 209.487064,26.9003094 208.854736,26.8718262 C208.222409,26.843343 207.672691,26.8291016 207.205566,26.8291016 C206.761228,26.8291016 206.248538,26.8404947 205.66748,26.8632812 C205.086423,26.8860678 204.328781,26.9259437 203.394531,26.9829102 L203.394531,25.8037109 C203.462891,25.8037109 203.559732,25.8094075 203.685059,25.8208008 C203.810385,25.8321941 203.90153,25.8378906 203.958496,25.8378906 C204.744633,25.8378906 205.274413,25.6299663 205.547852,25.2141113 C205.82129,24.7982564 205.958008,23.5877379 205.958008,21.5825195 L205.958008,20.3178711 L206.026367,7.46630859 L206.026367,4.52685547 C206.026367,4.03694417 205.920981,3.6695162 205.710205,3.42456055 C205.499429,3.1796049 205.18327,3.05712891 204.761719,3.05712891 C204.602213,3.05712891 204.340171,3.09130825 203.975586,3.15966797 C203.88444,3.18245454 203.821778,3.19384766 203.787598,3.19384766 L203.53125,2.08300781 C204.465499,1.90071523 205.382645,1.68709432 206.282715,1.44213867 C207.182784,1.19718302 208.082841,0.90950686 208.98291,0.579101562 Z M232.515625,11.5336914 C230.988925,11.5336914 229.761316,12.0891058 228.832764,13.1999512 C227.904211,14.3107966 227.439941,15.8061429 227.439941,17.6860352 C227.439941,20.0900185 227.95548,22.0382412 228.986572,23.5307617 C230.017665,25.0232822 231.359204,25.7695312 233.01123,25.7695312 C234.606291,25.7695312 235.879471,25.1770893 236.830811,23.9921875 C237.78215,22.8072857 238.257812,21.1951599 238.257812,19.1557617 C238.257812,16.9226776 237.719488,15.0940826 236.642822,13.6699219 C235.566157,12.2457611 234.190438,11.5336914 232.515625,11.5336914 Z M232.959961,9.73925781 C235.363944,9.73925781 237.354891,10.5453207 238.932861,12.1574707 C240.510831,13.7696207 241.299805,15.7662641 241.299805,18.1474609 C241.299805,20.7679167 240.468107,22.9753328 238.804688,24.7697754 C237.141268,26.564218 235.090507,27.4614258 232.652344,27.4614258 C230.214181,27.4614258 228.211841,26.6411215 226.645264,25.0004883 C225.078687,23.3598551 224.29541,21.2863081 224.29541,18.7797852 C224.29541,16.2732622 225.147046,14.1399014 226.850342,12.3796387 C228.553638,10.619376 230.590157,9.73925781 232.959961,9.73925781 Z M251.792969,11.5336914 C250.266268,11.5336914 249.03866,12.0891058 248.110107,13.1999512 C247.181555,14.3107966 246.717285,15.8061429 246.717285,17.6860352 C246.717285,20.0900185 247.232824,22.0382412 248.263916,23.5307617 C249.295008,25.0232822 250.636548,25.7695312 252.288574,25.7695312 C253.883634,25.7695312 255.156815,25.1770893 256.108154,23.9921875 C257.059494,22.8072857 257.535156,21.1951599 257.535156,19.1557617 C257.535156,16.9226776 256.996832,15.0940826 255.920166,13.6699219 C254.8435,12.2457611 253.467782,11.5336914 251.792969,11.5336914 Z M252.237305,9.73925781 C254.641288,9.73925781 256.632235,10.5453207 258.210205,12.1574707 C259.788175,13.7696207 260.577148,15.7662641 260.577148,18.1474609 C260.577148,20.7679167 259.745451,22.9753328 258.082031,24.7697754 C256.418611,26.564218 254.367851,27.4614258 251.929688,27.4614258 C249.491524,27.4614258 247.489184,26.6411215 245.922607,25.0004883 C244.356031,23.3598551 243.572754,21.2863081 243.572754,18.7797852 C243.572754,16.2732622 244.424389,14.1399014 246.127686,12.3796387 C247.830982,10.619376 249.867501,9.73925781 252.237305,9.73925781 Z M268.130859,0.579101562 C268.0625,2.69825278 268.022624,5.45538667 268.01123,8.85058594 C267.999837,10.1608138 267.994141,11.1007458 267.994141,11.6704102 L267.959961,15.1738281 L267.959961,22.7958984 C267.959961,24.1061263 268.105223,24.9349755 268.395752,25.2824707 C268.686281,25.6299659 269.235999,25.8037109 270.044922,25.8037109 L270.437988,25.8037109 L270.437988,27 C269.651852,26.9430336 268.914147,26.9003094 268.224854,26.8718262 C267.53556,26.843343 266.928876,26.8291016 266.404785,26.8291016 C265.869301,26.8291016 265.282555,26.843343 264.644531,26.8718262 C264.006507,26.9003094 263.34001,26.9430336 262.64502,27 L262.62793,25.8037109 C262.707683,25.8037109 262.807372,25.8094075 262.927002,25.8208008 C263.046631,25.8321941 263.134928,25.8378906 263.191895,25.8378906 C263.989425,25.8378906 264.522053,25.6299663 264.789795,25.2141113 C265.057537,24.7982564 265.191406,23.5877379 265.191406,21.5825195 L265.191406,20.3178711 L265.259766,7.46630859 L265.259766,4.52685547 C265.259766,4.03694417 265.154379,3.6695162 264.943604,3.42456055 C264.732828,3.1796049 264.416669,3.05712891 263.995117,3.05712891 C263.835611,3.05712891 263.53939,3.09700481 263.106445,3.17675781 C263.049479,3.1881511 263.009603,3.19384766 262.986816,3.19384766 L262.730469,2.08300781 C263.687505,1.92350181 264.613195,1.71842573 265.507568,1.46777344 C266.401941,1.21712114 267.276363,0.920900146 268.130859,0.579101562 Z M282.674316,2.61279297 C283.209801,2.65836611 283.731036,2.69254546 284.238037,2.71533203 C284.745038,2.7381186 285.243487,2.74951172 285.733398,2.74951172 C286.097984,2.74951172 286.525225,2.7381186 287.015137,2.71533203 C287.505048,2.69254546 288.034828,2.65836611 288.604492,2.61279297 C288.752605,2.98877141 288.957681,3.37613733 289.219727,3.77490234 C289.481772,4.17366736 289.812172,4.61230229 290.210938,5.09082031 L304.310059,21.7705078 C304.275879,20.0387283 304.241699,17.7430156 304.20752,14.8833008 C304.116373,8.87903899 304.013835,5.64909082 303.899902,5.19335938 C303.763183,4.66926821 303.521079,4.30468853 303.173584,4.09960938 C302.826089,3.89453022 302.259281,3.79199219 301.473145,3.79199219 L300.943359,3.79199219 L300.943359,2.61279297 C301.080079,2.61279297 301.285155,2.61848953 301.558594,2.62988281 C303.17644,2.70963582 304.315752,2.74951172 304.976562,2.74951172 C305.648766,2.74951172 306.822257,2.70963582 308.49707,2.62988281 C308.736329,2.61848953 308.918619,2.61279297 309.043945,2.61279297 L309.026855,3.79199219 C308.958496,3.7805989 308.884441,3.77205406 308.804688,3.76635742 C308.724934,3.76066078 308.6167,3.7578125 308.47998,3.7578125 C306.95328,3.7578125 306.178548,5.88262849 306.155762,10.1323242 C306.144368,11.2032931 306.138672,12.0406871 306.138672,12.6445312 L306.070312,17.1904297 C306.047526,17.8626336 306.033285,18.5547653 306.027588,19.2668457 C306.021891,19.9789261 306.019043,20.9558857 306.019043,22.1977539 C306.019043,23.5763415 306.036133,24.6501426 306.070312,25.4191895 C306.104492,26.1882363 306.161458,26.8063128 306.241211,27.2734375 L304.344238,27.2734375 C304.150552,26.8177061 303.461269,25.9062568 302.276367,24.5390625 L302.105469,24.3339844 L287.442383,7.09033203 L287.442383,7.48339844 C287.510743,18.1475143 287.624674,23.7871063 287.78418,24.4023438 C287.920899,24.9264349 288.163003,25.2910146 288.510498,25.4960938 C288.857993,25.7011729 289.413408,25.8037109 290.176758,25.8037109 L290.689453,25.8037109 L290.689453,27 C290.518554,26.9886067 290.267905,26.9772136 289.9375,26.9658203 C288.34244,26.8974606 287.254397,26.8632812 286.67334,26.8632812 C286.115069,26.8632812 285.496992,26.8746744 284.819092,26.8974609 C284.141191,26.9202475 283.426273,26.9544269 282.674316,27 L282.674316,25.8208008 C282.742676,25.8208008 282.81958,25.8236491 282.905029,25.8293457 C282.990479,25.8350423 283.101562,25.8378906 283.238281,25.8378906 C284.764982,25.8378906 285.539713,23.7244677 285.5625,19.4975586 C285.573893,18.4265897 285.57959,17.5891957 285.57959,16.9853516 L285.665039,12.4394531 C285.676432,11.4596305 285.684977,10.5054571 285.690674,9.5769043 C285.69637,8.64835148 285.699219,7.58594348 285.699219,6.38964844 C285.699219,5.40982583 285.511232,4.73193547 285.135254,4.35595703 C284.759275,3.97997859 284.092778,3.79199219 283.135742,3.79199219 L282.674316,3.79199219 L282.674316,2.61279297 Z M326.338867,24.5219727 L326.817383,25.5986328 C325.962886,26.2138703 325.182458,26.6895328 324.476074,27.0256348 C323.76969,27.3617367 323.200035,27.5297852 322.76709,27.5297852 C322.03792,27.5297852 321.49105,27.3161642 321.126465,26.888916 C320.76188,26.4616678 320.5625,25.8151085 320.52832,24.9492188 C319.286452,25.7809286 318.255375,26.3762189 317.435059,26.7351074 C316.614742,27.0939959 315.879886,27.2734375 315.230469,27.2734375 C314.079747,27.2734375 313.117029,26.8404991 312.342285,25.9746094 C311.567542,25.1087196 311.180176,24.0491599 311.180176,22.7958984 C311.180176,20.6653539 313.475889,19.0589247 318.067383,17.9765625 C319.149745,17.7259102 319.992836,17.5265307 320.59668,17.378418 C320.59668,17.1847321 320.602376,16.9056008 320.61377,16.5410156 C320.647949,15.7890587 320.665039,15.2991548 320.665039,15.0712891 C320.665039,13.8863873 320.420087,13.0119657 319.930176,12.447998 C319.440264,11.8840304 318.694015,11.6020508 317.691406,11.6020508 C316.711584,11.6020508 315.9397,11.7814923 315.375732,12.1403809 C314.811765,12.4992694 314.529785,12.986325 314.529785,13.6015625 C314.529785,13.6585289 314.535482,13.7354325 314.546875,13.8322754 C314.558268,13.9291183 314.563965,14.0003253 314.563965,14.0458984 C314.563965,14.3990903 314.393068,14.692463 314.05127,14.9260254 C313.709471,15.1595878 313.299319,15.2763672 312.820801,15.2763672 C312.410642,15.2763672 312.108725,15.2080085 311.915039,15.0712891 C311.721353,14.9345696 311.624512,14.723797 311.624512,14.4389648 C311.624512,13.527502 312.393547,12.5106664 313.931641,11.3884277 C315.469734,10.2661891 317.059074,9.70507813 318.699707,9.70507813 C320.283374,9.70507813 321.485347,10.1408648 322.305664,11.0124512 C323.125981,11.8840376 323.536133,13.1629147 323.536133,14.8491211 C323.536133,15.760584 323.482016,17.1619372 323.373779,19.0532227 C323.265543,20.9445082 323.211426,22.3800407 323.211426,23.3598633 C323.211426,24.1004269 323.294026,24.601724 323.459229,24.8637695 C323.624431,25.1258151 323.917804,25.2568359 324.339355,25.2568359 C324.521648,25.2568359 324.758055,25.2027186 325.048584,25.0944824 C325.339113,24.9862462 325.769203,24.7954115 326.338867,24.5219727 Z M320.51123,18.7456055 L319.537109,19.0019531 C315.834291,20.0159556 313.98291,21.2122327 313.98291,22.5908203 C313.98291,23.3427772 314.222166,23.9551571 314.700684,24.4279785 C315.179202,24.9007999 315.81152,25.137207 316.597656,25.137207 C317.076174,25.137207 317.62874,25.0118828 318.255371,24.7612305 C318.882002,24.5105782 319.611161,24.1118191 320.442871,23.5649414 L320.51123,18.7456055 Z M333.072266,9.53417969 C333.026692,10.0013044 332.986817,10.4541807 332.952637,10.8928223 C332.918457,11.3314638 332.895671,11.772947 332.884277,12.2172852 C334.433764,11.2374625 335.641434,10.5795101 336.507324,10.2434082 C337.373214,9.90730626 338.204911,9.73925781 339.002441,9.73925781 C339.970871,9.73925781 340.794023,9.96142356 341.471924,10.4057617 C342.149824,10.8500999 342.728025,11.5507765 343.206543,12.5078125 C344.733243,11.49381 345.980789,10.7788921 346.949219,10.3630371 C347.917648,9.94718217 348.789221,9.73925781 349.563965,9.73925781 C351.227385,9.73925781 352.437903,10.2462514 353.195557,11.2602539 C353.95321,12.2742564 354.332031,13.914865 354.332031,16.1821289 L354.332031,16.5410156 L354.263672,22.1635742 C354.263672,22.7332385 354.252279,23.2516253 354.229492,23.71875 L354.229492,23.7871094 C354.229492,24.607426 354.354816,25.148599 354.605469,25.4106445 C354.856121,25.6726901 355.357418,25.8037109 356.109375,25.8037109 L356.502441,25.8037109 L356.502441,27 C355.397293,26.9316403 354.571292,26.8860678 354.024414,26.8632812 C353.477536,26.8404947 353.033205,26.8291016 352.691406,26.8291016 C352.326821,26.8291016 351.873945,26.8404947 351.332764,26.8632812 C350.791583,26.8860678 350.019699,26.9316403 349.01709,27 L349.01709,25.8037109 C349.08545,25.8151042 349.170898,25.8236491 349.273438,25.8293457 C349.375977,25.8350423 349.518391,25.8378906 349.700684,25.8378906 C350.429854,25.8378906 350.91691,25.6014835 351.161865,25.1286621 C351.406821,24.6558407 351.529297,23.5079844 351.529297,21.6850586 L351.529297,19.1899414 C351.529297,18.7797831 351.534993,18.2386101 351.546387,17.5664062 C351.55778,16.8942024 351.563477,16.4213881 351.563477,16.1479492 C351.563477,14.6896086 351.298587,13.6186558 350.768799,12.9350586 C350.239011,12.2514614 349.421555,11.909668 348.316406,11.909668 C347.780922,11.909668 347.142907,12.0520819 346.402344,12.3369141 C345.66178,12.6217462 344.744634,13.0774708 343.650879,13.7041016 L343.51416,22.1293945 L343.51416,23.5307617 C343.51416,24.5561575 343.642333,25.1913236 343.898682,25.4362793 C344.155031,25.6812349 344.681962,25.8037109 345.479492,25.8037109 L345.68457,25.8037109 L345.68457,26.9829102 C344.784501,26.937337 344.032555,26.9003094 343.428711,26.8718262 C342.824867,26.843343 342.30648,26.8291016 341.873535,26.8291016 C341.44059,26.8291016 340.933597,26.843343 340.352539,26.8718262 C339.771481,26.9003094 339.16195,26.9430336 338.523926,27 L338.506836,25.8037109 C339.304366,25.8037109 339.822753,25.7382005 340.062012,25.6071777 C340.301271,25.4761549 340.472167,25.1713891 340.574707,24.6928711 C340.65446,24.3168927 340.714274,23.3655675 340.75415,21.8388672 C340.794027,20.3121668 340.813965,18.3582476 340.813965,15.9770508 C340.813965,14.55289 340.560468,13.5189648 340.053467,12.8752441 C339.546466,12.2315235 338.740403,11.909668 337.635254,11.909668 C337.099769,11.909668 336.458907,12.0492336 335.712646,12.3283691 C334.966386,12.6075047 334.069178,13.0432913 333.020996,13.6357422 C332.952636,15.4928478 332.904216,17.1049736 332.875732,18.472168 C332.847249,19.8393623 332.833008,21.0812119 332.833008,22.1977539 C332.833008,23.9409267 332.949787,24.9833967 333.18335,25.3251953 C333.416912,25.6669939 333.909664,25.8378906 334.661621,25.8378906 C334.718588,25.8378906 334.806884,25.8321941 334.926514,25.8208008 C335.046143,25.8094075 335.145833,25.8037109 335.225586,25.8037109 L335.208496,27 C334.502112,26.9430336 333.818525,26.9003094 333.157715,26.8718262 C332.496904,26.843343 331.875979,26.8291016 331.294922,26.8291016 C330.793617,26.8291016 330.235355,26.843343 329.620117,26.8718262 C329.00488,26.9003094 328.355472,26.9430336 327.671875,27 L327.654785,25.8037109 L327.979492,25.8037109 C329.403653,25.8037109 330.121419,24.4194474 330.132812,21.6508789 C330.132812,21.2407206 330.138509,20.9217134 330.149902,20.6938477 L330.184082,16.5068359 L330.184082,14.8149414 C330.184082,13.6983994 330.098634,12.9663917 329.927734,12.6188965 C329.756835,12.2714013 329.443524,12.0976562 328.987793,12.0976562 C328.896647,12.0976562 328.779867,12.1090494 328.637451,12.1318359 C328.495035,12.1546225 328.344076,12.1888019 328.18457,12.234375 L327.979492,11.1748047 C328.822595,10.946939 329.671382,10.6962904 330.525879,10.4228516 C331.380375,10.1494127 332.229162,9.8531917 333.072266,9.53417969 Z M373.438477,17.4467773 L365.098633,17.4467773 C364.449216,17.4467773 363.851077,17.4581705 363.304199,17.480957 C362.757321,17.5037436 362.250328,17.5379229 361.783203,17.5834961 L361.783203,18.2158203 C361.783203,20.4489044 362.298742,22.1749614 363.329834,23.394043 C364.360926,24.6131246 365.816397,25.2226562 367.696289,25.2226562 C368.527999,25.2226562 369.348303,25.0830906 370.157227,24.8039551 C370.96615,24.5248196 371.82633,24.0890329 372.737793,23.496582 L373.404297,24.590332 C372.230788,25.5473681 371.060146,26.2708309 369.892334,26.7607422 C368.724522,27.2506535 367.570969,27.4956055 366.431641,27.4956055 C364.221343,27.4956055 362.398445,26.7066322 360.962891,25.1286621 C359.527337,23.550692 358.80957,21.5255657 358.80957,19.0532227 C358.80957,16.4213736 359.561516,14.2111092 361.06543,12.4223633 C362.569343,10.6336174 364.403635,9.73925781 366.568359,9.73925781 C368.584971,9.73925781 370.1914,10.4114516 371.387695,11.7558594 C372.58399,13.1002671 373.267577,14.9972208 373.438477,17.4467773 Z M370.276855,15.6523438 C369.935057,14.2509696 369.41667,13.1771684 368.72168,12.4309082 C368.026689,11.684648 367.194992,11.3115234 366.226562,11.3115234 C365.132807,11.3115234 364.195723,11.7501584 363.415283,12.6274414 C362.634843,13.5047244 362.125001,14.6896084 361.885742,16.1821289 C364.141613,16.1821289 365.916091,16.142253 367.209229,16.0625 C368.502366,15.982747 369.524899,15.8460296 370.276855,15.6523438 Z" id="Unit-Name" fill="#000000"></path>
    </g>
</svg>