<?xml version="1.0" encoding="UTF-8"?>
<svg width="480px" height="36px" viewBox="0 0 480 36" version="1.1" xmlns="http://www.w3.org/2000/svg" xmlns:xlink="http://www.w3.org/1999/xlink">
    <!-- Generator: Sketch 48.2 (47327) - http://www.bohemiancoding.com/sketch -->
    <title>Unit Name</title>
    <desc>Created with Sketch.</desc>
    <defs></defs>
    <g id="Page-1" stroke="none" stroke-width="1" fill="none" fill-rule="evenodd">
        <path d="M21.6069336,3.38183594 L21.6069336,3.96289062 C21.6069336,4.76042065 21.6354164,5.58926979 21.6923828,6.44946289 C21.7493492,7.30965599 21.8347976,8.21256038 21.9487305,9.15820312 L20.7011719,9.36328125 C20.4733062,7.72264805 19.6985743,6.44377086 18.3769531,5.52661133 C17.0553319,4.60945179 15.329275,4.15087891 13.1987305,4.15087891 C10.3618022,4.15087891 8.17147582,5.01960394 6.62768555,6.75708008 C5.08389528,8.49455621 4.31201172,10.9583174 4.31201172,14.1484375 C4.31201172,17.5550301 5.19782643,20.3093157 6.96948242,22.411377 C8.74113842,24.5134382 11.0396994,25.5644531 13.8652344,25.5644531 C15.642587,25.5644531 17.1835058,25.154301 18.4880371,24.3339844 C19.7925684,23.5136678 20.8094039,22.3116941 21.5385742,20.7280273 L22.6835938,21.2919922 C22.3190086,22.0325558 21.9886083,22.7873497 21.6923828,23.5563965 C21.3961574,24.3254433 21.1341157,25.0973269 20.90625,25.8720703 C19.6757751,26.4303413 18.4225324,26.8518866 17.1464844,27.1367188 C15.8704363,27.4215509 14.5887109,27.5639648 13.3012695,27.5639648 C9.51869854,27.5639648 6.45679882,26.3933223 4.11547852,24.052002 C1.77415822,21.7106817 0.603515625,18.6316923 0.603515625,14.8149414 C0.603515625,11.055157 1.83966863,7.99325726 4.31201172,5.62915039 C6.78435481,3.26504352 9.98012363,2.08300781 13.8994141,2.08300781 C15.0615292,2.08300781 16.2891374,2.19124241 17.5822754,2.40771484 C18.8754134,2.62418728 20.2169527,2.94889106 21.6069336,3.38183594 Z M33.2963867,11.5336914 C31.7696864,11.5336914 30.5420782,12.0891058 29.6135254,13.1999512 C28.6849726,14.3107966 28.2207031,15.8061429 28.2207031,17.6860352 C28.2207031,20.0900185 28.7362416,22.0382412 29.767334,23.5307617 C30.7984264,25.0232822 32.1399657,25.7695312 33.7919922,25.7695312 C35.3870522,25.7695312 36.6602329,25.1770893 37.6115723,23.9921875 C38.5629117,22.8072857 39.0385742,21.1951599 39.0385742,19.1557617 C39.0385742,16.9226776 38.5002495,15.0940826 37.423584,13.6699219 C36.3469184,12.2457611 34.9711998,11.5336914 33.2963867,11.5336914 Z M33.7407227,9.73925781 C36.144706,9.73925781 38.1356529,10.5453207 39.713623,12.1574707 C41.2915932,13.7696207 42.0805664,15.7662641 42.0805664,18.1474609 C42.0805664,20.7679167 41.248869,22.9753328 39.5854492,24.7697754 C37.9220294,26.564218 35.8712687,27.4614258 33.4331055,27.4614258 C30.9949422,27.4614258 28.9926022,26.6411215 27.4260254,25.0004883 C25.8594485,23.3598551 25.0761719,21.2863081 25.0761719,18.7797852 C25.0761719,16.2732622 25.9278072,14.1399014 27.6311035,12.3796387 C29.3343998,10.619376 31.3709191,9.73925781 33.7407227,9.73925781 Z M49.6342773,0.579101562 C49.5659176,2.69825278 49.5260417,5.45538667 49.5146484,8.85058594 C49.5032552,10.1608138 49.4975586,11.1007458 49.4975586,11.6704102 L49.4633789,15.1738281 L49.4633789,22.7958984 C49.4633789,24.1061263 49.6086411,24.9349755 49.8991699,25.2824707 C50.1896987,25.6299659 50.7394165,25.8037109 51.5483398,25.8037109 L51.9414062,25.8037109 L51.9414062,27 C51.1552695,26.9430336 50.4175653,26.9003094 49.7282715,26.8718262 C49.0389777,26.843343 48.4322943,26.8291016 47.9082031,26.8291016 C47.3727187,26.8291016 46.7859732,26.843343 46.1479492,26.8718262 C45.5099252,26.9003094 44.843428,26.9430336 44.1484375,27 L44.1313477,25.8037109 C44.2111007,25.8037109 44.3107904,25.8094075 44.4304199,25.8208008 C44.5500494,25.8321941 44.6383461,25.8378906 44.6953125,25.8378906 C45.4928425,25.8378906 46.0254707,25.6299663 46.2932129,25.2141113 C46.5609551,24.7982564 46.6948242,23.5877379 46.6948242,21.5825195 L46.6948242,20.3178711 L46.7631836,7.46630859 L46.7631836,4.52685547 C46.7631836,4.03694417 46.6577973,3.6695162 46.4470215,3.42456055 C46.2362457,3.1796049 45.9200867,3.05712891 45.4985352,3.05712891 C45.3390292,3.05712891 45.0428082,3.09700481 44.6098633,3.17675781 C44.5528969,3.1881511 44.5130209,3.19384766 44.4902344,3.19384766 L44.2338867,2.08300781 C45.1909228,1.92350181 46.1166134,1.71842573 47.0109863,1.46777344 C47.9053593,1.21712114 48.7797809,0.920900146 49.6342773,0.579101562 Z M59.8540039,0.579101562 C59.7856442,2.69825278 59.7457683,5.45538667 59.734375,8.85058594 C59.7229817,10.1608138 59.7172852,11.1007458 59.7172852,11.6704102 L59.6831055,15.1738281 L59.6831055,22.7958984 C59.6831055,24.1061263 59.8283677,24.9349755 60.1188965,25.2824707 C60.4094253,25.6299659 60.9591431,25.8037109 61.7680664,25.8037109 L62.1611328,25.8037109 L62.1611328,27 C61.3749961,26.9430336 60.6372919,26.9003094 59.947998,26.8718262 C59.2587042,26.843343 58.6520208,26.8291016 58.1279297,26.8291016 C57.5924452,26.8291016 57.0056998,26.843343 56.3676758,26.8718262 C55.7296518,26.9003094 55.0631545,26.9430336 54.3681641,27 L54.3510742,25.8037109 C54.4308272,25.8037109 54.530517,25.8094075 54.6501465,25.8208008 C54.769776,25.8321941 54.8580726,25.8378906 54.9150391,25.8378906 C55.7125691,25.8378906 56.2451972,25.6299663 56.5129395,25.2141113 C56.7806817,24.7982564 56.9145508,23.5877379 56.9145508,21.5825195 L56.9145508,20.3178711 L56.9829102,7.46630859 L56.9829102,4.52685547 C56.9829102,4.03694417 56.8775238,3.6695162 56.666748,3.42456055 C56.4559723,3.1796049 56.1398133,3.05712891 55.7182617,3.05712891 C55.5587557,3.05712891 55.2625347,3.09700481 54.8295898,3.17675781 C54.7726234,3.1881511 54.7327475,3.19384766 54.7099609,3.19384766 L54.4536133,2.08300781 C55.4106493,1.92350181 56.3363399,1.71842573 57.2307129,1.46777344 C58.1250859,1.21712114 58.9995074,0.920900146 59.8540039,0.579101562 Z M79.5244141,17.4467773 L71.1845703,17.4467773 C70.535153,17.4467773 69.9370145,17.4581705 69.3901367,17.480957 C68.843259,17.5037436 68.3362654,17.5379229 67.8691406,17.5834961 L67.8691406,18.2158203 C67.8691406,20.4489044 68.3846791,22.1749614 69.4157715,23.394043 C70.4468639,24.6131246 71.9023344,25.2226562 73.7822266,25.2226562 C74.6139365,25.2226562 75.4342407,25.0830906 76.2431641,24.8039551 C77.0520874,24.5248196 77.9122676,24.0890329 78.8237305,23.496582 L79.4902344,24.590332 C78.3167259,25.5473681 77.1460833,26.2708309 75.9782715,26.7607422 C74.8104597,27.2506535 73.6569067,27.4956055 72.5175781,27.4956055 C70.3072806,27.4956055 68.4843822,26.7066322 67.0488281,25.1286621 C65.6132741,23.550692 64.8955078,21.5255657 64.8955078,19.0532227 C64.8955078,16.4213736 65.6474534,14.2111092 67.1513672,12.4223633 C68.655281,10.6336174 70.4895725,9.73925781 72.6542969,9.73925781 C74.6709085,9.73925781 76.2773378,10.4114516 77.4736328,11.7558594 C78.6699279,13.1002671 79.3535148,14.9972208 79.5244141,17.4467773 Z M76.362793,15.6523438 C76.0209944,14.2509696 75.5026076,13.1771684 74.8076172,12.4309082 C74.1126267,11.684648 73.2809293,11.3115234 72.3125,11.3115234 C71.2187445,11.3115234 70.2816608,11.7501584 69.5012207,12.6274414 C68.7207806,13.5047244 68.2109387,14.6896084 67.9716797,16.1821289 C70.2275503,16.1821289 72.002028,16.142253 73.295166,16.0625 C74.588304,15.982747 75.6108361,15.8460296 76.362793,15.6523438 Z M89.3510742,11.0380859 C88.1319926,11.0380859 87.186364,11.4140587 86.5141602,12.1660156 C85.8419563,12.9179725 85.5058594,13.9775322 85.5058594,15.3447266 C85.5058594,16.8486403 85.8334114,18.0192829 86.4885254,18.8566895 C87.1436393,19.694096 88.0636334,20.112793 89.2485352,20.112793 C90.4448302,20.112793 91.3847622,19.7339719 92.0683594,18.9763184 C92.7519565,18.2186648 93.09375,17.1733465 93.09375,15.840332 C93.09375,14.3022384 92.7690462,13.1173544 92.1196289,12.2856445 C91.4702116,11.4539346 90.5473693,11.0380859 89.3510742,11.0380859 Z M86.2407227,26.7607422 C85.6824516,27.3873729 85.2722995,27.9570287 85.0102539,28.4697266 C84.7482083,28.9824244 84.6171875,29.4723284 84.6171875,29.9394531 C84.6171875,30.9990287 85.0928501,31.8933883 86.0441895,32.6225586 C86.9955288,33.3517289 88.1889577,33.7163086 89.6245117,33.7163086 C91.2537516,33.7163086 92.6636496,33.2634323 93.854248,32.357666 C95.0448464,31.4518998 95.6401367,30.4350642 95.6401367,29.3071289 C95.6401367,28.3842727 95.3496123,27.7348652 94.7685547,27.3588867 C94.1874971,26.9829083 93.0709718,26.7949219 91.4189453,26.7949219 C91.248046,26.7949219 90.8720732,26.7892253 90.2910156,26.777832 C89.709958,26.7664387 89.2200541,26.7607422 88.8212891,26.7607422 L86.2407227,26.7607422 Z M93.4013672,10.9355469 C94.1647174,10.9355469 94.9366009,10.9241538 95.717041,10.9013672 C96.4974811,10.8785806 97.2807578,10.8444013 98.0668945,10.7988281 L97.9814453,12.5078125 C97.4801407,12.4508461 96.9304229,12.4081219 96.3322754,12.3796387 C95.7341279,12.3511555 95.0419961,12.3369141 94.2558594,12.3369141 C94.7913438,12.7470724 95.1986477,13.2455212 95.4777832,13.8322754 C95.7569187,14.4190296 95.8964844,15.0655889 95.8964844,15.7719727 C95.8964844,17.3100663 95.2556216,18.6316677 93.973877,19.7368164 C92.6921323,20.8419652 91.1170341,21.3945312 89.2485352,21.3945312 C89.0548493,21.3945312 88.7814145,21.3802899 88.4282227,21.3518066 C88.0750308,21.3233234 87.8243823,21.3033855 87.6762695,21.2919922 C87.3686508,21.4970713 87.0781264,21.7106922 86.8046875,21.9328613 C86.5312486,22.1550304 86.2806001,22.385741 86.0527344,22.625 C86.2236337,22.944012 86.4201649,23.2373847 86.642334,23.505127 C86.8645031,23.7728692 87.1236964,24.026366 87.4199219,24.265625 C87.7731137,24.265625 88.2801074,24.2599284 88.940918,24.2485352 C90.535978,24.2143553 91.5841446,24.1972656 92.0854492,24.1972656 C94.147634,24.1972656 95.6315873,24.5105763 96.5373535,25.137207 C97.4431198,25.7638378 97.8959961,26.7721285 97.8959961,28.1621094 C97.8959961,29.0507857 97.6481958,29.9479935 97.1525879,30.8537598 C96.6569799,31.759526 95.9591516,32.5883751 95.059082,33.340332 C94.1362259,34.1036822 93.0738179,34.7018208 91.8718262,35.1347656 C90.6698345,35.5677105 89.4764057,35.7841797 88.2915039,35.7841797 C86.5255446,35.7841797 85.0472879,35.317062 83.8566895,34.3828125 C82.6660911,33.448563 82.0708008,32.3149481 82.0708008,30.9819336 C82.0708008,30.2071901 82.318601,29.4466997 82.814209,28.7004395 C83.3098169,27.9541792 84.178542,27.0740611 85.4204102,26.0600586 C84.9077123,25.5929339 84.4833187,25.114423 84.1472168,24.6245117 C83.8111149,24.1346004 83.5405284,23.599124 83.3354492,23.0180664 C83.7456075,22.6306947 84.1956356,22.2632667 84.6855469,21.9157715 C85.1754582,21.5682763 85.7166312,21.2236345 86.309082,20.8818359 C85.1583601,20.5172508 84.258304,19.9077191 83.6088867,19.0532227 C82.9594694,18.1987262 82.6347656,17.2075252 82.6347656,16.0795898 C82.6347656,14.3136305 83.2870215,12.8211324 84.5915527,11.6020508 C85.896084,10.3829692 87.5281478,9.7734375 89.487793,9.7734375 C90.20557,9.7734375 90.8777638,9.8674307 91.5043945,10.0554199 C92.1310253,10.2434091 92.7633432,10.5367819 93.4013672,10.9355469 Z M114.661133,17.4467773 L106.321289,17.4467773 C105.671872,17.4467773 105.073733,17.4581705 104.526855,17.480957 C103.979978,17.5037436 103.472984,17.5379229 103.005859,17.5834961 L103.005859,18.2158203 C103.005859,20.4489044 103.521398,22.1749614 104.55249,23.394043 C105.583583,24.6131246 107.039053,25.2226562 108.918945,25.2226562 C109.750655,25.2226562 110.570959,25.0830906 111.379883,24.8039551 C112.188806,24.5248196 113.048986,24.0890329 113.960449,23.496582 L114.626953,24.590332 C113.453445,25.5473681 112.282802,26.2708309 111.11499,26.7607422 C109.947178,27.2506535 108.793625,27.4956055 107.654297,27.4956055 C105.443999,27.4956055 103.621101,26.7066322 102.185547,25.1286621 C100.749993,23.550692 100.032227,21.5255657 100.032227,19.0532227 C100.032227,16.4213736 100.784172,14.2111092 102.288086,12.4223633 C103.792,10.6336174 105.626291,9.73925781 107.791016,9.73925781 C109.807627,9.73925781 111.414057,10.4114516 112.610352,11.7558594 C113.806647,13.1002671 114.490234,14.9972208 114.661133,17.4467773 Z M111.499512,15.6523438 C111.157713,14.2509696 110.639326,13.1771684 109.944336,12.4309082 C109.249345,11.684648 108.417648,11.3115234 107.449219,11.3115234 C106.355463,11.3115234 105.41838,11.7501584 104.637939,12.6274414 C103.857499,13.5047244 103.347657,14.6896084 103.108398,16.1821289 C105.364269,16.1821289 107.138747,16.142253 108.431885,16.0625 C109.725023,15.982747 110.747555,15.8460296 111.499512,15.6523438 Z M134.946777,11.5336914 C133.420077,11.5336914 132.192469,12.0891058 131.263916,13.1999512 C130.335363,14.3107966 129.871094,15.8061429 129.871094,17.6860352 C129.871094,20.0900185 130.386632,22.0382412 131.417725,23.5307617 C132.448817,25.0232822 133.790356,25.7695312 135.442383,25.7695312 C137.037443,25.7695312 138.310623,25.1770893 139.261963,23.9921875 C140.213302,22.8072857 140.688965,21.1951599 140.688965,19.1557617 C140.688965,16.9226776 140.15064,15.0940826 139.073975,13.6699219 C137.997309,12.2457611 136.62159,11.5336914 134.946777,11.5336914 Z M135.391113,9.73925781 C137.795097,9.73925781 139.786044,10.5453207 141.364014,12.1574707 C142.941984,13.7696207 143.730957,15.7662641 143.730957,18.1474609 C143.730957,20.7679167 142.89926,22.9753328 141.23584,24.7697754 C139.57242,26.564218 137.521659,27.4614258 135.083496,27.4614258 C132.645333,27.4614258 130.642993,26.6411215 129.076416,25.0004883 C127.509839,23.3598551 126.726562,21.2863081 126.726562,18.7797852 C126.726562,16.2732622 127.578198,14.1399014 129.281494,12.3796387 C130.98479,10.619376 133.02131,9.73925781 135.391113,9.73925781 Z M151.284668,9.15820312 L151.318848,10.5766602 L152.463867,10.5766602 C153.056318,10.5766602 153.637367,10.5681153 154.207031,10.5510254 C154.776696,10.5339355 155.329262,10.5139975 155.864746,10.4912109 C155.864746,10.5367841 155.85905,10.6108393 155.847656,10.7133789 C155.813476,11.4425492 155.796387,11.9495428 155.796387,12.234375 L155.591309,12.2172852 C154.007642,12.1375322 152.851241,12.0976562 152.12207,12.0976562 L151.387207,12.0976562 C151.387207,13.3167379 151.375814,14.6440358 151.353027,16.0795898 L151.353027,16.8486328 C151.353027,19.4576953 151.370117,21.3147731 151.404297,22.4199219 C151.438477,23.5250706 151.501139,24.2713197 151.592285,24.6586914 C151.706218,25.1144229 151.942625,25.4248852 152.301514,25.5900879 C152.660402,25.7552905 153.346837,25.8378906 154.36084,25.8378906 L154.36084,27 C153.244298,26.9316403 152.384118,26.8860678 151.780273,26.8632812 C151.176429,26.8404947 150.669436,26.8291016 150.259277,26.8291016 C149.894692,26.8291016 149.421878,26.8404947 148.84082,26.8632812 C148.259763,26.8860678 147.348314,26.9316403 146.106445,27 L146.106445,25.8378906 L146.550781,25.8378906 C147.336918,25.8378906 147.866698,25.5986352 148.140137,25.1201172 C148.413576,24.6415992 148.550293,23.5991291 148.550293,21.9926758 C148.550293,21.6850571 148.544596,21.0669806 148.533203,20.1384277 C148.52181,19.2098749 148.516113,18.4379914 148.516113,17.8227539 C148.516113,16.9796507 148.513265,16.0881395 148.507568,15.1481934 C148.501872,14.2082473 148.493327,13.2141979 148.481934,12.1660156 L147.354004,12.1660156 C147.331217,12.1660156 147.180259,12.1745605 146.901123,12.1916504 C146.621988,12.2087403 146.357098,12.2229817 146.106445,12.234375 L146.106445,10.9697266 C146.596357,10.94694 147.034992,10.8785813 147.422363,10.7646484 C147.809735,10.6507156 148.162922,10.4855154 148.481934,10.269043 L148.481934,9.96142578 C148.481934,7.0675311 149.165521,4.77466666 150.532715,3.08276367 C151.899909,1.39086068 153.756987,0.544921875 156.104004,0.544921875 C157.174973,0.544921875 158.009518,0.721515161 158.607666,1.07470703 C159.205814,1.4278989 159.504883,1.9121063 159.504883,2.52734375 C159.504883,2.93750205 159.388103,3.27929551 159.154541,3.55273438 C158.920979,3.82617324 158.638999,3.96289062 158.308594,3.96289062 C158.103515,3.96289062 157.570886,3.7378766 156.710693,3.2878418 C155.8505,2.83780699 155.146975,2.61279297 154.600098,2.61279297 C153.403803,2.61279297 152.552167,3.06851758 152.045166,3.97998047 C151.538165,4.89144336 151.284668,6.50926572 151.284668,8.83349609 L151.284668,9.15820312 Z M175.979492,2.61279297 L175.979492,3.79199219 C175.911132,3.79199219 175.814291,3.78629563 175.688965,3.77490234 C175.563639,3.76350906 175.472494,3.7578125 175.415527,3.7578125 C174.515458,3.7578125 173.905926,4.0540335 173.586914,4.64648438 C173.267902,5.23893525 173.108398,6.64598499 173.108398,8.86767578 L173.108398,15.1054688 C173.108398,16.9511811 173.165364,18.3126584 173.279297,19.1899414 C173.39323,20.0672244 173.581216,20.7906873 173.843262,21.3603516 C174.401533,22.5908265 175.224685,23.5279102 176.312744,24.1716309 C177.400803,24.8153515 178.713859,25.137207 180.251953,25.137207 C181.402675,25.137207 182.410966,24.9720069 183.276855,24.6416016 C184.142745,24.3111963 184.883298,23.8042026 185.498535,23.1206055 C186.113773,22.4370083 186.546711,21.5996143 186.797363,20.6083984 C187.048016,19.6171825 187.17334,17.9651808 187.17334,15.6523438 C187.17334,12.8723819 187.142009,10.533945 187.079346,8.63696289 C187.016683,6.73998075 186.934083,5.59212439 186.831543,5.19335938 C186.672037,4.66926821 186.424237,4.30468853 186.088135,4.09960938 C185.752033,3.89453022 185.208012,3.79199219 184.456055,3.79199219 L184.199707,3.79199219 L184.199707,2.61279297 C184.336426,2.61279297 184.535806,2.61848953 184.797852,2.62988281 C186.370125,2.70963582 187.492347,2.74951172 188.164551,2.74951172 C188.825361,2.74951172 189.941887,2.70963582 191.51416,2.62988281 C191.787599,2.61848953 191.986979,2.61279297 192.112305,2.61279297 L192.112305,3.79199219 L191.907227,3.79199219 C191.235023,3.79199219 190.730877,3.87744055 190.394775,4.04833984 C190.058673,4.21923914 189.81657,4.50406702 189.668457,4.90283203 C189.543131,5.23323733 189.451986,6.10196237 189.39502,7.5090332 C189.338053,8.91610404 189.30957,11.1918788 189.30957,14.3364258 L189.30957,16.0454102 C189.30957,17.8455494 189.241212,19.221268 189.104492,20.1726074 C188.967773,21.1239468 188.745607,21.9641891 188.437988,22.6933594 C187.799964,24.2086664 186.700529,25.399247 185.139648,26.2651367 C183.578768,27.1310265 181.73878,27.5639648 179.619629,27.5639648 C178.149895,27.5639648 176.796963,27.3474957 175.560791,26.9145508 C174.324619,26.4816059 173.273605,25.8549846 172.407715,25.034668 C171.462072,24.1687782 170.789878,23.1462461 170.391113,21.967041 C169.992348,20.7878359 169.792969,19.1386825 169.792969,17.0195312 C169.792969,16.1992146 169.804362,14.8576753 169.827148,12.994873 C169.849935,11.1320708 169.861328,9.67660029 169.861328,8.62841797 L169.861328,8.09863281 C169.861328,6.1389876 169.698976,4.93131738 169.374268,4.47558594 C169.049559,4.01985449 168.414393,3.79199219 167.46875,3.79199219 L167.161133,3.79199219 L167.161133,2.61279297 C167.970056,2.65836611 168.739091,2.69254546 169.468262,2.71533203 C170.197432,2.7381186 170.863929,2.74951172 171.467773,2.74951172 C172.196944,2.74951172 172.937496,2.7381186 173.689453,2.71533203 C174.44141,2.69254546 175.204749,2.65836611 175.979492,2.61279297 Z M199.717285,9.53417969 C199.637532,10.3089231 199.57487,11.0921998 199.529297,11.8840332 C199.483724,12.6758666 199.449544,13.5161088 199.426758,14.4047852 C200.349614,12.7755452 201.201249,11.6020544 201.981689,10.8842773 C202.76213,10.1665003 203.568192,9.80761719 204.399902,9.80761719 C205.04932,9.80761719 205.56201,9.98136219 205.937988,10.3288574 C206.313967,10.6763526 206.501953,11.1463187 206.501953,11.7387695 C206.501953,12.1603211 206.379477,12.5220525 206.134521,12.8239746 C205.889566,13.1258967 205.60189,13.2768555 205.271484,13.2768555 C205.066405,13.2768555 204.750246,13.1657726 204.322998,12.9436035 C203.89575,12.7214344 203.528322,12.6103516 203.220703,12.6103516 C202.628252,12.6103516 202.03581,12.8695449 201.443359,13.3879395 C200.850908,13.906334 200.229984,14.7123969 199.580566,15.8061523 L199.580566,17.6860352 C199.580566,19.5089609 199.594808,20.9872176 199.623291,22.1208496 C199.651774,23.2544816 199.694498,23.9750961 199.751465,24.2827148 C199.854004,24.8637724 200.073322,25.2625315 200.409424,25.4790039 C200.745526,25.6954763 201.31803,25.8037109 202.126953,25.8037109 L202.622559,25.8037109 L202.622559,27 C201.733882,26.9316403 200.942061,26.8803713 200.24707,26.8461914 C199.55208,26.8120115 198.965334,26.7949219 198.486816,26.7949219 C197.826006,26.7949219 197.145267,26.8120115 196.44458,26.8461914 C195.743893,26.8803713 195.011885,26.9316403 194.248535,27 L194.248535,25.8037109 L194.641602,25.8037109 C195.473311,25.8037109 196.037271,25.6043314 196.333496,25.2055664 C196.629722,24.8068014 196.777832,23.8782625 196.777832,22.4199219 L196.777832,15.0712891 C196.777832,13.8408142 196.692384,13.0489927 196.521484,12.6958008 C196.350585,12.3426089 196.037274,12.1660156 195.581543,12.1660156 C195.490397,12.1660156 195.393555,12.1688639 195.291016,12.1745605 C195.188476,12.1802572 195.017579,12.2001951 194.77832,12.234375 L194.573242,11.1748047 C195.382166,10.9925121 196.213863,10.7646498 197.068359,10.4912109 C197.922856,10.2177721 198.805822,9.89876484 199.717285,9.53417969 Z M219.592773,10.4399414 C219.592773,11.1349319 219.629801,11.8356084 219.703857,12.5419922 C219.777914,13.2483759 219.8833,13.9604456 220.02002,14.6782227 L218.721191,14.8833008 C218.584472,13.698399 218.208499,12.8154326 217.593262,12.234375 C216.978024,11.6533174 216.117844,11.362793 215.012695,11.362793 C214.055659,11.362793 213.269534,11.6219863 212.654297,12.1403809 C212.039059,12.6587754 211.731445,13.3167278 211.731445,14.1142578 C211.731445,15.3789126 213.075833,16.3815067 215.764648,17.1220703 C216.231773,17.2473965 216.590656,17.3442379 216.841309,17.4125977 C218.185716,17.7885761 219.168373,18.3240525 219.789307,19.019043 C220.410241,19.7140334 220.720703,20.6254826 220.720703,21.753418 C220.720703,23.4168377 220.068447,24.7897081 218.763916,25.8720703 C217.459385,26.9544325 215.787445,27.4956055 213.748047,27.4956055 C213.007483,27.4956055 212.249841,27.4158537 211.475098,27.2563477 C210.700354,27.0968417 209.908533,26.8575862 209.099609,26.5385742 C209.111003,26.4246414 209.119547,26.3050136 209.125244,26.1796875 C209.130941,26.0543614 209.133789,25.8606784 209.133789,25.5986328 C209.133789,25.0745417 209.102458,24.5077342 209.039795,23.8981934 C208.977132,23.2886526 208.883139,22.6420933 208.757812,21.9584961 L210.039551,21.6508789 C210.221843,23.0636464 210.666175,24.1203578 211.372559,24.8210449 C212.078942,25.521732 213.05875,25.8720703 214.312012,25.8720703 C215.45134,25.8720703 216.382728,25.5957873 217.106201,25.0432129 C217.829675,24.4906385 218.191406,23.7757205 218.191406,22.8984375 C218.191406,21.6679626 216.983736,20.6881547 214.568359,19.9589844 C214.3291,19.8792314 214.152507,19.8222658 214.038574,19.7880859 C212.306795,19.2639948 211.09058,18.6202838 210.389893,17.8569336 C209.689205,17.0935834 209.338867,16.0795962 209.338867,14.8149414 C209.338867,13.3566008 209.919916,12.1460823 211.082031,11.1833496 C212.244146,10.2206169 213.730948,9.73925781 215.54248,9.73925781 C216.100751,9.73925781 216.707435,9.79622339 217.362549,9.91015625 C218.017663,10.0240891 218.761064,10.2006824 219.592773,10.4399414 Z M229.214355,9.53417969 C229.202962,9.96712456 229.185873,10.5823528 229.163086,11.3798828 C229.014973,15.9599838 228.940918,19.1842354 228.940918,21.0527344 L228.940918,22.8642578 C228.940918,24.185879 229.066242,25.0175764 229.316895,25.359375 C229.567547,25.7011736 230.057451,25.8720703 230.786621,25.8720703 C230.854981,25.8720703 230.946126,25.8663738 231.060059,25.8549805 C231.173991,25.8435872 231.25944,25.8378906 231.316406,25.8378906 L231.316406,27 C230.347977,26.9316403 229.567549,26.8860678 228.975098,26.8632812 C228.382647,26.8404947 227.88135,26.8291016 227.471191,26.8291016 C227.106606,26.8291016 226.642337,26.8404947 226.078369,26.8632812 C225.514401,26.8860678 224.668463,26.9316403 223.540527,27 L223.540527,25.8037109 L223.967773,25.8037109 C225.380541,25.8037109 226.092611,24.4137509 226.104004,21.6337891 L226.104004,20.6938477 L226.172363,16.4726562 C226.172363,16.1650375 226.17806,15.7776716 226.189453,15.3105469 C226.200846,14.8434221 226.206543,14.5301115 226.206543,14.3706055 C226.206543,13.4477493 226.118246,12.8382176 225.94165,12.5419922 C225.765054,12.2457667 225.443199,12.0976562 224.976074,12.0976562 C224.884928,12.0976562 224.751059,12.1062011 224.574463,12.123291 C224.397867,12.1403809 224.207032,12.1603189 224.001953,12.1831055 L223.831055,11.1064453 C224.731124,10.935546 225.628332,10.7190768 226.522705,10.4570312 C227.417078,10.1949857 228.314286,9.88737156 229.214355,9.53417969 Z M227.368652,1.48486328 L228.582031,2.390625 C228.901043,2.62988401 229.134602,2.86913943 229.282715,3.10839844 C229.430828,3.34765745 229.504883,3.59830598 229.504883,3.86035156 C229.504883,4.12239714 229.445069,4.34741117 229.325439,4.53540039 C229.20581,4.72338961 228.980796,4.94270708 228.650391,5.19335938 L227.368652,6.16748047 L226.172363,5.22753906 C225.841958,4.96549348 225.602703,4.72338978 225.45459,4.5012207 C225.306477,4.27905162 225.232422,4.04264448 225.232422,3.79199219 C225.232422,3.54133989 225.289387,3.32202242 225.40332,3.1340332 C225.517253,2.94604398 225.750812,2.72102996 226.104004,2.45898438 L227.368652,1.48486328 Z M239.297363,9.53417969 L239.092285,12.4052734 C240.379726,11.471024 241.4991,10.7931336 242.450439,10.371582 C243.401779,9.95003044 244.2762,9.73925781 245.07373,9.73925781 C246.748544,9.73925781 248.007483,10.2120721 248.850586,11.1577148 C249.693689,12.1033576 250.115234,13.5218004 250.115234,15.4130859 C250.115234,15.4244792 250.109538,15.9257763 250.098145,16.9169922 C250.086751,17.9082081 250.081055,18.8994091 250.081055,19.890625 C250.081055,20.3121766 250.075358,20.8391082 250.063965,21.4714355 C250.052572,22.1037629 250.046875,22.533853 250.046875,22.7617188 C250.046875,24.0377668 250.160806,24.8694642 250.388672,25.2568359 C250.616538,25.6442077 251.049476,25.8378906 251.6875,25.8378906 C251.72168,25.8378906 251.78719,25.8321941 251.884033,25.8208008 C251.980876,25.8094075 252.052083,25.8037109 252.097656,25.8037109 L252.097656,27 C251.07226,26.9316403 250.297529,26.8860678 249.773438,26.8632812 C249.249346,26.8404947 248.810711,26.8291016 248.45752,26.8291016 C247.910642,26.8291016 247.3182,26.843343 246.680176,26.8718262 C246.042152,26.9003094 245.392744,26.9430336 244.731934,27 L244.714844,25.8037109 L244.971191,25.8037109 C246.429532,25.8037109 247.170085,24.4707165 247.192871,21.8046875 C247.204264,21.6565748 247.209961,21.5426436 247.209961,21.4628906 L247.244141,17.7885742 L247.244141,17.1733398 C247.244141,15.0655819 246.999189,13.667077 246.509277,12.9777832 C246.019366,12.2884894 245.176276,11.9438477 243.97998,11.9438477 C243.31917,11.9438477 242.587162,12.100503 241.783936,12.4138184 C240.980709,12.7271337 240.129074,13.1914032 239.229004,13.8066406 C239.183431,14.9915424 239.149251,16.110916 239.126465,17.1647949 C239.103678,18.2186739 239.092285,19.1728473 239.092285,20.0273438 L239.092285,22.3857422 C239.092285,23.889656 239.203368,24.8409811 239.425537,25.2397461 C239.647706,25.6385111 240.083493,25.8378906 240.73291,25.8378906 C240.778483,25.8378906 240.84969,25.8321941 240.946533,25.8208008 C241.043376,25.8094075 241.12028,25.8037109 241.177246,25.8037109 L241.177246,27 C240.197423,26.9316403 239.42554,26.8860678 238.861572,26.8632812 C238.297605,26.8404947 237.833335,26.8291016 237.46875,26.8291016 C237.126951,26.8291016 236.676923,26.8404947 236.118652,26.8632812 C235.560381,26.8860678 234.779953,26.9316403 233.777344,27 L233.760254,25.8037109 L234.084961,25.8037109 C235.509122,25.8037109 236.226888,24.4194474 236.238281,21.6508789 C236.238281,21.2407206 236.243978,20.9217134 236.255371,20.6938477 L236.289551,16.5068359 L236.289551,14.8149414 C236.289551,13.6983994 236.204102,12.9663917 236.033203,12.6188965 C235.862304,12.2714013 235.548993,12.0976562 235.093262,12.0976562 C235.002115,12.0976562 234.885336,12.1090494 234.74292,12.1318359 C234.600504,12.1546225 234.449545,12.1888019 234.290039,12.234375 L234.084961,11.1748047 C234.939457,11.0152987 235.796789,10.7988295 236.656982,10.5253906 C237.517176,10.2519518 238.397294,9.92155142 239.297363,9.53417969 Z M269.1875,17.4467773 L260.847656,17.4467773 C260.198239,17.4467773 259.6001,17.4581705 259.053223,17.480957 C258.506345,17.5037436 257.999351,17.5379229 257.532227,17.5834961 L257.532227,18.2158203 C257.532227,20.4489044 258.047765,22.1749614 259.078857,23.394043 C260.10995,24.6131246 261.56542,25.2226562 263.445312,25.2226562 C264.277022,25.2226562 265.097327,25.0830906 265.90625,24.8039551 C266.715173,24.5248196 267.575354,24.0890329 268.486816,23.496582 L269.15332,24.590332 C267.979812,25.5473681 266.809169,26.2708309 265.641357,26.7607422 C264.473546,27.2506535 263.319993,27.4956055 262.180664,27.4956055 C259.970367,27.4956055 258.147468,26.7066322 256.711914,25.1286621 C255.27636,23.550692 254.558594,21.5255657 254.558594,19.0532227 C254.558594,16.4213736 255.310539,14.2111092 256.814453,12.4223633 C258.318367,10.6336174 260.152658,9.73925781 262.317383,9.73925781 C264.333994,9.73925781 265.940424,10.4114516 267.136719,11.7558594 C268.333014,13.1002671 269.016601,14.9972208 269.1875,17.4467773 Z M266.025879,15.6523438 C265.68408,14.2509696 265.165694,13.1771684 264.470703,12.4309082 C263.775713,11.684648 262.944015,11.3115234 261.975586,11.3115234 C260.88183,11.3115234 259.944747,11.7501584 259.164307,12.6274414 C258.383867,13.5047244 257.874025,14.6896084 257.634766,16.1821289 C259.890636,16.1821289 261.665114,16.142253 262.958252,16.0625 C264.25139,15.982747 265.273922,15.8460296 266.025879,15.6523438 Z M296.155273,3.34765625 C296.155273,4.19075942 296.203694,5.02245684 296.300537,5.84277344 C296.39738,6.66309004 296.548339,7.47200122 296.753418,8.26953125 L295.42041,8.52587891 C295.226724,7.11311143 294.682703,6.06494482 293.78833,5.38134766 C292.893957,4.69775049 291.63217,4.35595703 290.00293,4.35595703 C288.499016,4.35595703 287.277104,4.72053672 286.337158,5.44970703 C285.397212,6.17887734 284.927246,7.11880935 284.927246,8.26953125 C284.927246,10.1608167 286.932434,11.7786391 290.942871,13.1230469 C291.478356,13.2939462 291.888508,13.4306635 292.17334,13.5332031 C294.007659,14.1712271 295.357743,14.9886832 296.223633,15.9855957 C297.089523,16.9825082 297.522461,18.215813 297.522461,19.6855469 C297.522461,21.9528108 296.662281,23.7899506 294.941895,25.1970215 C293.221508,26.6040923 290.942885,27.3076172 288.105957,27.3076172 C287.023595,27.3076172 285.966883,27.2193205 284.935791,27.0427246 C283.904699,26.8661287 282.85938,26.5898456 281.799805,26.2138672 C281.811198,26.0999343 281.819743,25.9660652 281.825439,25.8122559 C281.831136,25.6584465 281.833984,25.4334325 281.833984,25.137207 C281.833984,24.3282837 281.788412,23.5307656 281.697266,22.7446289 C281.606119,21.9584922 281.469402,21.1723672 281.287109,20.3862305 L282.825195,20.0273438 C283.018881,21.8958427 283.605627,23.2630165 284.585449,24.1289062 C285.565272,24.994796 287.017894,25.4277344 288.943359,25.4277344 C290.629566,25.4277344 292.002436,25.0033408 293.062012,24.154541 C294.121587,23.3057412 294.651367,22.2148504 294.651367,20.8818359 C294.651367,18.9905504 292.999365,17.5208386 289.695312,16.4726562 C289.228188,16.3245435 288.863608,16.2049158 288.601562,16.1137695 C286.311512,15.3732059 284.670903,14.4674533 283.679688,13.3964844 C282.688472,12.3255155 282.192871,10.9583417 282.192871,9.29492188 C282.192871,7.33527666 282.967603,5.70036462 284.51709,4.39013672 C286.066577,3.07990881 288.009103,2.42480469 290.344727,2.42480469 C291.199223,2.42480469 292.0651,2.49316338 292.942383,2.62988281 C293.819666,2.76660225 294.890619,3.00585767 296.155273,3.34765625 Z M304.409668,6.98779297 L305.537598,7.32958984 C305.469238,7.95622058 305.415121,8.51733151 305.375244,9.01293945 C305.335368,9.5085474 305.309733,9.99560308 305.29834,10.4741211 L306.511719,10.4741211 C307.161136,10.4741211 307.821937,10.4655763 308.494141,10.4484863 C309.166345,10.4313964 309.844235,10.4057619 310.527832,10.371582 L310.117676,12.234375 C309.388505,12.1774086 308.70207,12.1403809 308.05835,12.123291 C307.414629,12.1062011 306.773766,12.0976562 306.135742,12.0976562 L305.33252,12.0976562 C305.26416,14.0573015 305.215739,15.5583444 305.187256,16.6008301 C305.158773,17.6433158 305.144531,18.5063442 305.144531,19.1899414 C305.144531,21.7648241 305.321125,23.4424603 305.674316,24.2229004 C306.027508,25.0033405 306.659826,25.3935547 307.571289,25.3935547 C307.947268,25.3935547 308.365964,25.3138029 308.827393,25.1542969 C309.288821,24.9947909 309.849932,24.7327492 310.510742,24.3681641 L311.074707,25.4960938 C309.980952,26.1569043 308.989751,26.6553531 308.101074,26.9914551 C307.212398,27.327557 306.437666,27.4956055 305.776855,27.4956055 C304.557774,27.4956055 303.669111,27.0769085 303.11084,26.239502 C302.552569,25.4020954 302.273438,24.0548595 302.273438,22.1977539 C302.273438,21.8331688 302.299072,20.5315053 302.350342,18.2927246 C302.401612,16.0539439 302.427246,14.0003349 302.427246,12.1318359 C302.324707,12.1318359 302.176596,12.1375325 301.98291,12.1489258 C301.037267,12.1831056 300.38786,12.2001953 300.034668,12.2001953 L300.034668,10.9697266 C301.15121,10.8102206 302.074052,10.3972201 302.803223,9.73071289 C303.532393,9.06420565 304.067869,8.14990815 304.409668,6.98779297 Z M317.893555,9.72216797 C317.813802,11.9552521 317.75114,13.9120196 317.705566,15.5925293 C317.659993,17.273039 317.637207,18.437985 317.637207,19.0874023 C317.637207,21.5255656 317.887856,23.1519328 318.38916,23.9665527 C318.890465,24.7811727 319.750645,25.1884766 320.969727,25.1884766 C321.573571,25.1884766 322.245765,25.0403661 322.986328,24.7441406 C323.726892,24.4479152 324.569982,23.9978871 325.515625,23.394043 C325.549805,21.6394769 325.575439,20.1925513 325.592529,19.0532227 C325.609619,17.913894 325.618164,17.0765001 325.618164,16.5410156 L325.618164,15.3789062 C325.618164,13.9433522 325.498536,13.0432961 325.259277,12.6787109 C325.020018,12.3141258 324.558597,12.1318359 323.875,12.1318359 C323.761067,12.1318359 323.638591,12.1346842 323.507568,12.1403809 C323.376546,12.1460775 323.242676,12.1546223 323.105957,12.1660156 L323.003418,11.0722656 C323.971847,11.0039059 324.926021,10.8956713 325.865967,10.7475586 C326.805913,10.5994459 327.725907,10.417156 328.625977,10.2006836 C328.557617,12.1489355 328.506348,13.8863856 328.472168,15.4130859 C328.437988,16.9397863 328.420898,18.2727808 328.420898,19.4121094 C328.420898,19.8792341 328.415202,20.4631313 328.403809,21.1638184 C328.392415,21.8645055 328.386719,22.3287749 328.386719,22.5566406 C328.386719,23.6162162 328.477864,24.3111963 328.660156,24.6416016 C328.842449,24.9720069 329.184242,25.137207 329.685547,25.137207 C329.79948,25.137207 329.933349,25.1258139 330.087158,25.1030273 C330.240968,25.0802408 330.443195,25.0346683 330.693848,24.9663086 L330.830566,26.0258789 L325.618164,27.3417969 L325.549805,24.7954102 C324.31933,25.7296596 323.239832,26.4132465 322.311279,26.8461914 C321.382726,27.2791363 320.536788,27.4956055 319.773438,27.4956055 C318.212557,27.4956055 316.993494,27.0455774 316.116211,26.1455078 C315.238928,25.2454382 314.800293,23.9921955 314.800293,22.3857422 C314.800293,21.9755839 314.817383,21.1154037 314.851562,19.8051758 C314.862956,19.258298 314.868652,18.8310562 314.868652,18.5234375 L314.919922,16.609375 C314.919922,16.290363 314.925618,15.8830591 314.937012,15.3874512 C314.948405,14.8918432 314.954102,14.552898 314.954102,14.3706055 C314.954102,13.3907829 314.871501,12.7413753 314.706299,12.4223633 C314.541096,12.1033513 314.23633,11.9438477 313.791992,11.9438477 C313.655273,11.9438477 313.495769,11.9552408 313.313477,11.9780273 C313.131184,12.0008139 312.943198,12.0236001 312.749512,12.0463867 L312.629883,10.9355469 C313.450199,10.7988274 314.296138,10.630779 315.167725,10.4313965 C316.039311,10.232014 316.947912,9.99560684 317.893555,9.72216797 Z M345.852539,12.9692383 C345.089189,12.5362934 344.365726,12.2172862 343.682129,12.012207 C342.998532,11.8071279 342.309248,11.7045898 341.614258,11.7045898 C339.859692,11.7045898 338.503911,12.2514594 337.546875,13.3452148 C336.589839,14.4389703 336.111328,15.9827374 336.111328,17.9765625 C336.111328,20.0957137 336.581294,21.7790465 337.52124,23.0266113 C338.461186,24.2741762 339.717277,24.8979492 341.289551,24.8979492 C341.916182,24.8979492 342.591224,24.7783215 343.314697,24.5390625 C344.038171,24.2998035 344.84993,23.9295272 345.75,23.4282227 L345.852539,12.9692383 Z M348.99707,0.510742188 L348.97998,0.818359375 C348.843261,4.86297595 348.735026,8.77081448 348.655273,12.5419922 L348.621094,15.2080078 C348.598307,15.8346385 348.578369,16.6691842 348.561279,17.7116699 C348.544189,18.7541556 348.535645,19.902012 348.535645,21.1552734 L348.535645,21.8217773 C348.535645,23.59913 348.598307,24.7014139 348.723633,25.1286621 C348.848959,25.5559103 349.093911,25.7695312 349.458496,25.7695312 C349.674969,25.7695312 349.899983,25.746745 350.133545,25.7011719 C350.367107,25.6555987 350.609211,25.58724 350.859863,25.4960938 L351.133301,26.5727539 C350.335771,26.8803726 349.555342,27.1110832 348.791992,27.2648926 C348.028642,27.4187019 347.259607,27.4956055 346.484863,27.4956055 L345.989258,27.4785156 C345.909505,26.9886043 345.849691,26.535728 345.809814,26.119873 C345.769938,25.7040181 345.75,25.3081073 345.75,24.9321289 C344.451165,25.7638388 343.380213,26.3391911 342.537109,26.6582031 C341.694006,26.9772151 340.873702,27.1367188 340.076172,27.1367188 C338.082347,27.1367188 336.458828,26.3819249 335.205566,24.8723145 C333.952305,23.362704 333.325684,21.4002399 333.325684,18.9848633 C333.325684,16.2960478 334.128898,14.1256593 335.735352,12.4736328 C337.341805,10.8216063 339.426745,9.99560547 341.990234,9.99560547 C342.571292,9.99560547 343.183672,10.0497228 343.827393,10.157959 C344.471113,10.2661952 345.168942,10.4342437 345.920898,10.6621094 C345.920898,10.5595698 345.926595,10.4057627 345.937988,10.2006836 C345.994955,8.20685852 346.023438,6.41244287 346.023438,4.81738281 C346.023438,4.09960579 345.912355,3.59261216 345.690186,3.29638672 C345.468016,3.00016128 345.100589,2.85205078 344.587891,2.85205078 C344.473958,2.85205078 344.331544,2.86629218 344.160645,2.89477539 C343.989745,2.92325861 343.756186,2.96598279 343.459961,3.02294922 L343.254883,1.91210938 C344.097986,1.76399666 344.992346,1.57316198 345.937988,1.33959961 C346.883631,1.10603724 347.903315,0.829754199 348.99707,0.510742188 Z M358.618652,9.53417969 C358.607259,9.96712456 358.590169,10.5823528 358.567383,11.3798828 C358.41927,15.9599838 358.345215,19.1842354 358.345215,21.0527344 L358.345215,22.8642578 C358.345215,24.185879 358.470539,25.0175764 358.721191,25.359375 C358.971844,25.7011736 359.461748,25.8720703 360.190918,25.8720703 C360.259278,25.8720703 360.350423,25.8663738 360.464355,25.8549805 C360.578288,25.8435872 360.663737,25.8378906 360.720703,25.8378906 L360.720703,27 C359.752274,26.9316403 358.971845,26.8860678 358.379395,26.8632812 C357.786944,26.8404947 357.285647,26.8291016 356.875488,26.8291016 C356.510903,26.8291016 356.046634,26.8404947 355.482666,26.8632812 C354.918698,26.8860678 354.07276,26.9316403 352.944824,27 L352.944824,25.8037109 L353.37207,25.8037109 C354.784838,25.8037109 355.496907,24.4137509 355.508301,21.6337891 L355.508301,20.6938477 L355.57666,16.4726562 C355.57666,16.1650375 355.582357,15.7776716 355.59375,15.3105469 C355.605143,14.8434221 355.61084,14.5301115 355.61084,14.3706055 C355.61084,13.4477493 355.522543,12.8382176 355.345947,12.5419922 C355.169351,12.2457667 354.847496,12.0976562 354.380371,12.0976562 C354.289225,12.0976562 354.155356,12.1062011 353.97876,12.123291 C353.802164,12.1403809 353.611329,12.1603189 353.40625,12.1831055 L353.235352,11.1064453 C354.135421,10.935546 355.032629,10.7190768 355.927002,10.4570312 C356.821375,10.1949857 357.718583,9.88737156 358.618652,9.53417969 Z M356.772949,1.48486328 L357.986328,2.390625 C358.30534,2.62988401 358.538899,2.86913943 358.687012,3.10839844 C358.835124,3.34765745 358.90918,3.59830598 358.90918,3.86035156 C358.90918,4.12239714 358.849366,4.34741117 358.729736,4.53540039 C358.610107,4.72338961 358.385093,4.94270708 358.054688,5.19335938 L356.772949,6.16748047 L355.57666,5.22753906 C355.246255,4.96549348 355.006999,4.72338978 354.858887,4.5012207 C354.710774,4.27905162 354.636719,4.04264448 354.636719,3.79199219 C354.636719,3.54133989 354.693684,3.32202242 354.807617,3.1340332 C354.92155,2.94604398 355.155109,2.72102996 355.508301,2.45898438 L356.772949,1.48486328 Z M378.152344,17.4467773 L369.8125,17.4467773 C369.163083,17.4467773 368.564944,17.4581705 368.018066,17.480957 C367.471189,17.5037436 366.964195,17.5379229 366.49707,17.5834961 L366.49707,18.2158203 C366.49707,20.4489044 367.012609,22.1749614 368.043701,23.394043 C369.074794,24.6131246 370.530264,25.2226562 372.410156,25.2226562 C373.241866,25.2226562 374.06217,25.0830906 374.871094,24.8039551 C375.680017,24.5248196 376.540197,24.0890329 377.45166,23.496582 L378.118164,24.590332 C376.944656,25.5473681 375.774013,26.2708309 374.606201,26.7607422 C373.438389,27.2506535 372.284836,27.4956055 371.145508,27.4956055 C368.93521,27.4956055 367.112312,26.7066322 365.676758,25.1286621 C364.241204,23.550692 363.523438,21.5255657 363.523438,19.0532227 C363.523438,16.4213736 364.275383,14.2111092 365.779297,12.4223633 C367.283211,10.6336174 369.117502,9.73925781 371.282227,9.73925781 C373.298838,9.73925781 374.905267,10.4114516 376.101563,11.7558594 C377.297858,13.1002671 377.981444,14.9972208 378.152344,17.4467773 Z M374.990723,15.6523438 C374.648924,14.2509696 374.130537,13.1771684 373.435547,12.4309082 C372.740556,11.684648 371.908859,11.3115234 370.94043,11.3115234 C369.846674,11.3115234 368.90959,11.7501584 368.12915,12.6274414 C367.34871,13.5047244 366.838868,14.6896084 366.599609,16.1821289 C368.85548,16.1821289 370.629958,16.142253 371.923096,16.0625 C373.216234,15.982747 374.238766,15.8460296 374.990723,15.6523438 Z M391.960938,10.4399414 C391.960938,11.1349319 391.997965,11.8356084 392.072021,12.5419922 C392.146078,13.2483759 392.251464,13.9604456 392.388184,14.6782227 L391.089355,14.8833008 C390.952636,13.698399 390.576663,12.8154326 389.961426,12.234375 C389.346188,11.6533174 388.486008,11.362793 387.380859,11.362793 C386.423823,11.362793 385.637698,11.6219863 385.022461,12.1403809 C384.407223,12.6587754 384.099609,13.3167278 384.099609,14.1142578 C384.099609,15.3789126 385.443997,16.3815067 388.132812,17.1220703 C388.599937,17.2473965 388.95882,17.3442379 389.209473,17.4125977 C390.55388,17.7885761 391.536537,18.3240525 392.157471,19.019043 C392.778405,19.7140334 393.088867,20.6254826 393.088867,21.753418 C393.088867,23.4168377 392.436611,24.7897081 391.13208,25.8720703 C389.827549,26.9544325 388.155609,27.4956055 386.116211,27.4956055 C385.375647,27.4956055 384.618005,27.4158537 383.843262,27.2563477 C383.068518,27.0968417 382.276697,26.8575862 381.467773,26.5385742 C381.479167,26.4246414 381.487712,26.3050136 381.493408,26.1796875 C381.499105,26.0543614 381.501953,25.8606784 381.501953,25.5986328 C381.501953,25.0745417 381.470622,24.5077342 381.407959,23.8981934 C381.345296,23.2886526 381.251303,22.6420933 381.125977,21.9584961 L382.407715,21.6508789 C382.590007,23.0636464 383.034339,24.1203578 383.740723,24.8210449 C384.447106,25.521732 385.426914,25.8720703 386.680176,25.8720703 C387.819504,25.8720703 388.750892,25.5957873 389.474365,25.0432129 C390.197839,24.4906385 390.55957,23.7757205 390.55957,22.8984375 C390.55957,21.6679626 389.3519,20.6881547 386.936523,19.9589844 C386.697264,19.8792314 386.520671,19.8222658 386.406738,19.7880859 C384.674959,19.2639948 383.458744,18.6202838 382.758057,17.8569336 C382.05737,17.0935834 381.707031,16.0795962 381.707031,14.8149414 C381.707031,13.3566008 382.28808,12.1460823 383.450195,11.1833496 C384.61231,10.2206169 386.099112,9.73925781 387.910645,9.73925781 C388.468916,9.73925781 389.075599,9.79622339 389.730713,9.91015625 C390.385827,10.0240891 391.129228,10.2006824 391.960938,10.4399414 Z" id="Unit-Name" fill="#FFFFFF"></path>
    </g>
</svg>