<?xml version="1.0" encoding="UTF-8"?>
<svg width="480px" height="36px" viewBox="0 0 480 36" version="1.1" xmlns="http://www.w3.org/2000/svg" xmlns:xlink="http://www.w3.org/1999/xlink">
    <!-- Generator: Sketch 48.2 (47327) - http://www.bohemiancoding.com/sketch -->
    <title>Cornell University</title>
    <desc>Created with Sketch.</desc>
    <defs></defs>
    <g id="Page-1" stroke="none" stroke-width="1" fill="none" fill-rule="evenodd">
        <path d="M21.9624023,2.83886719 L21.9624023,3.41992188 C21.9624023,4.2174519 21.9908851,5.04630104 22.0478516,5.90649414 C22.104818,6.76668724 22.1902664,7.66959163 22.3041992,8.61523438 L21.0566406,8.8203125 C20.8287749,7.1796793 20.0540431,5.90080211 18.7324219,4.98364258 C17.4108007,4.06648304 15.6847437,3.60791016 13.5541992,3.60791016 C10.717271,3.60791016 8.52694457,4.47663519 6.9831543,6.21411133 C5.43936403,7.95158746 4.66748047,10.4153486 4.66748047,13.6054688 C4.66748047,17.0120613 5.55329518,19.7663469 7.32495117,21.8684082 C9.09660717,23.9704695 11.3951682,25.0214844 14.2207031,25.0214844 C15.9980558,25.0214844 17.5389746,24.6113322 18.8435059,23.7910156 C20.1480371,22.970699 21.1648727,21.7687254 21.894043,20.1850586 L23.0390625,20.7490234 C22.6744773,21.489587 22.344077,22.2443809 22.0478516,23.0134277 C21.7516261,23.7824745 21.4895845,24.5543581 21.2617188,25.3291016 C20.0312438,25.8873726 18.7780012,26.3089178 17.5019531,26.59375 C16.2259051,26.8785822 14.9441796,27.0209961 13.6567383,27.0209961 C9.87416729,27.0209961 6.81226757,25.8503535 4.47094727,23.5090332 C2.12962697,21.1677129 0.958984375,18.0887235 0.958984375,14.2719727 C0.958984375,10.5121882 2.19513738,7.45028851 4.66748047,5.08618164 C7.13982356,2.72207477 10.3355924,1.54003906 14.2548828,1.54003906 C15.416998,1.54003906 16.6446062,1.64827366 17.9377441,1.86474609 C19.2308821,2.08121853 20.5724214,2.40592231 21.9624023,2.83886719 Z M33.6518555,10.9907227 C32.1251551,10.9907227 30.897547,11.546137 29.9689941,12.6569824 C29.0404413,13.7678278 28.5761719,15.2631742 28.5761719,17.1430664 C28.5761719,19.5470498 29.0917103,21.4952725 30.1228027,22.987793 C31.1538951,24.4803135 32.4954344,25.2265625 34.1474609,25.2265625 C35.742521,25.2265625 37.0157016,24.6341205 37.967041,23.4492188 C38.9183804,22.264317 39.394043,20.6521912 39.394043,18.612793 C39.394043,16.3797089 38.8557183,14.5511139 37.7790527,13.1269531 C36.7023872,11.7027924 35.3266685,10.9907227 33.6518555,10.9907227 Z M34.0961914,9.19628906 C36.5001748,9.19628906 38.4911217,10.002352 40.0690918,11.614502 C41.6470619,13.2266519 42.4360352,15.2232954 42.4360352,17.6044922 C42.4360352,20.224948 41.6043377,22.4323641 39.940918,24.2268066 C38.2774982,26.0212492 36.2267375,26.918457 33.7885742,26.918457 C31.350411,26.918457 29.348071,26.0981527 27.7814941,24.4575195 C26.2149173,22.8168863 25.4316406,20.7433394 25.4316406,18.2368164 C25.4316406,15.7302935 26.283276,13.5969326 27.9865723,11.8366699 C29.6898685,10.0764072 31.7263879,9.19628906 34.0961914,9.19628906 Z M49.9555664,8.99121094 C49.8758134,9.76595439 49.8131513,10.5492311 49.7675781,11.3410645 C49.722005,12.1328978 49.6878256,12.9731401 49.6650391,13.8618164 C50.5878952,12.2325765 51.4395306,11.0590856 52.2199707,10.3413086 C53.0004108,9.62353157 53.8064737,9.26464844 54.6381836,9.26464844 C55.2876009,9.26464844 55.8002911,9.43839344 56.1762695,9.78588867 C56.552248,10.1333839 56.7402344,10.6033499 56.7402344,11.1958008 C56.7402344,11.6173524 56.6177584,11.9790838 56.3728027,12.2810059 C56.1278471,12.5829279 55.8401709,12.7338867 55.5097656,12.7338867 C55.3046865,12.7338867 54.9885275,12.6228038 54.5612793,12.4006348 C54.1340311,12.1784657 53.7666031,12.0673828 53.4589844,12.0673828 C52.8665335,12.0673828 52.2740915,12.3265762 51.6816406,12.8449707 C51.0891897,13.3633652 50.468265,14.1694281 49.8188477,15.2631836 L49.8188477,17.1430664 C49.8188477,18.9659922 49.8330891,20.4442489 49.8615723,21.5778809 C49.8900555,22.7115128 49.9327797,23.4321274 49.9897461,23.7397461 C50.0922857,24.3208037 50.3116031,24.7195627 50.6477051,24.9360352 C50.983807,25.1525076 51.5563111,25.2607422 52.3652344,25.2607422 L52.8608398,25.2607422 L52.8608398,26.4570312 C51.9721635,26.3886715 51.180342,26.3374025 50.4853516,26.3032227 C49.7903611,26.2690428 49.2036157,26.2519531 48.7250977,26.2519531 C48.0642871,26.2519531 47.3835484,26.2690428 46.6828613,26.3032227 C45.9821742,26.3374025 45.2501666,26.3886715 44.4868164,26.4570312 L44.4868164,25.2607422 L44.8798828,25.2607422 C45.7115927,25.2607422 46.2755519,25.0613627 46.5717773,24.6625977 C46.8680028,24.2638326 47.0161133,23.3352938 47.0161133,21.8769531 L47.0161133,14.5283203 C47.0161133,13.2978454 46.9306649,12.5060239 46.7597656,12.152832 C46.5888663,11.7996402 46.2755557,11.6230469 45.8198242,11.6230469 C45.7286779,11.6230469 45.6318365,11.6258952 45.5292969,11.6315918 C45.4267573,11.6372884 45.2558606,11.6572264 45.0166016,11.6914062 L44.8115234,10.6318359 C45.6204468,10.4495434 46.4521442,10.2216811 47.3066406,9.94824219 C48.1611371,9.67480332 49.0441035,9.35579609 49.9555664,8.99121094 Z M63.6445312,8.99121094 L63.4394531,11.8623047 C64.7268945,10.9280552 65.846268,10.2501649 66.7976074,9.82861328 C67.7489468,9.40706169 68.6233684,9.19628906 69.4208984,9.19628906 C71.0957115,9.19628906 72.3546507,9.66910334 73.1977539,10.6147461 C74.0408571,11.5603888 74.4624023,12.9788317 74.4624023,14.8701172 C74.4624023,14.8815105 74.4567058,15.3828075 74.4453125,16.3740234 C74.4339192,17.3652393 74.4282227,18.3564404 74.4282227,19.3476562 C74.4282227,19.7692078 74.4225261,20.2961394 74.4111328,20.9284668 C74.3997395,21.5607942 74.394043,21.9908843 74.394043,22.21875 C74.394043,23.494798 74.5079741,24.3264955 74.7358398,24.7138672 C74.9637056,25.1012389 75.3966439,25.2949219 76.034668,25.2949219 C76.0688478,25.2949219 76.1343582,25.2892253 76.2312012,25.277832 C76.3280441,25.2664387 76.3992511,25.2607422 76.4448242,25.2607422 L76.4448242,26.4570312 C75.4194285,26.3886715 74.6446966,26.3430991 74.1206055,26.3203125 C73.5965143,26.2975259 73.1578794,26.2861328 72.8046875,26.2861328 C72.2578098,26.2861328 71.6653678,26.3003742 71.0273438,26.3288574 C70.3893197,26.3573406 69.7399122,26.4000648 69.0791016,26.4570312 L69.0620117,25.2607422 L69.3183594,25.2607422 C70.7767,25.2607422 71.5172525,23.9277477 71.5400391,21.2617188 C71.5514323,21.113606 71.5571289,20.9996749 71.5571289,20.9199219 L71.5913086,17.2456055 L71.5913086,16.6303711 C71.5913086,14.5226132 71.3463566,13.1241083 70.8564453,12.4348145 C70.366534,11.7455206 69.5234435,11.4008789 68.3271484,11.4008789 C67.6663378,11.4008789 66.9343302,11.5575342 66.1311035,11.8708496 C65.3278768,12.184165 64.4762415,12.6484344 63.5761719,13.2636719 C63.5305987,14.4485736 63.4964194,15.5679472 63.4736328,16.6218262 C63.4508462,17.6757051 63.4394531,18.6298785 63.4394531,19.484375 L63.4394531,21.8427734 C63.4394531,23.3466872 63.550536,24.2980123 63.7727051,24.6967773 C63.9948742,25.0955424 64.4306608,25.2949219 65.0800781,25.2949219 C65.1256513,25.2949219 65.1968582,25.2892253 65.2937012,25.277832 C65.3905441,25.2664387 65.4674476,25.2607422 65.5244141,25.2607422 L65.5244141,26.4570312 C64.5445915,26.3886715 63.7727079,26.3430991 63.2087402,26.3203125 C62.6447726,26.2975259 62.1805031,26.2861328 61.815918,26.2861328 C61.4741194,26.2861328 61.0240913,26.2975259 60.4658203,26.3203125 C59.9075493,26.3430991 59.1271209,26.3886715 58.1245117,26.4570312 L58.1074219,25.2607422 L58.4321289,25.2607422 C59.8562897,25.2607422 60.5740559,23.8764787 60.5854492,21.1079102 C60.5854492,20.6977519 60.5911458,20.3787446 60.6025391,20.1508789 L60.6367188,15.9638672 L60.6367188,14.2719727 C60.6367188,13.1554306 60.5512704,12.423423 60.3803711,12.0759277 C60.2094718,11.7284325 59.8961611,11.5546875 59.4404297,11.5546875 C59.3492834,11.5546875 59.232504,11.5660806 59.0900879,11.5888672 C58.9476718,11.6116538 58.796713,11.6458331 58.637207,11.6914062 L58.4321289,10.6318359 C59.2866254,10.4723299 60.1439573,10.2558607 61.0041504,9.98242188 C61.8643435,9.70898301 62.7444616,9.37858267 63.6445312,8.99121094 Z M93.534668,16.9038086 L85.1948242,16.9038086 C84.5454069,16.9038086 83.9472684,16.9152017 83.4003906,16.9379883 C82.8535129,16.9607749 82.3465193,16.9949542 81.8793945,17.0405273 L81.8793945,17.6728516 C81.8793945,19.9059356 82.394933,21.6319926 83.4260254,22.8510742 C84.4571178,24.0701558 85.9125883,24.6796875 87.7924805,24.6796875 C88.6241904,24.6796875 89.4444947,24.5401218 90.253418,24.2609863 C91.0623413,23.9818508 91.9225215,23.5460642 92.8339844,22.9536133 L93.5004883,24.0473633 C92.3269798,25.0043993 91.1563372,25.7278621 89.9885254,26.2177734 C88.8207136,26.7076847 87.6671606,26.9526367 86.527832,26.9526367 C84.3175345,26.9526367 82.4946361,26.1636635 81.059082,24.5856934 C79.623528,23.0077232 78.9057617,20.982597 78.9057617,18.5102539 C78.9057617,15.8784048 79.6577073,13.6681405 81.1616211,11.8793945 C82.6655349,10.0906486 84.4998264,9.19628906 86.6645508,9.19628906 C88.6811624,9.19628906 90.2875917,9.86848286 91.4838867,11.2128906 C92.6801818,12.5572984 93.3637687,14.4542521 93.534668,16.9038086 Z M90.3730469,15.109375 C90.0312483,13.7080008 89.5128615,12.6341997 88.8178711,11.8879395 C88.1228806,11.1416792 87.2911832,10.7685547 86.3227539,10.7685547 C85.2289984,10.7685547 84.2919147,11.2071896 83.5114746,12.0844727 C82.7310345,12.9617557 82.2211926,14.1466397 81.9819336,15.6391602 C84.2378042,15.6391602 86.0122819,15.5992843 87.3054199,15.5195312 C88.5985579,15.4397782 89.62109,15.3030609 90.3730469,15.109375 Z M101.156738,0.0361328125 C101.088379,2.15528403 101.048503,4.91241792 101.037109,8.30761719 C101.025716,9.61784509 101.02002,10.5577771 101.02002,11.1274414 L100.98584,14.6308594 L100.98584,22.2529297 C100.98584,23.5631576 101.131102,24.3920067 101.421631,24.739502 C101.71216,25.0869972 102.261877,25.2607422 103.070801,25.2607422 L103.463867,25.2607422 L103.463867,26.4570312 C102.67773,26.4000648 101.940026,26.3573406 101.250732,26.3288574 C100.561439,26.3003742 99.9547552,26.2861328 99.4306641,26.2861328 C98.8951796,26.2861328 98.3084342,26.3003742 97.6704102,26.3288574 C97.0323861,26.3573406 96.3658889,26.4000648 95.6708984,26.4570312 L95.6538086,25.2607422 C95.7335616,25.2607422 95.8332514,25.2664387 95.9528809,25.277832 C96.0725104,25.2892253 96.160807,25.2949219 96.2177734,25.2949219 C97.0153035,25.2949219 97.5479316,25.0869975 97.8156738,24.6711426 C98.0834161,24.2552876 98.2172852,23.0447691 98.2172852,21.0395508 L98.2172852,19.7749023 L98.2856445,6.92333984 L98.2856445,3.98388672 C98.2856445,3.49397542 98.1802582,3.12654745 97.9694824,2.8815918 C97.7587066,2.63663615 97.4425477,2.51416016 97.0209961,2.51416016 C96.8614901,2.51416016 96.5652691,2.55403606 96.1323242,2.63378906 C96.0753578,2.64518235 96.0354819,2.65087891 96.0126953,2.65087891 L95.7563477,1.54003906 C96.7133837,1.38053306 97.6390743,1.17545698 98.5334473,0.924804687 C99.4278202,0.674152393 100.302242,0.377931396 101.156738,0.0361328125 Z M111.376465,0.0361328125 C111.308105,2.15528403 111.268229,4.91241792 111.256836,8.30761719 C111.245443,9.61784509 111.239746,10.5577771 111.239746,11.1274414 L111.205566,14.6308594 L111.205566,22.2529297 C111.205566,23.5631576 111.350829,24.3920067 111.641357,24.739502 C111.931886,25.0869972 112.481604,25.2607422 113.290527,25.2607422 L113.683594,25.2607422 L113.683594,26.4570312 C112.897457,26.4000648 112.159753,26.3573406 111.470459,26.3288574 C110.781165,26.3003742 110.174482,26.2861328 109.650391,26.2861328 C109.114906,26.2861328 108.528161,26.3003742 107.890137,26.3288574 C107.252113,26.3573406 106.585615,26.4000648 105.890625,26.4570312 L105.873535,25.2607422 C105.953288,25.2607422 106.052978,25.2664387 106.172607,25.277832 C106.292237,25.2892253 106.380534,25.2949219 106.4375,25.2949219 C107.23503,25.2949219 107.767658,25.0869975 108.0354,24.6711426 C108.303143,24.2552876 108.437012,23.0447691 108.437012,21.0395508 L108.437012,19.7749023 L108.505371,6.92333984 L108.505371,3.98388672 C108.505371,3.49397542 108.399985,3.12654745 108.189209,2.8815918 C107.978433,2.63663615 107.662274,2.51416016 107.240723,2.51416016 C107.081217,2.51416016 106.784996,2.55403606 106.352051,2.63378906 C106.295084,2.64518235 106.255208,2.65087891 106.232422,2.65087891 L105.976074,1.54003906 C106.93311,1.38053306 107.858801,1.17545698 108.753174,0.924804687 C109.647547,0.674152393 110.521968,0.377931396 111.376465,0.0361328125 Z M135.097168,2.06982422 L135.097168,3.24902344 C135.028808,3.24902344 134.931967,3.24332688 134.806641,3.23193359 C134.681314,3.22054031 134.59017,3.21484375 134.533203,3.21484375 C133.633134,3.21484375 133.023602,3.51106475 132.70459,4.10351562 C132.385578,4.6959665 132.226074,6.10301624 132.226074,8.32470703 L132.226074,14.5625 C132.226074,16.4082124 132.28304,17.7696896 132.396973,18.6469727 C132.510906,19.5242557 132.698892,20.2477185 132.960938,20.8173828 C133.519209,22.0478577 134.342361,22.9849414 135.43042,23.6286621 C136.518479,24.2723828 137.831535,24.5942383 139.369629,24.5942383 C140.520351,24.5942383 141.528642,24.4290381 142.394531,24.0986328 C143.260421,23.7682275 144.000973,23.2612339 144.616211,22.5776367 C145.231448,21.8940396 145.664387,21.0566456 145.915039,20.0654297 C146.165691,19.0742138 146.291016,17.4222121 146.291016,15.109375 C146.291016,12.3294132 146.259685,9.99097628 146.197021,8.09399414 C146.134358,6.197012 146.051758,5.04915564 145.949219,4.65039062 C145.789713,4.12629946 145.541912,3.76171978 145.205811,3.55664062 C144.869709,3.35156147 144.325687,3.24902344 143.57373,3.24902344 L143.317383,3.24902344 L143.317383,2.06982422 C143.454102,2.06982422 143.653482,2.07552078 143.915527,2.08691406 C145.487801,2.16666707 146.610023,2.20654297 147.282227,2.20654297 C147.943037,2.20654297 149.059562,2.16666707 150.631836,2.08691406 C150.905275,2.07552078 151.104654,2.06982422 151.22998,2.06982422 L151.22998,3.24902344 L151.024902,3.24902344 C150.352698,3.24902344 149.848553,3.3344718 149.512451,3.50537109 C149.176349,3.67627039 148.934246,3.96109827 148.786133,4.35986328 C148.660807,4.69026858 148.569662,5.55899362 148.512695,6.96606445 C148.455729,8.37313529 148.427246,10.6489101 148.427246,13.793457 L148.427246,15.5024414 C148.427246,17.3025806 148.358887,18.6782993 148.222168,19.6296387 C148.085449,20.5809781 147.863283,21.4212203 147.555664,22.1503906 C146.91764,23.6656977 145.818204,24.8562782 144.257324,25.722168 C142.696444,26.5880577 140.856456,27.0209961 138.737305,27.0209961 C137.267571,27.0209961 135.914638,26.8045269 134.678467,26.371582 C133.442295,25.9386372 132.39128,25.3120158 131.525391,24.4916992 C130.579748,23.6258095 129.907554,22.6032774 129.508789,21.4240723 C129.110024,20.2448672 128.910645,18.5957137 128.910645,16.4765625 C128.910645,15.6562459 128.922038,14.3147066 128.944824,12.4519043 C128.967611,10.589102 128.979004,9.13363154 128.979004,8.08544922 L128.979004,7.55566406 C128.979004,5.59601885 128.816652,4.38834863 128.491943,3.93261719 C128.167235,3.47688574 127.532069,3.24902344 126.586426,3.24902344 L126.278809,3.24902344 L126.278809,2.06982422 C127.087732,2.11539736 127.856767,2.14957671 128.585938,2.17236328 C129.315108,2.19514985 129.981605,2.20654297 130.585449,2.20654297 C131.31462,2.20654297 132.055172,2.19514985 132.807129,2.17236328 C133.559086,2.14957671 134.322425,2.11539736 135.097168,2.06982422 Z M158.869141,8.99121094 L158.664062,11.8623047 C159.951504,10.9280552 161.070877,10.2501649 162.022217,9.82861328 C162.973556,9.40706169 163.847978,9.19628906 164.645508,9.19628906 C166.320321,9.19628906 167.57926,9.66910334 168.422363,10.6147461 C169.265466,11.5603888 169.687012,12.9788317 169.687012,14.8701172 C169.687012,14.8815105 169.681315,15.3828075 169.669922,16.3740234 C169.658529,17.3652393 169.652832,18.3564404 169.652832,19.3476562 C169.652832,19.7692078 169.647135,20.2961394 169.635742,20.9284668 C169.624349,21.5607942 169.618652,21.9908843 169.618652,22.21875 C169.618652,23.494798 169.732583,24.3264955 169.960449,24.7138672 C170.188315,25.1012389 170.621253,25.2949219 171.259277,25.2949219 C171.293457,25.2949219 171.358968,25.2892253 171.455811,25.277832 C171.552653,25.2664387 171.62386,25.2607422 171.669434,25.2607422 L171.669434,26.4570312 C170.644038,26.3886715 169.869306,26.3430991 169.345215,26.3203125 C168.821124,26.2975259 168.382489,26.2861328 168.029297,26.2861328 C167.482419,26.2861328 166.889977,26.3003742 166.251953,26.3288574 C165.613929,26.3573406 164.964522,26.4000648 164.303711,26.4570312 L164.286621,25.2607422 L164.542969,25.2607422 C166.001309,25.2607422 166.741862,23.9277477 166.764648,21.2617188 C166.776042,21.113606 166.781738,20.9996749 166.781738,20.9199219 L166.815918,17.2456055 L166.815918,16.6303711 C166.815918,14.5226132 166.570966,13.1241083 166.081055,12.4348145 C165.591143,11.7455206 164.748053,11.4008789 163.551758,11.4008789 C162.890947,11.4008789 162.15894,11.5575342 161.355713,11.8708496 C160.552486,12.184165 159.700851,12.6484344 158.800781,13.2636719 C158.755208,14.4485736 158.721029,15.5679472 158.698242,16.6218262 C158.675456,17.6757051 158.664062,18.6298785 158.664062,19.484375 L158.664062,21.8427734 C158.664062,23.3466872 158.775145,24.2980123 158.997314,24.6967773 C159.219484,25.0955424 159.65527,25.2949219 160.304688,25.2949219 C160.350261,25.2949219 160.421468,25.2892253 160.518311,25.277832 C160.615153,25.2664387 160.692057,25.2607422 160.749023,25.2607422 L160.749023,26.4570312 C159.769201,26.3886715 158.997317,26.3430991 158.43335,26.3203125 C157.869382,26.2975259 157.405112,26.2861328 157.040527,26.2861328 C156.698729,26.2861328 156.248701,26.2975259 155.69043,26.3203125 C155.132159,26.3430991 154.35173,26.3886715 153.349121,26.4570312 L153.332031,25.2607422 L153.656738,25.2607422 C155.080899,25.2607422 155.798665,23.8764787 155.810059,21.1079102 C155.810059,20.6977519 155.815755,20.3787446 155.827148,20.1508789 L155.861328,15.9638672 L155.861328,14.2719727 C155.861328,13.1554306 155.77588,12.423423 155.60498,12.0759277 C155.434081,11.7284325 155.120771,11.5546875 154.665039,11.5546875 C154.573893,11.5546875 154.457113,11.5660806 154.314697,11.5888672 C154.172281,11.6116538 154.021322,11.6458331 153.861816,11.6914062 L153.656738,10.6318359 C154.511235,10.4723299 155.368567,10.2558607 156.22876,9.98242188 C157.088953,9.70898301 157.969071,9.37858267 158.869141,8.99121094 Z M179.616211,8.99121094 C179.604818,9.42415581 179.587728,10.039384 179.564941,10.8369141 C179.416829,15.4170151 179.342773,18.6412667 179.342773,20.5097656 L179.342773,22.3212891 C179.342773,23.6429103 179.468098,24.4746077 179.71875,24.8164062 C179.969402,25.1582048 180.459306,25.3291016 181.188477,25.3291016 C181.256836,25.3291016 181.347981,25.323405 181.461914,25.3120117 C181.575847,25.3006184 181.661295,25.2949219 181.718262,25.2949219 L181.718262,26.4570312 C180.749832,26.3886715 179.969404,26.3430991 179.376953,26.3203125 C178.784502,26.2975259 178.283205,26.2861328 177.873047,26.2861328 C177.508462,26.2861328 177.044192,26.2975259 176.480225,26.3203125 C175.916257,26.3430991 175.070318,26.3886715 173.942383,26.4570312 L173.942383,25.2607422 L174.369629,25.2607422 C175.782396,25.2607422 176.494466,23.8707821 176.505859,21.0908203 L176.505859,20.1508789 L176.574219,15.9296875 C176.574219,15.6220688 176.579915,15.2347029 176.591309,14.7675781 C176.602702,14.3004534 176.608398,13.9871427 176.608398,13.8276367 C176.608398,12.9047805 176.520102,12.2952489 176.343506,11.9990234 C176.16691,11.702798 175.845054,11.5546875 175.37793,11.5546875 C175.286783,11.5546875 175.152914,11.5632323 174.976318,11.5803223 C174.799722,11.5974122 174.608888,11.6173501 174.403809,11.6401367 L174.23291,10.5634766 C175.13298,10.3925773 176.030188,10.1761081 176.924561,9.9140625 C177.818934,9.65201692 178.716141,9.34440281 179.616211,8.99121094 Z M177.770508,0.941894531 L178.983887,1.84765625 C179.302899,2.08691526 179.536458,2.32617068 179.68457,2.56542969 C179.832683,2.8046887 179.906738,3.05533723 179.906738,3.31738281 C179.906738,3.57942839 179.846924,3.80444242 179.727295,3.99243164 C179.607665,4.18042086 179.382651,4.39973833 179.052246,4.65039062 L177.770508,5.62451172 L176.574219,4.68457031 C176.243813,4.42252473 176.004558,4.18042103 175.856445,3.95825195 C175.708333,3.73608287 175.634277,3.49967573 175.634277,3.24902344 C175.634277,2.99837114 175.691243,2.77905367 175.805176,2.59106445 C175.919109,2.40307523 176.152668,2.17806121 176.505859,1.91601562 L177.770508,0.941894531 Z M183.256348,9.70898438 C184.110844,9.76595081 184.794431,9.80582671 185.307129,9.82861328 C185.819827,9.85139985 186.258462,9.86279297 186.623047,9.86279297 C186.964845,9.86279297 187.400632,9.85139985 187.93042,9.82861328 C188.460208,9.80582671 189.197912,9.76025425 190.143555,9.69189453 L190.143555,10.8881836 L189.699219,10.8881836 C189.129554,10.8881836 188.730795,10.9650871 188.50293,11.1188965 C188.275064,11.2727058 188.161133,11.5432923 188.161133,11.9306641 C188.161133,12.2268895 188.719395,13.8959809 189.835937,16.9379883 C190.758794,19.4331179 191.516436,21.5066649 192.108887,23.1586914 C193.943206,18.7836695 195.136635,15.8755769 195.689209,14.4343262 C196.241783,12.9930755 196.518066,12.1243504 196.518066,11.828125 C196.518066,11.4977197 196.392742,11.2584643 196.14209,11.1103516 C195.891438,10.9622388 195.481285,10.8881836 194.911621,10.8881836 L194.672363,10.8881836 L194.672363,9.69189453 C195.185061,9.73746768 195.680662,9.77164702 196.15918,9.79443359 C196.637698,9.81722017 197.110512,9.82861328 197.577637,9.82861328 C197.942222,9.82861328 198.369464,9.81722017 198.859375,9.79443359 C199.349286,9.77164702 199.879066,9.73746768 200.44873,9.69189453 L200.44873,10.8881836 L200.260742,10.8881836 C199.485999,10.8881836 198.756839,11.6970948 198.073242,13.3149414 C197.89095,13.736493 197.748536,14.0668933 197.645996,14.3061523 L197.440918,14.7504883 C194.136865,22.1219444 192.427898,26.1665003 192.313965,26.8842773 L190.434082,26.8842773 C190.434082,26.5082989 190.103682,25.406015 189.442871,23.5773926 C188.78206,21.7487702 187.557301,18.5501531 185.768555,13.9814453 C185.722982,13.8561192 185.648926,13.6624362 185.546387,13.4003906 C184.908363,11.7255776 184.190596,10.8881836 183.393066,10.8881836 L183.256348,10.8881836 L183.256348,9.70898438 Z M216.342285,16.9038086 L208.002441,16.9038086 C207.353024,16.9038086 206.754886,16.9152017 206.208008,16.9379883 C205.66113,16.9607749 205.154136,16.9949542 204.687012,17.0405273 L204.687012,17.6728516 C204.687012,19.9059356 205.20255,21.6319926 206.233643,22.8510742 C207.264735,24.0701558 208.720205,24.6796875 210.600098,24.6796875 C211.431808,24.6796875 212.252112,24.5401218 213.061035,24.2609863 C213.869958,23.9818508 214.730139,23.5460642 215.641602,22.9536133 L216.308105,24.0473633 C215.134597,25.0043993 213.963954,25.7278621 212.796143,26.2177734 C211.628331,26.7076847 210.474778,26.9526367 209.335449,26.9526367 C207.125152,26.9526367 205.302253,26.1636635 203.866699,24.5856934 C202.431145,23.0077232 201.713379,20.982597 201.713379,18.5102539 C201.713379,15.8784048 202.465325,13.6681405 203.969238,11.8793945 C205.473152,10.0906486 207.307444,9.19628906 209.472168,9.19628906 C211.48878,9.19628906 213.095209,9.86848286 214.291504,11.2128906 C215.487799,12.5572984 216.171386,14.4542521 216.342285,16.9038086 Z M213.180664,15.109375 C212.838865,13.7080008 212.320479,12.6341997 211.625488,11.8879395 C210.930498,11.1416792 210.0988,10.7685547 209.130371,10.7685547 C208.036616,10.7685547 207.099532,11.2071896 206.319092,12.0844727 C205.538652,12.9617557 205.02881,14.1466397 204.789551,15.6391602 C207.045421,15.6391602 208.819899,15.5992843 210.113037,15.5195312 C211.406175,15.4397782 212.428707,15.3030609 213.180664,15.109375 Z M223.930176,8.99121094 C223.850423,9.76595439 223.787761,10.5492311 223.742188,11.3410645 C223.696614,12.1328978 223.662435,12.9731401 223.639648,13.8618164 C224.562505,12.2325765 225.41414,11.0590856 226.19458,10.3413086 C226.97502,9.62353157 227.781083,9.26464844 228.612793,9.26464844 C229.26221,9.26464844 229.7749,9.43839344 230.150879,9.78588867 C230.526857,10.1333839 230.714844,10.6033499 230.714844,11.1958008 C230.714844,11.6173524 230.592368,11.9790838 230.347412,12.2810059 C230.102456,12.5829279 229.81478,12.7338867 229.484375,12.7338867 C229.279296,12.7338867 228.963137,12.6228038 228.535889,12.4006348 C228.10864,12.1784657 227.741212,12.0673828 227.433594,12.0673828 C226.841143,12.0673828 226.248701,12.3265762 225.65625,12.8449707 C225.063799,13.3633652 224.442874,14.1694281 223.793457,15.2631836 L223.793457,17.1430664 C223.793457,18.9659922 223.807698,20.4442489 223.836182,21.5778809 C223.864665,22.7115128 223.907389,23.4321274 223.964355,23.7397461 C224.066895,24.3208037 224.286213,24.7195627 224.622314,24.9360352 C224.958416,25.1525076 225.53092,25.2607422 226.339844,25.2607422 L226.835449,25.2607422 L226.835449,26.4570312 C225.946773,26.3886715 225.154951,26.3374025 224.459961,26.3032227 C223.76497,26.2690428 223.178225,26.2519531 222.699707,26.2519531 C222.038896,26.2519531 221.358158,26.2690428 220.657471,26.3032227 C219.956784,26.3374025 219.224776,26.3886715 218.461426,26.4570312 L218.461426,25.2607422 L218.854492,25.2607422 C219.686202,25.2607422 220.250161,25.0613627 220.546387,24.6625977 C220.842612,24.2638326 220.990723,23.3352938 220.990723,21.8769531 L220.990723,14.5283203 C220.990723,13.2978454 220.905274,12.5060239 220.734375,12.152832 C220.563476,11.7996402 220.250165,11.6230469 219.794434,11.6230469 C219.703287,11.6230469 219.606446,11.6258952 219.503906,11.6315918 C219.401367,11.6372884 219.23047,11.6572264 218.991211,11.6914062 L218.786133,10.6318359 C219.595056,10.4495434 220.426754,10.2216811 221.28125,9.94824219 C222.135746,9.67480332 223.018713,9.35579609 223.930176,8.99121094 Z M243.805664,9.89697266 C243.805664,10.5919631 243.842692,11.2926397 243.916748,11.9990234 C243.990804,12.7054072 244.096191,13.4174769 244.23291,14.1352539 L242.934082,14.340332 C242.797363,13.1554303 242.42139,12.2724638 241.806152,11.6914062 C241.190915,11.1103487 240.330735,10.8198242 239.225586,10.8198242 C238.26855,10.8198242 237.482425,11.0790176 236.867187,11.5974121 C236.25195,12.1158066 235.944336,12.773759 235.944336,13.5712891 C235.944336,14.8359438 237.288724,15.838538 239.977539,16.5791016 C240.444664,16.7044277 240.803547,16.8012692 241.054199,16.8696289 C242.398607,17.2456073 243.381263,17.7810838 244.002197,18.4760742 C244.623131,19.1710647 244.933594,20.0825139 244.933594,21.2104492 C244.933594,22.873869 244.281338,24.2467394 242.976807,25.3291016 C241.672275,26.4114637 240.000336,26.9526367 237.960937,26.9526367 C237.220374,26.9526367 236.462732,26.8728849 235.687988,26.7133789 C234.913245,26.5538729 234.121423,26.3146175 233.3125,25.9956055 C233.323893,25.8816726 233.332438,25.7620449 233.338135,25.6367188 C233.343831,25.5113926 233.34668,25.3177096 233.34668,25.0556641 C233.34668,24.5315729 233.315349,23.9647654 233.252686,23.3552246 C233.190022,22.7456838 233.096029,22.0991245 232.970703,21.4155273 L234.252441,21.1079102 C234.434734,22.5206776 234.879065,23.5773891 235.585449,24.2780762 C236.291833,24.9787633 237.271641,25.3291016 238.524902,25.3291016 C239.664231,25.3291016 240.595618,25.0528185 241.319092,24.5002441 C242.042565,23.9476698 242.404297,23.2327518 242.404297,22.3554688 C242.404297,21.1249938 241.196627,20.1451859 238.78125,19.4160156 C238.541991,19.3362626 238.365398,19.279297 238.251465,19.2451172 C236.519685,18.721026 235.30347,18.077315 234.602783,17.3139648 C233.902096,16.5506147 233.551758,15.5366274 233.551758,14.2719727 C233.551758,12.813632 234.132807,11.6031135 235.294922,10.6403809 C236.457037,9.67764818 237.943839,9.19628906 239.755371,9.19628906 C240.313642,9.19628906 240.920326,9.25325464 241.575439,9.3671875 C242.230553,9.48112036 242.973954,9.65771365 243.805664,9.89697266 Z M253.427246,8.99121094 C253.415853,9.42415581 253.398763,10.039384 253.375977,10.8369141 C253.227864,15.4170151 253.153809,18.6412667 253.153809,20.5097656 L253.153809,22.3212891 C253.153809,23.6429103 253.279133,24.4746077 253.529785,24.8164062 C253.780437,25.1582048 254.270341,25.3291016 254.999512,25.3291016 C255.067871,25.3291016 255.159016,25.323405 255.272949,25.3120117 C255.386882,25.3006184 255.47233,25.2949219 255.529297,25.2949219 L255.529297,26.4570312 C254.560868,26.3886715 253.780439,26.3430991 253.187988,26.3203125 C252.595537,26.2975259 252.09424,26.2861328 251.684082,26.2861328 C251.319497,26.2861328 250.855227,26.2975259 250.29126,26.3203125 C249.727292,26.3430991 248.881353,26.3886715 247.753418,26.4570312 L247.753418,25.2607422 L248.180664,25.2607422 C249.593432,25.2607422 250.305501,23.8707821 250.316895,21.0908203 L250.316895,20.1508789 L250.385254,15.9296875 C250.385254,15.6220688 250.39095,15.2347029 250.402344,14.7675781 C250.413737,14.3004534 250.419434,13.9871427 250.419434,13.8276367 C250.419434,12.9047805 250.331137,12.2952489 250.154541,11.9990234 C249.977945,11.702798 249.65609,11.5546875 249.188965,11.5546875 C249.097819,11.5546875 248.963949,11.5632323 248.787354,11.5803223 C248.610758,11.5974122 248.419923,11.6173501 248.214844,11.6401367 L248.043945,10.5634766 C248.944015,10.3925773 249.841223,10.1761081 250.735596,9.9140625 C251.629969,9.65201692 252.527176,9.34440281 253.427246,8.99121094 Z M251.581543,0.941894531 L252.794922,1.84765625 C253.113934,2.08691526 253.347493,2.32617068 253.495605,2.56542969 C253.643718,2.8046887 253.717773,3.05533723 253.717773,3.31738281 C253.717773,3.57942839 253.65796,3.80444242 253.53833,3.99243164 C253.418701,4.18042086 253.193687,4.39973833 252.863281,4.65039062 L251.581543,5.62451172 L250.385254,4.68457031 C250.054849,4.42252473 249.815593,4.18042103 249.66748,3.95825195 C249.519368,3.73608287 249.445312,3.49967573 249.445312,3.24902344 C249.445312,2.99837114 249.502278,2.77905367 249.616211,2.59106445 C249.730144,2.40307523 249.963703,2.17806121 250.316895,1.91601562 L251.581543,0.941894531 Z M262.450684,6.44482422 L263.578613,6.78662109 C263.510254,7.41325183 263.456136,7.97436276 263.41626,8.4699707 C263.376383,8.96557865 263.350749,9.45263433 263.339355,9.93115234 L264.552734,9.93115234 C265.202152,9.93115234 265.862952,9.92260751 266.535156,9.90551758 C267.20736,9.88842765 267.88525,9.86279314 268.568848,9.82861328 L268.158691,11.6914062 C267.429521,11.6344398 266.743086,11.5974122 266.099365,11.5803223 C265.455645,11.5632323 264.814782,11.5546875 264.176758,11.5546875 L263.373535,11.5546875 C263.305175,13.5143327 263.256755,15.0153756 263.228271,16.0578613 C263.199788,17.100347 263.185547,17.9633755 263.185547,18.6469727 C263.185547,21.2218553 263.36214,22.8994915 263.715332,23.6799316 C264.068524,24.4603717 264.700842,24.8505859 265.612305,24.8505859 C265.988283,24.8505859 266.40698,24.7708341 266.868408,24.6113281 C267.329836,24.4518221 267.890947,24.1897805 268.551758,23.8251953 L269.115723,24.953125 C268.021967,25.6139356 267.030766,26.1123844 266.14209,26.4484863 C265.253414,26.7845883 264.478682,26.9526367 263.817871,26.9526367 C262.598789,26.9526367 261.710126,26.5339397 261.151855,25.6965332 C260.593584,24.8591267 260.314453,23.5118908 260.314453,21.6547852 C260.314453,21.2902 260.340088,19.9885366 260.391357,17.7497559 C260.442627,15.5109751 260.468262,13.4573661 260.468262,11.5888672 C260.365722,11.5888672 260.217612,11.5945637 260.023926,11.605957 C259.078283,11.6401369 258.428875,11.6572266 258.075684,11.6572266 L258.075684,10.4267578 C259.192226,10.2672518 260.115068,9.85425138 260.844238,9.18774414 C261.573409,8.5212369 262.108885,7.6069394 262.450684,6.44482422 Z M269.662598,9.70898438 C270.517094,9.76595081 271.200681,9.80582671 271.713379,9.82861328 C272.226077,9.85139985 272.664712,9.86279297 273.029297,9.86279297 C273.371095,9.86279297 273.806882,9.85139985 274.33667,9.82861328 C274.866458,9.80582671 275.604162,9.76025425 276.549805,9.69189453 L276.549805,10.8881836 L276.105469,10.8881836 C275.535804,10.8881836 275.137045,10.9650871 274.90918,11.1188965 C274.681314,11.2727058 274.567383,11.5432923 274.567383,11.9306641 C274.567383,12.2268895 275.06868,13.7307807 276.071289,16.4423828 C277.028325,19.0172655 277.820147,21.1876539 278.446777,22.9536133 C280.030444,19.1938289 281.144121,16.4822674 281.787842,14.8188477 C282.431562,13.1554279 282.753418,12.1585303 282.753418,11.828125 C282.753418,11.4977197 282.628094,11.2584643 282.377441,11.1103516 C282.126789,10.9622388 281.716637,10.8881836 281.146973,10.8881836 L280.890625,10.8881836 L280.890625,9.69189453 C281.403323,9.73746768 281.907468,9.77164702 282.403076,9.79443359 C282.898684,9.81722017 283.374347,9.82861328 283.830078,9.82861328 C284.206057,9.82861328 284.638995,9.81722017 285.128906,9.79443359 C285.618818,9.77164702 286.142901,9.73746768 286.701172,9.69189453 L286.701172,10.8881836 L286.564453,10.8881836 C286.188475,10.8881836 285.872316,10.9707837 285.615967,11.1359863 C285.359618,11.301189 285.1403,11.5660789 284.958008,11.9306641 C284.935221,11.9876305 284.83838,12.2097962 284.66748,12.597168 C283.459792,15.3885231 282.166674,18.3165537 280.788086,21.3813477 C280.104489,22.9308346 279.232915,24.9531125 278.17334,27.4482422 C275.894683,32.8486598 274.140143,35.5488281 272.909668,35.5488281 C272.453937,35.5488281 272.072267,35.4007176 271.764648,35.1044922 C271.45703,34.8082667 271.303223,34.4322939 271.303223,33.9765625 C271.303223,33.3499318 271.741858,32.9568693 272.619141,32.7973633 C272.972332,32.7403969 273.222981,32.6777347 273.371094,32.609375 C274.009118,32.3587227 274.926264,30.9117971 276.122559,28.2685547 C276.452964,27.5279911 276.715006,26.9469422 276.908691,26.5253906 C276.122555,24.4973857 275.15414,21.8940589 274.003418,18.715332 C272.100739,13.4744204 270.744958,10.8540039 269.936035,10.8540039 C269.867675,10.8540039 269.813558,10.8568522 269.773682,10.8625488 C269.733805,10.8682455 269.696778,10.8710938 269.662598,10.8710938 L269.662598,9.70898438 Z" id="Cornell-University" fill="#FFFFFF"></path>
    </g>
</svg>