<?xml version="1.0" encoding="utf-8"?>
<!-- Generator: Adobe Illustrator 16.0.0, SVG Export Plug-In . SVG Version: 6.00 Build 0)  -->
<!DOCTYPE svg PUBLIC "-//W3C//DTD SVG 1.1//EN" "http://www.w3.org/Graphics/SVG/1.1/DTD/svg11.dtd">
<svg version="1.1" id="Layer_1" xmlns="http://www.w3.org/2000/svg" xmlns:xlink="http://www.w3.org/1999/xlink" x="0px" y="0px"
	 width="31.99px" height="31.99px" viewBox="0 0 31.99 31.99" style="enable-background:new 0 0 31.99 31.99;" xml:space="preserve"
	>
<path d="M15.995,0C7.175,0,0,7.175,0,15.995c0,8.82,7.175,15.995,15.995,15.995S31.99,24.815,31.99,15.995
	C31.99,7.175,24.815,0,15.995,0z M17.867,30.898c-0.615,0.077-1.237,0.129-1.872,0.129c-0.712,0-1.407-0.067-2.093-0.163
	c-0.182-0.378-0.321-0.98-0.321-1.476c0-1.33,1.082-2.412,2.412-2.412s2.412,1.082,2.412,2.412
	C18.405,29.939,18.212,30.47,17.867,30.898z M20.912,30.185c-0.593,0.206-1.197,0.387-1.821,0.519
	c0.176-0.414,0.278-0.858,0.278-1.315c0-1.861-1.514-3.375-3.375-3.375s-3.375,1.514-3.375,3.375c0,0.378,0.071,0.85,0.195,1.293
	c-0.577-0.125-1.137-0.29-1.687-0.479c-0.045-0.267-0.077-0.539-0.077-0.814c0-2.726,2.218-4.944,4.943-4.944
	s4.943,2.218,4.943,4.944l0,0.108C20.938,29.672,20.938,29.988,20.912,30.185z M21.897,29.817c0.002-0.104,0.003-0.208,0.003-0.323
	l0-0.106c0-3.257-2.65-5.907-5.907-5.907s-5.907,2.65-5.907,5.907c0,0.15,0.031,0.296,0.042,0.446
	c-0.474-0.202-0.934-0.43-1.381-0.677l0.812-16.12H22.95l0.401,16.054C22.88,29.356,22.397,29.602,21.897,29.817z M9.995,12.073
	l5.955-7.679l6.53,7.679H9.995z M24.301,28.513L23.898,12.42l-0.004-0.17l-7.979-9.383l-7.281,9.39L7.812,28.588
	c-4.117-2.685-6.85-7.322-6.85-12.593c0-8.289,6.744-15.032,15.032-15.032s15.032,6.743,15.032,15.032
	C31.027,21.214,28.351,25.817,24.301,28.513z M18.26,15.261c-0.46,0-0.873,0.195-1.167,0.505c-0.294-0.31-0.708-0.505-1.168-0.505
	c-0.442,0-0.843,0.179-1.135,0.468c-0.292-0.289-0.692-0.468-1.134-0.468c-0.892,0-1.617,0.725-1.617,1.616v4.865h7.824l0.015-4.865
	C19.876,15.986,19.151,15.261,18.26,15.261z M14.296,20.78h-1.294v-3.903c0-0.361,0.293-0.653,0.654-0.653
	c0.36,0,0.652,0.293,0.652,0.652L14.296,20.78z M16.566,20.78h-1.295v-3.903c0-0.361,0.293-0.653,0.653-0.653
	s0.654,0.293,0.654,0.652L16.566,20.78z M18.902,20.78h-1.294v-3.903c0-0.361,0.292-0.653,0.652-0.653
	c0.361,0,0.654,0.293,0.654,0.652L18.902,20.78z M15.834,27.804l-0.42,2.395l1.938-0.372l-1.251-0.353L15.834,27.804z"/>
</svg>
