<?xml version="1.0" encoding="utf-8"?>
<!-- Generator: Adobe Illustrator 15.0.2, SVG Export Plug-In . SVG Version: 6.00 Build 0)  -->
<!DOCTYPE svg PUBLIC "-//W3C//DTD SVG 1.1//EN" "http://www.w3.org/Graphics/SVG/1.1/DTD/svg11.dtd">
<svg version="1.1" id="Layer_1" xmlns="http://www.w3.org/2000/svg" xmlns:xlink="http://www.w3.org/1999/xlink" x="0px" y="0px"
	 width="80px" height="28px" viewBox="0 0 80 28" enable-background="new 0 0 80 28" xml:space="preserve">
<g>
	<path d="M66.367,3.586c0.891,0.281,1.547,0.531,1.969,0.75c0.875,0.344,1.773,0.844,2.695,1.5c0.172,0.031,0.648,0.414,1.43,1.148
		C73.273,8,73.766,8.695,73.938,9.07c0.656,1.297,0.984,2.359,0.984,3.188v0.703c0,0.156-0.078,0.664-0.234,1.523
		c-0.375,1.203-0.781,2.164-1.219,2.883c-0.094,0.359-0.656,1.07-1.688,2.133c-0.547,0.516-0.891,0.82-1.031,0.914
		c-1.266,0.812-2.148,1.312-2.648,1.5c-1.094,0.469-2.125,0.805-3.094,1.008c-1.859,0.359-3.328,0.539-4.406,0.539h-0.891
		c-1.719-0.016-2.578-0.039-2.578-0.07c-1.047,0-3.031-0.422-5.953-1.266c-0.172,0.188-0.414,0.359-0.727,0.516
		c-0.328,0.234-0.945,0.492-1.852,0.773c-1.281,0.234-2.461,0.352-3.539,0.352c-0.266,0-0.398-0.008-0.398-0.023
		c-0.75,0-1.625-0.141-2.625-0.422l-0.211,0.117c-1.781,0.422-2.969,0.633-3.562,0.633h-0.727l-1.406-0.047
		c-1.031-0.109-1.812-0.25-2.344-0.422c-0.922-0.203-2.008-0.562-3.258-1.078c-1.328-0.625-2.734-1.406-4.219-2.344l0.094,0.094
		v0.023h-0.047c-0.531,0.25-0.82,0.391-0.867,0.422c-1.734,0.797-3.055,1.352-3.961,1.664c-1.766,0.516-2.891,0.773-3.375,0.773
		c-0.328,0.109-1.352,0.195-3.07,0.258c-0.672,0-1.68-0.141-3.023-0.422c-1.016-0.297-1.695-0.57-2.039-0.82
		c-0.625-0.312-1.188-0.68-1.688-1.102c-0.547-0.391-0.969-0.812-1.266-1.266c-0.531-0.562-0.875-1.117-1.031-1.664
		c-0.234-0.312-0.453-0.945-0.656-1.898c-0.078,0-0.148-0.711-0.211-2.133l0.094-0.328c0-0.344,0.125-0.812,0.375-1.406
		c0-0.266,0.445-1.109,1.336-2.531c0-0.031,0.406-0.492,1.219-1.383C8.398,8.227,8.68,7.969,9.039,7.688
		c1.062-0.734,1.859-1.219,2.391-1.453c1.031-0.438,1.992-0.758,2.883-0.961c1.734-0.297,3.141-0.453,4.219-0.469h1.078
		c0.609,0,2.086,0.211,4.43,0.633c2.031,0.609,3.68,1.195,4.945,1.758c0.172,0,1.539,0.766,4.102,2.297
		c0.672-0.25,1.438-0.484,2.297-0.703c0.25-0.125,1.172-0.258,2.766-0.398h0.891c0.641,0,1.422,0.125,2.344,0.375
		c0.375,0.031,0.891,0.219,1.547,0.562c0.531,0.188,1.109,0.531,1.734,1.031c0.219,0.109,0.75,0.578,1.594,1.406
		c0.156,0.141,0.367,0.477,0.633,1.008c0,0.047,0.281,0.148,0.844,0.305c0.953,0.391,1.711,0.805,2.273,1.242
		c0.156,0.047,0.617,0.477,1.383,1.289c0.594,0.688,0.953,1.266,1.078,1.734c0.094,0,0.203,0.461,0.328,1.383l-0.023,0.234
		c0,0.453-0.062,0.828-0.188,1.125c-0.125,0.422-0.32,0.797-0.586,1.125c2,0.672,3.117,1.008,3.352,1.008
		c2.156,0.469,4.055,0.703,5.695,0.703h0.375c0.625,0,1.781-0.164,3.469-0.492c0.938-0.266,1.836-0.617,2.695-1.055
		c0.172,0,1.07-0.523,2.695-1.57c1.125-1.031,1.797-1.742,2.016-2.133c0.469-0.484,0.977-1.375,1.523-2.672
		c0.219-0.656,0.383-1.477,0.492-2.461v-0.516c0-0.406-0.125-0.961-0.375-1.664c-0.141-0.453-0.516-1.086-1.125-1.898
		c0-0.125-0.523-0.664-1.57-1.617c-1.188-0.875-1.812-1.312-1.875-1.312c-1.391-0.656-2.211-0.984-2.461-0.984
		c-1.438-0.469-2.781-0.703-4.031-0.703l-1.992,0.164c-1.656,0.297-2.844,0.602-3.562,0.914c-0.203,0-0.875,0.32-2.016,0.961
		l-1.195,1.055c-0.688,0.906-1.086,1.484-1.195,1.734c-0.094,0-0.234,0.562-0.422,1.688v0.492l0.164,0.961
		c0,0.172,0.211,0.586,0.633,1.242c0.812,0.812,1.289,1.234,1.43,1.266c0.188,0.25,0.664,0.539,1.43,0.867
		c1.188,0.469,1.836,0.703,1.945,0.703c1,0.219,2.039,0.328,3.117,0.328l0.844-0.07c0.609,0,1.555-0.211,2.836-0.633
		c0.609-0.281,1.211-0.648,1.805-1.102c0.453-0.469,0.688-0.773,0.703-0.914c0.203-0.281,0.344-0.703,0.422-1.266l-0.023-0.188
		c0-0.656-0.234-1.305-0.703-1.945c-0.531-0.469-1.203-0.891-2.016-1.266c-1.203-0.281-1.977-0.422-2.32-0.422h-0.797
		c-1.422,0.234-2.133,0.406-2.133,0.516C58.656,9.477,58,9.984,57.859,10.453v0.352c0.062,0.156,0.172,0.367,0.328,0.633
		c0.312,0.391,0.633,0.656,0.961,0.797c0,0.094,0.664,0.242,1.992,0.445h0.773v0.047l-0.633,0.047h-0.375
		c-0.453,0-0.93-0.047-1.43-0.141c-0.469-0.094-0.797-0.211-0.984-0.352c-0.172-0.016-0.477-0.25-0.914-0.703
		c-0.125-0.172-0.203-0.461-0.234-0.867l0.047-0.352c0-0.156,0.219-0.516,0.656-1.078c0.156-0.125,0.578-0.391,1.266-0.797
		c1.141-0.422,2.328-0.648,3.562-0.68c0.469,0,1.141,0.094,2.016,0.281c0.734,0.219,1.344,0.5,1.828,0.844
		c0.641,0.547,0.961,0.852,0.961,0.914c0.5,0.594,0.75,1.359,0.75,2.297l-0.07,0.141c-0.078,0.547-0.258,1.109-0.539,1.688
		c-0.422,0.562-0.695,0.898-0.82,1.008c-0.625,0.578-1.234,1.031-1.828,1.359c-0.875,0.344-1.648,0.586-2.32,0.727
		c0,0.094-0.688,0.172-2.062,0.234c-1.219-0.109-2.258-0.258-3.117-0.445c-0.891-0.297-1.805-0.711-2.742-1.242
		c-0.5-0.344-1.18-0.961-2.039-1.852c-0.188-0.203-0.414-0.57-0.68-1.102c-0.094,0-0.203-0.539-0.328-1.617v-0.844
		c0-0.172,0.141-0.805,0.422-1.898c0.406-0.734,0.859-1.375,1.359-1.922c0.172-0.203,0.664-0.625,1.477-1.266
		c0.25-0.125,0.852-0.414,1.805-0.867c1.484-0.531,2.398-0.797,2.742-0.797c0.766-0.172,1.859-0.258,3.281-0.258
		C63.844,3.188,64.977,3.32,66.367,3.586z M29.664,9.609c-1.031-0.656-2.266-1.328-3.703-2.016
		c-0.203-0.078-1.023-0.375-2.461-0.891c-2.125-0.578-3.57-0.867-4.336-0.867h-0.891c-1.594,0.094-2.555,0.18-2.883,0.258
		c-0.531,0-1.266,0.156-2.203,0.469c-1.156,0.359-1.938,0.664-2.344,0.914C9.938,7.945,9.281,8.383,8.875,8.789
		C8.469,9.148,7.961,9.719,7.352,10.5c-0.406,0.562-0.805,1.477-1.195,2.742c-0.078,0-0.18,0.484-0.305,1.453l0.047,0.68
		c0.094,0.906,0.195,1.43,0.305,1.57c0.156,0.609,0.523,1.359,1.102,2.25c0.781,0.875,1.289,1.383,1.523,1.523
		c0.656,0.531,1.156,0.836,1.5,0.914c0.625,0.328,1.438,0.633,2.438,0.914c0.266,0.125,1.188,0.25,2.766,0.375h0.07
		c1.359-0.078,2.523-0.211,3.492-0.398c1.312-0.359,2.32-0.711,3.023-1.055c1.5-0.656,2.648-1.234,3.445-1.734
		c-1.062-0.656-2.664-1.617-4.805-2.883c-0.109,0.031-0.391,0.148-0.844,0.352c-0.906,0.406-1.453,0.609-1.641,0.609
		c-0.891,0.234-1.68,0.352-2.367,0.352h-0.398c-1.078-0.141-1.727-0.273-1.945-0.398c-0.312,0-0.836-0.344-1.57-1.031
		c-0.406-0.609-0.609-1.164-0.609-1.664V14.93c0-0.375,0.164-0.891,0.492-1.547c0.281-0.469,0.555-0.805,0.82-1.008
		c0.406-0.344,0.875-0.688,1.406-1.031c1.078-0.5,1.711-0.75,1.898-0.75c0.953-0.266,1.852-0.398,2.695-0.398h0.398l1.594,0.094
		c0.406,0,1.211,0.156,2.414,0.469c1.219,0.453,2.039,0.805,2.461,1.055c0.547,0.203,1.531,0.766,2.953,1.688
		c0.797,0.469,1.922,1.266,3.375,2.391c0.266-0.109,0.43-0.195,0.492-0.258c1.391-0.625,2.75-1.164,4.078-1.617v-0.023
		c-0.031,0-0.062-0.016-0.094-0.047c-2.234-1.547-3.797-2.594-4.688-3.141l-2.695,1.266c-0.453,0.328-0.883,0.586-1.289,0.773
		c-0.062,0-0.258-0.102-0.586-0.305c0.469-0.375,1.742-1.109,3.82-2.203L29.664,9.609z M22.609,11.977
		c-0.734-0.297-1.328-0.484-1.781-0.562c-0.562-0.172-1.492-0.305-2.789-0.398c-1.281,0-2.484,0.266-3.609,0.797
		c-0.516,0.219-1.094,0.602-1.734,1.148c-0.344,0.266-0.625,0.812-0.844,1.641v0.492c0,0.453,0.25,0.961,0.75,1.523
		c0.266,0.219,0.664,0.453,1.195,0.703c1.078,0.203,1.695,0.305,1.852,0.305h0.914c0.328,0,0.938-0.133,1.828-0.398
		c1.109-0.391,1.703-0.625,1.781-0.703c-0.047,0-0.258-0.094-0.633-0.281c-1.719-0.688-2.836-1.031-3.352-1.031h-0.914l-0.305,0.07
		c-0.047-0.031-0.102-0.102-0.164-0.211c0.25-0.172,0.609-0.258,1.078-0.258h1.125c0.359,0,1.047,0.117,2.062,0.352
		c1.266,0.312,2.047,0.562,2.344,0.75c0.344-0.125,0.641-0.273,0.891-0.445c1.406-0.781,2.227-1.289,2.461-1.523l0.727-0.539
		C23.914,12.562,22.953,12.086,22.609,11.977z M30.438,16.641c-1.75-1.219-3.18-2.172-4.289-2.859l-0.797,0.539
		c-1.641,1-2.727,1.625-3.258,1.875v0.023c0.078,0.016,0.117,0.039,0.117,0.07c0.266,0,1.766,0.961,4.5,2.883
		c1.344-0.844,2.633-1.633,3.867-2.367v-0.047L30.438,16.641z M31.258,17.227l-4.031,2.32c0.703,0.484,1.398,0.938,2.086,1.359
		c0.5,0.344,1.453,0.852,2.859,1.523c1.906,0.688,3.531,1.031,4.875,1.031l1.922-0.141c1.297-0.203,1.945-0.328,1.945-0.375
		c-0.203-0.062-0.32-0.102-0.352-0.117c-0.516-0.094-1.82-0.734-3.914-1.922c-1.25-0.781-3.039-2.008-5.367-3.68H31.258z
		 M43.164,18.422c-0.422-0.25-2.438-1.57-6.047-3.961c-1.203,0.438-2.266,0.852-3.188,1.242l-1.383,0.633l1.992,1.594
		c0.984,0.766,2.422,1.797,4.312,3.094c1.078,0.641,2.141,1.164,3.188,1.57c0.531-0.203,0.891-0.367,1.078-0.492
		c0.734-0.422,1.219-0.781,1.453-1.078c0.469-0.359,0.859-0.766,1.172-1.219L43.164,18.422z M44.289,10.945
		c-0.375-0.359-0.82-0.633-1.336-0.82c-0.406-0.25-0.992-0.484-1.758-0.703c-0.344-0.141-1.219-0.273-2.625-0.398L37.234,9.07
		c-0.391,0-1.516,0.281-3.375,0.844v0.023l0.328,0.188c0.234,0.125,1.75,1.18,4.547,3.164c1.125-0.297,1.758-0.461,1.898-0.492
		c1.453-0.219,2.93-0.328,4.43-0.328l0.844,0.117h0.047C45.25,11.758,44.695,11.211,44.289,10.945z M46.398,13.359
		c-0.938-0.188-1.781-0.312-2.531-0.375c-0.703,0.062-1.297,0.133-1.781,0.211c-0.922,0.125-1.82,0.297-2.695,0.516v0.047
		l2.227,1.547c1.812,1.297,3.43,2.367,4.852,3.211c0.172-0.328,0.352-1.023,0.539-2.086v-1.195
		C46.805,14.25,46.602,13.625,46.398,13.359z M50.078,21.703c-1.234-0.453-2.469-0.992-3.703-1.617
		c-0.047,0-0.078,0.031-0.094,0.094c0,0.125-0.445,0.609-1.336,1.453c-1.125,0.812-1.766,1.219-1.922,1.219v0.047
		c0.438,0.141,1.242,0.273,2.414,0.398c1.156,0,2.32-0.203,3.492-0.609c0.656-0.266,1.164-0.531,1.523-0.797
		C50.453,21.875,50.328,21.812,50.078,21.703z M52.047,18.141c-0.234-0.734-0.398-1.148-0.492-1.242
		c-0.219-0.438-0.578-0.93-1.078-1.477c-0.078-0.094-0.469-0.398-1.172-0.914c-1.047-0.531-1.703-0.812-1.969-0.844
		c0,0.078,0.062,0.297,0.188,0.656c0.172,0.359,0.258,1.031,0.258,2.016l-0.211,0.961c0,0.219-0.18,0.734-0.539,1.547h0.047
		c1.516,0.844,2.953,1.555,4.312,2.133c0.141-0.047,0.328-0.336,0.562-0.867c0.094,0,0.172-0.383,0.234-1.148L52.047,18.141z"/>
</g>
</svg>
