<?xml version="1.0" encoding="UTF-8"?>
<svg width="11px" height="13px" viewBox="0 0 11 13" version="1.1" xmlns="http://www.w3.org/2000/svg" xmlns:xlink="http://www.w3.org/1999/xlink">
    <!-- Generator: Sketch 52.6 (67491) - http://www.bohemiancoding.com/sketch -->
    <title>icon_lock</title>
    <desc>Created with Sketch.</desc>
    <g id="Page-1" stroke="none" stroke-width="1" fill="none" fill-rule="evenodd" opacity="0.6">
        <path d="M2.85714286,6.14285714 L7.42857143,6.14285714 L7.42857143,4.42857143 C7.42857143,3.79761589 7.20535938,3.2589308 6.75892857,2.8125 C6.31249777,2.3660692 5.77381268,2.14285714 5.14285714,2.14285714 C4.51190161,2.14285714 3.97321652,2.3660692 3.52678571,2.8125 C3.08035491,3.2589308 2.85714286,3.79761589 2.85714286,4.42857143 L2.85714286,6.14285714 Z M10.2857143,7 L10.2857143,12.1428571 C10.2857143,12.3809536 10.2023818,12.5833325 10.0357143,12.75 C9.86904679,12.9166675 9.66666786,13 9.42857143,13 L0.857142857,13 C0.619046429,13 0.4166675,12.9166675 0.25,12.75 C0.0833325,12.5833325 0,12.3809536 0,12.1428571 L0,7 C0,6.76190357 0.0833325,6.55952464 0.25,6.39285714 C0.4166675,6.22618964 0.619046429,6.14285714 0.857142857,6.14285714 L1.14285714,6.14285714 L1.14285714,4.42857143 C1.14285714,3.33332786 1.53571036,2.39286107 2.32142857,1.60714286 C3.10714679,0.821424643 4.04761357,0.428571429 5.14285714,0.428571429 C6.23810071,0.428571429 7.1785675,0.821424643 7.96428571,1.60714286 C8.75000393,2.39286107 9.14285714,3.33332786 9.14285714,4.42857143 L9.14285714,6.14285714 L9.42857143,6.14285714 C9.66666786,6.14285714 9.86904679,6.22618964 10.0357143,6.39285714 C10.2023818,6.55952464 10.2857143,6.76190357 10.2857143,7 Z" id="icon_lock" fill="#000000"></path>
    </g>
</svg>