<?xml version="1.0" encoding="UTF-8"?>
<svg width="14px" height="15px" viewBox="0 0 14 15" version="1.1" xmlns="http://www.w3.org/2000/svg" xmlns:xlink="http://www.w3.org/1999/xlink">
    <!-- Generator: Sketch 52.6 (67491) - http://www.bohemiancoding.com/sketch -->
    <title>icon_globe</title>
    <desc>Created with Sketch.</desc>
    <g id="Page-1" stroke="none" stroke-width="1" fill="none" fill-rule="evenodd" opacity="0.600888207">
        <path d="M3.41071429,1.34821429 C4.46429098,0.735115982 5.61308902,0.428571429 6.85714286,0.428571429 C8.1011967,0.428571429 9.24850665,0.735115982 10.2991071,1.34821429 C11.3497076,1.96131259 12.1815446,2.79314951 12.7946429,3.84375 C13.4077412,4.89435049 13.7142857,6.04166045 13.7142857,7.28571429 C13.7142857,8.52976813 13.4077412,9.67707808 12.7946429,10.7276786 C12.1815446,11.7782791 11.3497076,12.610116 10.2991071,13.2232143 C9.24850665,13.8363126 8.1011967,14.1428571 6.85714286,14.1428571 C5.61308902,14.1428571 4.46577906,13.8363126 3.41517857,13.2232143 C2.36457808,12.610116 1.53274116,11.7782791 0.919642857,10.7276786 C0.306544554,9.67707808 0,8.52976813 0,7.28571429 C0,6.04166045 0.306544554,4.89435049 0.919642857,3.84375 C1.53274116,2.79314951 2.36309,1.96131259 3.41071429,1.34821429 Z M9.10143349,5.24964524 C9.1125187,5.24722867 9.12483839,5.23246608 9.13839286,5.20535714 C9.15327388,5.17559509 9.16815469,5.14285732 9.18303571,5.10714286 C9.19791674,5.07142839 9.2083333,5.05059527 9.21428571,5.04464286 C9.25000018,5.00297598 9.31547571,4.95833357 9.41071429,4.91071429 C9.49404804,4.87499982 9.64880839,4.83928589 9.875,4.80357143 C10.0771619,4.75600393 10.228836,4.7886188 10.3300268,4.901417 C10.3190157,4.88911271 10.3474031,4.85054301 10.4151786,4.78571429 C10.4836313,4.72023777 10.5267856,4.68452384 10.5446429,4.67857143 C10.5625001,4.66666661 10.6071425,4.65327388 10.6785714,4.63839286 C10.7500004,4.62351183 10.7946428,4.60119063 10.8125,4.57142857 L10.8303571,4.375 C10.7589282,4.38095241 10.7068454,4.36011929 10.6741071,4.3125 C10.6415297,4.26511465 10.6222142,4.20299506 10.6161601,4.12613937 C10.6114883,4.1428414 10.5938927,4.16503586 10.5625,4.19642857 C10.5625,4.1547617 10.5491073,4.13095241 10.5223214,4.125 C10.4955356,4.11904759 10.4613097,4.12202375 10.4196429,4.13392857 C10.377976,4.14583339 10.3511905,4.14880955 10.3392857,4.14285714 C10.2797616,4.12499991 10.2351192,4.10267871 10.2053571,4.07589286 C10.1755951,4.04910701 10.1517858,4.00000036 10.1339286,3.92857143 C10.1160713,3.8571425 10.1041667,3.81250009 10.0982143,3.79464286 C10.0863095,3.7648808 10.0580359,3.73214304 10.0133929,3.69642857 C9.96874978,3.66071411 9.94047625,3.6309525 9.92857143,3.60714286 C9.92261902,3.59523804 9.91517862,3.57886915 9.90625,3.55803571 C9.89732138,3.53720228 9.8883929,3.51785723 9.87946429,3.5 C9.87053567,3.48214277 9.85863103,3.46577388 9.84375,3.45089286 C9.82886897,3.43601183 9.81250009,3.42857143 9.79464286,3.42857143 C9.77678562,3.42857143 9.7559525,3.44345223 9.73214286,3.47321429 C9.70833321,3.50297634 9.68601201,3.53273795 9.66517857,3.5625 C9.64434513,3.59226205 9.63095241,3.60714286 9.625,3.60714286 C9.60714277,3.59523804 9.5892858,3.59077379 9.57142857,3.59375 C9.55357134,3.59672621 9.54017862,3.59970237 9.53125,3.60267857 C9.52232138,3.60565478 9.50892866,3.61458326 9.49107143,3.62946429 C9.4732142,3.64434531 9.45833339,3.65476187 9.44642857,3.66071429 C9.42857134,3.67261911 9.40327397,3.68154759 9.37053571,3.6875 C9.33829667,3.69336164 9.31327332,3.6992232 9.29546494,3.70508484 C9.38386684,3.67499579 9.3800815,3.64253056 9.28571429,3.60714286 C9.22622248,3.58334614 9.1786233,3.57441443 9.1429153,3.58034746 C9.19722481,3.55525375 9.21858881,3.51997365 9.20982143,3.47321429 C9.20089281,3.425595 9.17559545,3.38392875 9.13392857,3.34821429 L9.17857143,3.34821429 C9.17261902,3.32440464 9.14732165,3.29910728 9.10267857,3.27232143 C9.05803549,3.24553558 9.00595268,3.22023821 8.94642857,3.19642857 C8.88690446,3.17261893 8.84821437,3.15476196 8.83035714,3.14285714 C8.78273786,3.11309509 8.68154839,3.08482156 8.52678571,3.05803571 C8.37202304,3.03124987 8.27380973,3.02976179 8.23214286,3.05357143 C8.2023808,3.08928589 8.18898808,3.12053558 8.19196429,3.14732143 C8.19494049,3.17410728 8.20684513,3.21577353 8.22767857,3.27232143 C8.24851201,3.32886933 8.25892857,3.36607134 8.25892857,3.38392857 C8.26488098,3.41964304 8.2485121,3.45833312 8.20982143,3.5 C8.17113076,3.54166688 8.15178571,3.5773808 8.15178571,3.60714286 C8.15178571,3.64880973 8.19345196,3.69494022 8.27678571,3.74553571 C8.36011946,3.79613121 8.38988107,3.86011866 8.36607143,3.9375 C8.3482142,3.98511929 8.30059562,4.03273786 8.22321429,4.08035714 C8.14583295,4.12797643 8.09821437,4.16369036 8.08035714,4.1875 C8.05059509,4.23511929 8.04613085,4.29017826 8.06696429,4.35267857 C8.08779772,4.41517888 8.11904741,4.46428554 8.16071429,4.5 C8.17261911,4.51190482 8.17708335,4.52380946 8.17410714,4.53571429 C8.17113094,4.54761911 8.16071437,4.56101183 8.14285714,4.57589286 C8.12499991,4.59077388 8.10863103,4.60267853 8.09375,4.61160714 C8.07886897,4.62053576 8.05952393,4.63095232 8.03571429,4.64285714 L8.00892857,4.66071429 C7.94345205,4.69047634 7.88244076,4.67261938 7.82589286,4.60714286 C7.76934496,4.54166634 7.72916679,4.46428616 7.70535714,4.375 C7.66369027,4.22618973 7.6160717,4.13690491 7.5625,4.10714286 C7.42559455,4.05952357 7.33928589,4.06249973 7.30357143,4.11607143 C7.27380937,4.03869009 7.15178679,3.96130991 6.9375,3.88392857 C6.78873226,3.83037218 6.61617106,3.81845904 6.41981125,3.84818878 C6.45535494,3.84153074 6.45506589,3.79693946 6.41964286,3.71428571 C6.37797598,3.62499955 6.32142893,3.58928563 6.25,3.60714286 C6.26785723,3.57142839 6.27976187,3.51934558 6.28571429,3.45089286 C6.2916667,3.38244013 6.29464286,3.34226196 6.29464286,3.33035714 C6.31250009,3.2529758 6.34821402,3.18452411 6.40178571,3.125 C6.40773813,3.11904759 6.42857125,3.09375022 6.46428571,3.04910714 C6.50000018,3.00446406 6.52827371,2.96428589 6.54910714,2.92857143 C6.56886466,2.89470141 6.57122336,2.87689204 6.5561833,2.87514288 C6.76307888,2.89855048 6.91106605,2.86571967 7,2.77678571 C7.02976205,2.74702366 7.0639879,2.69642893 7.10267857,2.625 C7.14136924,2.55357107 7.17261893,2.50297634 7.19642857,2.47321429 C7.25000027,2.43749982 7.29166652,2.42113094 7.32142857,2.42410714 C7.35119063,2.42708335 7.39434496,2.44345223 7.45089286,2.47321429 C7.50744076,2.50297634 7.55059509,2.51785714 7.58035714,2.51785714 C7.66369089,2.52380955 7.70982138,2.49107179 7.71875,2.41964286 C7.72767862,2.34821393 7.70535741,2.28869071 7.65178571,2.24107143 C7.72321464,2.24702384 7.73214313,2.19642911 7.67857143,2.08928571 C7.65476179,2.04761884 7.6309525,2.02083339 7.60714286,2.00892857 C7.53571393,1.98511893 7.45535759,1.99999973 7.36607143,2.05357143 C7.3186918,2.07726124 7.32434591,2.1009507 7.38303392,2.12464051 C7.37575559,2.12152065 7.34774566,2.15294495 7.29910714,2.21875 C7.24851165,2.28720272 7.199405,2.33928554 7.15178571,2.375 C7.10416643,2.41071446 7.05654786,2.39583366 7.00892857,2.33035714 C7.00297616,2.32440473 6.98660728,2.28422656 6.95982143,2.20982143 C6.93303558,2.13541629 6.90476205,2.09523812 6.875,2.08928571 C6.82740833,2.08928571 6.77981738,2.13387636 6.73222571,2.22305898 C6.74884117,2.1740366 6.71580695,2.1302249 6.63392857,2.08928571 C6.55059482,2.04761884 6.47916696,2.02380955 6.41964286,2.01785714 C6.53273866,1.94642821 6.50892938,1.86607188 6.34821429,1.77678571 C6.30654741,1.75297607 6.24553612,1.73809527 6.16517857,1.73214286 C6.08482103,1.72619045 6.02678589,1.73809509 5.99107143,1.76785714 C5.96130937,1.80952402 5.94494049,1.84374987 5.94196429,1.87053571 C5.93898808,1.89732156 5.95386888,1.92113085 5.98660714,1.94196429 C6.0193454,1.96279772 6.05059509,1.97916661 6.08035714,1.99107143 C6.1101192,2.00297625 6.14434504,2.01488089 6.18303571,2.02678571 C6.22172638,2.03869054 6.24702375,2.04761902 6.25892857,2.05357143 C6.34226232,2.11309554 6.36607161,2.15476179 6.33035714,2.17857143 C6.31845232,2.18452384 6.29315496,2.1949404 6.25446429,2.20982143 C6.21577362,2.22470246 6.18154777,2.23809518 6.15178571,2.25 C6.12202366,2.26190482 6.1041667,2.27380946 6.09821429,2.28571429 C6.08035705,2.30952393 6.08035705,2.35119018 6.09821429,2.41071429 C6.11607152,2.47023839 6.1101192,2.51190464 6.08035714,2.53571429 C6.05059509,2.50595223 6.02380964,2.45386942 6,2.37946429 C5.97761933,2.30952469 5.95786862,2.26193805 5.94074735,2.23670314 C5.97436528,2.28680388 5.89876409,2.30300913 5.71428571,2.28571429 L5.625,2.27678571 C5.60119036,2.27678571 5.55357179,2.28273804 5.48214286,2.29464286 C5.41071393,2.30654768 5.34970263,2.30952384 5.29910714,2.30357143 C5.24851165,2.29761902 5.20833348,2.27380973 5.17857143,2.23214286 C5.15476179,2.18452357 5.15476179,2.12500036 5.17857143,2.05357143 C5.18449445,2.02987935 5.19631106,2.02386868 5.21402162,2.03553924 C5.1864153,2.01433979 5.15517563,1.9872039 5.11607143,1.95089286 C5.07440455,1.91220219 5.04464295,1.88690482 5.02678571,1.875 C4.75297482,1.96428616 4.47321571,2.08630875 4.1875,2.24107143 C4.22321446,2.24702384 4.25892839,2.24404768 4.29464286,2.23214286 C4.32440491,2.22023804 4.363095,2.20089299 4.41071429,2.17410714 C4.45833357,2.14732129 4.48809518,2.13095241 4.5,2.125 C4.70238196,2.04166625 4.82738071,2.02083312 4.875,2.0625 L4.91964286,2.01785714 C5.00297661,2.11309571 5.06249982,2.18749973 5.09821429,2.24107143 C5.05654741,2.21726179 4.96726259,2.21428563 4.83035714,2.23214286 C4.71130893,2.26785732 4.64583339,2.30357125 4.63392857,2.33928571 C4.67559545,2.41071464 4.69047625,2.46428554 4.67857143,2.5 C4.65476179,2.48214277 4.62053594,2.45238116 4.57589286,2.41071429 C4.53124978,2.36904741 4.48809545,2.33630964 4.44642857,2.3125 C4.4047617,2.28869036 4.36011929,2.27380955 4.3125,2.26785714 C4.21726143,2.26785714 4.15178589,2.2708333 4.11607143,2.27678571 C3.24701946,2.75297857 2.5476217,3.41368625 2.01785714,4.25892857 C2.05952402,4.30059545 2.09523795,4.32440473 2.125,4.33035714 C2.14880964,4.33630955 2.16369045,4.363095 2.16964286,4.41071429 C2.17559527,4.45833357 2.18303567,4.49107134 2.19196429,4.50892857 C2.2008929,4.5267858 2.23511875,4.51785732 2.29464286,4.48214286 C2.34821455,4.52976214 2.35714304,4.5863092 2.32142857,4.65178571 C2.32738098,4.6458333 2.45833205,4.72618964 2.71428571,4.89285714 C2.82738152,4.99404812 2.88988089,5.0565475 2.90178571,5.08035714 C2.91964295,5.14583366 2.88988134,5.19940455 2.8125,5.24107143 C2.80654759,5.22916661 2.77976214,5.20238116 2.73214286,5.16071429 C2.68452357,5.11904741 2.65773813,5.10714277 2.65178571,5.125 C2.63392848,5.15476205 2.63541656,5.20982103 2.65625,5.29017857 C2.67627974,5.36743614 2.70593757,5.4048036 2.74522433,5.40228193 C2.70616521,5.405542 2.67948381,5.45308933 2.66517857,5.54464286 C2.65029754,5.63988143 2.64285714,5.74553513 2.64285714,5.86160714 C2.64285714,5.97767915 2.63988098,6.04761893 2.63392857,6.07142857 L2.65178571,6.08035714 C2.63392848,6.15178607 2.65029737,6.25446362 2.70089286,6.38839286 C2.75148835,6.5223221 2.8154758,6.58035723 2.89285714,6.5625 C2.8154758,6.58035723 2.87499902,6.70833214 3.07142857,6.94642857 C3.10714304,6.99404786 3.13095232,7.0208333 3.14285714,7.02678571 C3.16071437,7.03869054 3.1964283,7.06101174 3.25,7.09375 C3.3035717,7.12648826 3.34821411,7.15624987 3.38392857,7.18303571 C3.41964304,7.20982156 3.44940464,7.24107125 3.47321429,7.27678571 C3.49702393,7.30654777 3.52678554,7.37351138 3.5625,7.47767857 C3.59821446,7.58184576 3.63988071,7.65178554 3.6875,7.6875 C3.67559518,7.72321446 3.70386871,7.78273768 3.77232143,7.86607143 C3.84077415,7.94940518 3.87202384,8.01785688 3.86607143,8.07142857 C3.86011902,8.07142857 3.85267862,8.07440473 3.84375,8.08035714 C3.83482138,8.08630955 3.82738098,8.08928571 3.82142857,8.08928571 C3.8392858,8.13095259 3.88541629,8.17261884 3.95982143,8.21428571 C4.03422656,8.25595259 4.08035705,8.29464268 4.09821429,8.33035714 C4.1041667,8.34821438 4.11011902,8.37797598 4.11607143,8.41964286 C4.12202384,8.46130973 4.13095232,8.4940475 4.14285714,8.51785714 C4.15476196,8.54166679 4.17857125,8.54761911 4.21428571,8.53571429 C4.22619054,8.41666607 4.15476268,8.23214411 4,7.98214286 C3.91071384,7.83333259 3.86011911,7.74702393 3.84821429,7.72321429 C3.83035705,7.69345223 3.81398817,7.64732174 3.79910714,7.58482143 C3.78422612,7.52232112 3.77083339,7.47916679 3.75892857,7.45535714 C3.77083339,7.45535714 3.78869036,7.45982138 3.8125,7.46875 C3.83630964,7.47767862 3.86160701,7.48809518 3.88839286,7.5 C3.91517871,7.51190482 3.93749991,7.52380946 3.95535714,7.53571429 C3.97321437,7.54761911 3.9791667,7.55654759 3.97321429,7.5625 C3.95535705,7.60416688 3.96130937,7.65624969 3.99107143,7.71875 C4.02083348,7.78125031 4.05654741,7.83630929 4.09821429,7.88392857 C4.13988116,7.93154786 4.19047589,7.98809491 4.25,8.05357143 C4.30952411,8.11904795 4.34523804,8.15773804 4.35714286,8.16964286 C4.39285732,8.20535732 4.43452357,8.26339246 4.48214286,8.34375 C4.52976214,8.42410754 4.52976214,8.46428571 4.48214286,8.46428571 C4.53571455,8.46428571 4.59523777,8.4955354 4.66071429,8.55803571 C4.7261908,8.62053603 4.77678554,8.67857116 4.8125,8.73214286 C4.84226205,8.77976214 4.86607134,8.85714232 4.88392857,8.96428571 C4.9017858,9.07142911 4.91666661,9.14285696 4.92857143,9.17857143 C4.94047625,9.2202383 4.96577362,9.26041647 5.00446429,9.29910714 C5.04315496,9.33779781 5.08035696,9.36607134 5.11607143,9.38392857 L5.25892857,9.45535714 C5.31845268,9.4851192 5.35714277,9.50595232 5.375,9.51785714 C5.40476205,9.52976196 5.45982103,9.56101165 5.54017857,9.61160714 C5.62053612,9.66220263 5.68452357,9.69642848 5.73214286,9.71428571 C5.79166696,9.73809536 5.83928554,9.75 5.875,9.75 C5.91071446,9.75 5.95386879,9.7425596 6.00446429,9.72767857 C6.05505978,9.71279754 6.09523795,9.70238098 6.125,9.69642857 C6.21428616,9.68452375 6.30059482,9.72916616 6.38392857,9.83035714 C6.46726232,9.93154812 6.5297617,9.9940475 6.57142857,10.0178571 C6.78560635,10.1308954 6.94923765,10.1636574 7.06232737,10.116144 C7.05067957,10.1231702 7.05246187,10.1453294 7.06696429,10.1830357 C7.08184531,10.2217264 7.1056546,10.2678569 7.13839286,10.3214286 C7.17113112,10.3750003 7.19791656,10.4181546 7.21875,10.4508929 C7.23958344,10.4836311 7.25595232,10.5089285 7.26785714,10.5267857 C7.2976192,10.5625002 7.35119009,10.6071426 7.42857143,10.6607143 C7.50595277,10.714286 7.55952366,10.7589284 7.58928571,10.7946429 C7.62147812,10.7731813 7.64157958,10.7493018 7.64959053,10.723004 C7.63653265,10.7689993 7.65828792,10.8256598 7.71428571,10.8928571 C7.77380982,10.9642861 7.82738071,10.9940477 7.875,10.9821429 C7.95833375,10.9642856 8,10.8690485 8,10.6964286 C7.81547527,10.7857147 7.66964339,10.7321438 7.5625,10.5357143 C7.5625,10.5297619 7.5550596,10.513393 7.54017857,10.4866071 C7.52529754,10.4598213 7.5133929,10.4345239 7.50446429,10.4107143 C7.49553567,10.3869046 7.48809527,10.3616073 7.48214286,10.3348214 C7.47619045,10.3080356 7.47619045,10.2857144 7.48214286,10.2678571 C7.48809527,10.2499999 7.50297607,10.2410714 7.52678571,10.2410714 C7.58035741,10.2410714 7.61011902,10.2306549 7.61607143,10.2098214 C7.62202384,10.188988 7.61607152,10.151786 7.59821429,10.0982143 C7.58035705,10.0446426 7.56845241,10.0059525 7.5625,9.98214286 C7.55654759,9.93452357 7.52380982,9.87500036 7.46428571,9.80357143 C7.40476161,9.7321425 7.36904768,9.68750009 7.35714286,9.66964286 C7.3273808,9.72321455 7.27976223,9.74702384 7.21428571,9.74107143 C7.1488163,9.73511966 7.10120095,9.70833938 7.07143825,9.66072977 C7.07109876,9.66786816 7.06664039,9.68400739 7.05803571,9.70982143 C7.0491071,9.73660728 7.04464286,9.75595232 7.04464286,9.76785714 C6.96726152,9.76785714 6.92261911,9.76488098 6.91071429,9.75892857 C6.9166667,9.74107134 6.9241071,9.68898853 6.93303571,9.60267857 C6.94196433,9.51636862 6.95238089,9.449405 6.96428571,9.40178571 C6.97023813,9.37797607 6.98660701,9.34226214 7.01339286,9.29464286 C7.04017871,9.24702357 7.06249991,9.20386924 7.08035714,9.16517857 C7.09821437,9.1264879 7.11011902,9.08928589 7.11607143,9.05357143 C7.12202384,9.01785696 7.10863112,8.98958344 7.07589286,8.96875 C7.0431546,8.94791656 6.99107179,8.94047616 6.91964286,8.94642857 C6.80654705,8.95238098 6.72916688,9.0119042 6.6875,9.125 C6.68154759,9.14285723 6.67261911,9.17410692 6.66071429,9.21875 C6.64880946,9.26339308 6.63392866,9.29761893 6.61607143,9.32142857 C6.5982142,9.34523821 6.57142875,9.36607134 6.53571429,9.38392857 C6.49404741,9.4017858 6.42261955,9.40773813 6.32142857,9.40178571 C6.22023759,9.3958333 6.14880973,9.3809525 6.10714286,9.35714286 C6.02976152,9.30952357 5.9627979,9.22321491 5.90625,9.09821429 C5.8497021,8.97321366 5.82142857,8.86309571 5.82142857,8.76785714 C5.82142857,8.70833304 5.82886897,8.62946478 5.84375,8.53125 C5.85863103,8.43303522 5.86755951,8.35863121 5.87053571,8.30803571 C5.87351192,8.25744022 5.85714304,8.18452429 5.82142857,8.08928571 C5.8392858,8.07738089 5.86607125,8.04910737 5.90178571,8.00446429 C5.93750018,7.95982121 5.96726179,7.92857152 5.99107143,7.91071429 C6.00297625,7.90476187 6.01636897,7.90029763 6.03125,7.89732143 C6.04613103,7.89434522 6.05952375,7.89434522 6.07142857,7.89732143 C6.08333339,7.90029763 6.09523804,7.89583339 6.10714286,7.88392857 C6.11904768,7.87202375 6.12797616,7.85416679 6.13392857,7.83035714 C6.12797616,7.82440473 6.11607152,7.81547625 6.09821429,7.80357143 C6.08348181,7.78883895 6.07280096,7.78018382 6.06617153,7.77760588 C6.10960328,7.79433656 6.19305577,7.7893272 6.31696429,7.76339286 C6.44494112,7.73660701 6.52678554,7.74107125 6.5625,7.77678571 C6.65178616,7.84226223 6.7172617,7.83630991 6.75892857,7.75892857 C6.75892857,7.75297616 6.75148817,7.72470263 6.73660714,7.67410714 C6.72172612,7.62351165 6.72023804,7.58333348 6.73214286,7.55357143 C6.76190491,7.71428652 6.84821357,7.74107196 6.99107143,7.63392857 C7.00892866,7.6517858 7.05505915,7.66666661 7.12946429,7.67857143 C7.20386942,7.69047625 7.25595223,7.70535705 7.28571429,7.72321429 C7.30357152,7.73511911 7.32440464,7.75148799 7.34821429,7.77232143 C7.37202393,7.79315487 7.38839281,7.80654759 7.39732143,7.8125 C7.40625004,7.81845241 7.42113085,7.81696433 7.44196429,7.80803571 C7.46279772,7.7991071 7.48809509,7.77976205 7.51785714,7.75 C7.57738125,7.83333375 7.61309518,7.90476161 7.625,7.96428571 C7.69047652,8.20238214 7.74702357,8.33333321 7.79464286,8.35714286 C7.83630973,8.37500009 7.8690475,8.38095241 7.89285714,8.375 C7.91666679,8.36904759 7.93005951,8.34077406 7.93303571,8.29017857 C7.93601192,8.23958308 7.93601192,8.19791683 7.93303571,8.16517857 C7.93005951,8.13244031 7.92559527,8.0952383 7.91964286,8.05357143 L7.91071429,7.98214286 L7.91071429,7.82142857 L7.90178571,7.75 C7.81249955,7.73214277 7.75744058,7.69642884 7.73660714,7.64285714 C7.71577371,7.58928545 7.72023795,7.53422647 7.75,7.47767857 C7.77976205,7.42113067 7.82440446,7.3660717 7.88392857,7.3125 C7.88988098,7.30654759 7.91369027,7.29613103 7.95535714,7.28125 C7.99702402,7.26636897 8.04315451,7.24702393 8.09375,7.22321429 C8.14434549,7.19940464 8.1815475,7.17559536 8.20535714,7.15178571 C8.33035777,7.03868991 8.37500018,6.93452429 8.33928571,6.83928571 C8.38095259,6.83928571 8.41369036,6.81250027 8.4375,6.75892857 C8.43154759,6.75892857 8.41666679,6.75000009 8.39285714,6.73214286 C8.3690475,6.71428563 8.34672629,6.69940482 8.32589286,6.6875 C8.30505942,6.67559518 8.2916667,6.66964286 8.28571429,6.66964286 C8.33928598,6.6398808 8.3452383,6.59226223 8.30357143,6.52678571 C8.33333348,6.50892848 8.35565469,6.47619071 8.37053571,6.42857143 C8.38541674,6.38095214 8.40773795,6.35119054 8.4375,6.33928571 C8.4910717,6.41071464 8.55357107,6.41666696 8.625,6.35714286 C8.67261929,6.30952357 8.67559545,6.261905 8.63392857,6.21428571 C8.66369063,6.17261884 8.72470192,6.14136915 8.81696429,6.12053571 C8.90922665,6.09970228 8.96428562,6.07142875 8.98214286,6.03571429 C9.02380973,6.04761911 9.04761902,6.04166679 9.05357143,6.01785714 C9.05952384,5.9940475 9.0625,5.95833357 9.0625,5.91071429 C9.0625,5.863095 9.07142848,5.82738107 9.08928571,5.80357143 C9.11309536,5.77380937 9.15773777,5.74702393 9.22321429,5.72321429 C9.2886908,5.69940464 9.32738089,5.68452384 9.33928571,5.67857143 L9.49107143,5.58035714 C9.50769686,5.5581899 9.50884369,5.54634188 9.49451192,5.5448128 C9.6000462,5.55589291 9.69124443,5.52304129 9.76785714,5.44642857 C9.82738125,5.38095205 9.80952429,5.32142884 9.71428571,5.26785714 C9.73214295,5.23214268 9.72321446,5.20386915 9.6875,5.18303571 C9.65178554,5.16220228 9.60714313,5.14583339 9.55357143,5.13392857 C9.57142866,5.12797616 9.60565451,5.12648808 9.65625,5.12946429 C9.70684549,5.13244049 9.73809518,5.12797625 9.75,5.11607143 C9.83928616,5.05654732 9.81845304,5.00892875 9.6875,4.97321429 C9.58630902,4.94345223 9.45833411,4.97916616 9.30357143,5.08035714 C9.29166661,5.08630955 9.26339308,5.11458308 9.21875,5.16517857 C9.17545794,5.21424291 9.13636464,5.24231588 9.10146899,5.24939827 L9.10143349,5.24964524 Z" id="icon_globe" fill="#000000"></path>
    </g>
</svg>