<?xml version="1.0" encoding="UTF-8"?>
<svg width="13px" height="13px" viewBox="0 0 13 13" version="1.1" xmlns="http://www.w3.org/2000/svg" xmlns:xlink="http://www.w3.org/1999/xlink">
    <!-- Generator: Sketch 52.6 (67491) - http://www.bohemiancoding.com/sketch -->
    <title>icon_phone</title>
    <desc>Created with Sketch.</desc>
    <g id="Page-1" stroke="none" stroke-width="1" fill="none" fill-rule="evenodd" opacity="0.600888207">
        <path d="M12.5714286,10.3571429 C12.5714286,10.5178579 12.541667,10.7276773 12.4821429,10.9866071 C12.4226187,11.245537 12.3601194,11.449404 12.2946429,11.5982143 C12.1696422,11.8958348 11.8065506,12.2113079 11.2053571,12.5446429 C10.6458305,12.8482158 10.0922646,13 9.54464286,13 C9.38392777,13 9.22619125,12.9895834 9.07142857,12.96875 C8.91666589,12.9479166 8.74553665,12.9107146 8.55803571,12.8571429 C8.37053478,12.8035712 8.23065522,12.7604168 8.13839286,12.7276786 C8.04613049,12.6949403 7.88095357,12.633929 7.64285714,12.5446429 C7.40476071,12.4553567 7.25892884,12.4017858 7.20535714,12.3839286 C6.62202089,12.1755942 6.10119277,11.9285729 5.64285714,11.6428571 C4.88690098,11.1726167 4.10119455,10.529766 3.28571429,9.71428571 C2.47023402,8.89880545 1.8273833,8.11309902 1.35714286,7.35714286 C1.07142714,6.89880723 0.824405804,6.37797911 0.616071429,5.79464286 C0.598214196,5.74107116 0.544643304,5.59523929 0.455357143,5.35714286 C0.366070982,5.11904643 0.305059687,4.95386951 0.272321429,4.86160714 C0.23958317,4.76934478 0.196428839,4.62946522 0.142857143,4.44196429 C0.0892854464,4.25446335 0.0520834375,4.08333411 0.03125,3.92857143 C0.0104165625,3.77380875 0,3.61607223 0,3.45535714 C0,2.90773536 0.151784196,2.35416946 0.455357143,1.79464286 C0.788692143,1.19344938 1.10416518,0.830357768 1.40178571,0.705357143 C1.55059598,0.639880625 1.75446299,0.57738125 2.01339286,0.517857143 C2.27232272,0.458333036 2.48214205,0.428571429 2.64285714,0.428571429 C2.72619089,0.428571429 2.78869027,0.437499911 2.83035714,0.455357143 C2.93750054,0.491071607 3.09523705,0.717259821 3.30357143,1.13392857 C3.36904795,1.24702438 3.45833277,1.40773705 3.57142857,1.61607143 C3.68452437,1.8244058 3.78869,2.01339201 3.88392857,2.18303571 C3.97916714,2.35267942 4.07142813,2.51190402 4.16071429,2.66071429 C4.17857152,2.68452393 4.23065433,2.75892795 4.31696429,2.88392857 C4.40327424,3.0089292 4.4672617,3.1145829 4.50892857,3.20089286 C4.55059545,3.28720281 4.57142857,3.37202339 4.57142857,3.45535714 C4.57142857,3.57440536 4.48660799,3.72321339 4.31696429,3.90178571 C4.14732058,4.08035804 3.96279862,4.24404688 3.76339286,4.39285714 C3.5639871,4.54166741 3.37946513,4.69940393 3.20982143,4.86607143 C3.04017772,5.03273893 2.95535714,5.16964232 2.95535714,5.27678571 C2.95535714,5.33035741 2.97023795,5.39732103 3,5.47767857 C3.02976205,5.55803612 3.05505942,5.61904741 3.07589286,5.66071429 C3.09672629,5.70238116 3.13839254,5.77380902 3.20089286,5.875 C3.26339317,5.97619098 3.29761902,6.03273804 3.30357143,6.04464286 C3.75595464,6.86012313 4.27380661,7.55952089 4.85714286,8.14285714 C5.44047911,8.72619339 6.13987687,9.24404536 6.95535714,9.69642857 C6.96726196,9.70238098 7.02380902,9.73660683 7.125,9.79910714 C7.22619098,9.86160746 7.29761884,9.90327371 7.33928571,9.92410714 C7.38095259,9.94494058 7.44196388,9.97023795 7.52232143,10 C7.60267897,10.0297621 7.66964259,10.0446429 7.72321429,10.0446429 C7.83035768,10.0446429 7.96726107,9.95982228 8.13392857,9.79017857 C8.30059607,9.62053487 8.45833259,9.4360129 8.60714286,9.23660714 C8.75595312,9.03720138 8.91964196,8.85267942 9.09821429,8.68303571 C9.27678661,8.51339201 9.42559464,8.42857143 9.54464286,8.42857143 C9.62797661,8.42857143 9.71279719,8.44940455 9.79910714,8.49107143 C9.8854171,8.5327383 9.9910708,8.59672576 10.1160714,8.68303571 C10.2410721,8.76934567 10.3154761,8.82142848 10.3392857,8.83928571 C10.488096,8.92857187 10.6473206,9.02083286 10.8169643,9.11607143 C10.986608,9.21131 11.1755942,9.31547563 11.3839286,9.42857143 C11.5922629,9.54166723 11.7529756,9.63095205 11.8660714,9.69642857 C12.2827402,9.90476295 12.5089284,10.0624995 12.5446429,10.1696429 C12.5625001,10.2113097 12.5714286,10.2738091 12.5714286,10.3571429 Z" id="icon_phone" fill="#000000"></path>
    </g>
</svg>