<?xml version="1.0" encoding="UTF-8" standalone="no"?>
<svg width="30px" height="30px" viewBox="0 0 30 30" version="1.1" xmlns="http://www.w3.org/2000/svg" xmlns:xlink="http://www.w3.org/1999/xlink" xmlns:sketch="http://www.bohemiancoding.com/sketch/ns">
    <!-- Generator: Sketch 3.4.4 (17249) - http://www.bohemiancoding.com/sketch -->
    <title>icon</title>
    <desc>Created with Sketch.</desc>
    <defs></defs>
    <g id="Page-1" stroke="none" stroke-width="1" fill="none" fill-rule="evenodd" sketch:type="MSPage">
        <g id="icon" sketch:type="MSLayerGroup">
            <circle id="Oval" fill="#FFFFFF" sketch:type="MSShapeGroup" cx="15" cy="15" r="15"></circle>
            <path d="M15.513096,12.4582035 L15.5466366,13.0204902 L14.9876265,12.9516388 C12.9528297,12.6877083 11.1751775,11.7926397 9.66585016,10.2893836 L8.9279568,9.5434931 L8.73789336,10.0943045 C8.33540607,11.322155 8.59255073,12.6188569 9.43106591,13.490975 C9.878274,13.972935 9.77765218,14.0417864 9.00621822,13.7549054 C8.73789336,13.6631035 8.50310911,13.5942521 8.4807487,13.6286778 C8.40248729,13.7090045 8.67081214,14.7532511 8.88323599,15.1663597 C9.17392125,15.7401216 9.76647198,16.3024083 10.4149237,16.6351902 L10.9627536,16.8991206 L10.3143019,16.9105959 C9.68821056,16.9105959 9.66585016,16.9220711 9.73293137,17.1630511 C9.95653542,17.9089416 10.8397714,18.700733 11.8236292,19.0449901 L12.5168018,19.2859701 L11.9130708,19.6531778 C11.0186546,20.1810387 9.96771562,20.4793949 8.9167766,20.5023454 C8.41366749,20.5138206 8,20.5597216 8,20.5941473 C8,20.7088997 9.36398469,21.351513 10.1577791,21.6039682 C12.5391622,22.3498587 15.3677534,22.028552 17.4919918,20.7548006 C19.0013192,19.8482568 20.5106465,18.0466444 21.2149992,16.3024083 C21.5951261,15.372914 21.975253,13.6745788 21.975253,12.8598369 C21.975253,12.3319759 22.0087936,12.2631245 22.6348849,11.6319864 C23.0038316,11.2647788 23.3504179,10.8631455 23.4174991,10.7483931 C23.5293011,10.5303636 23.5181209,10.5303636 22.9479306,10.7254426 C21.9976134,11.0696998 21.863451,11.0237988 22.3330195,10.5074131 C22.6796057,10.1402055 23.0932732,9.47464168 23.0932732,9.27956263 C23.0932732,9.24513692 22.9255702,9.30251311 22.7355068,9.40579025 C22.5342631,9.52054263 22.087055,9.6926712 21.7516489,9.79594834 L21.147918,9.99102738 L20.6000881,9.61234453 C20.2982226,9.40579025 19.8733749,9.17628549 19.6497709,9.10743406 C19.0795806,8.94678073 18.2075248,8.96973121 17.6932355,9.15333501 C16.2957102,9.66972072 15.4124742,11.0008483 15.513096,12.4582035 Z" id="Path" fill="#2a2a2a" sketch:type="MSShapeGroup"></path>
        </g>
    </g>
</svg>