<?xml version="1.0" encoding="UTF-8" standalone="no"?>
<svg width="30px" height="30px" viewBox="0 0 30 30" version="1.1" xmlns="http://www.w3.org/2000/svg" xmlns:xlink="http://www.w3.org/1999/xlink" xmlns:sketch="http://www.bohemiancoding.com/sketch/ns">
    <!-- Generator: Sketch 3.4.4 (17249) - http://www.bohemiancoding.com/sketch -->
    <title>icon</title>
    <desc>Created with Sketch.</desc>
    <defs></defs>
    <g id="Page-1" stroke="none" stroke-width="1" fill="none" fill-rule="evenodd" sketch:type="MSPage">
        <g id="icon" sketch:type="MSLayerGroup">
            <circle id="Oval" fill="#FFFFFF" sketch:type="MSShapeGroup" cx="15" cy="15" r="15"></circle>
            <g id="Group" transform="translate(7.500000, 7.500000)" sketch:type="MSShapeGroup">
                <path d="M13.758216,15.2133923 C14.3718091,15.0811853 14.8731961,14.5615049 14.9931257,13.9348828 C15.0059983,13.8671457 15.0154382,13.7983196 15.0263799,13.7303648 L15.0263799,1.52462807 C15.0158673,1.45776224 15.0068564,1.3906786 14.9939839,1.32403058 C14.862469,0.640343789 14.3070171,0.109773221 13.6249847,0.0150284767 C13.5966651,0.0113258085 13.568989,0.00500949223 13.5410984,0 L1.48528145,0 C1.41255136,0.0132860446 1.33939219,0.0233050291 1.26773481,0.0398581338 C0.602007766,0.193845569 0.10941695,0.73813779 0.0145889266,1.4229136 C0.0107271519,1.45144592 0.00493448988,1.47976044 0,1.50829277 L0,13.7473535 C0.0137307545,13.8248917 0.0246724494,13.9030834 0.0418358925,13.980186 C0.189012417,14.6410034 0.744678886,15.1532784 1.40568599,15.2395288 C1.4376529,15.2434492 1.46983436,15.2497656 1.50180127,15.2549929 L13.5245786,15.2549929 C13.6026723,15.241489 13.6809805,15.230381 13.758216,15.2133923 Z" id="Path" fill="#2a2a2a"></path>
                <path d="M1.6255926,6.22658104 C1.6255926,8.4841196 1.62537806,10.7416582 1.62580714,12.9991967 C1.62580714,13.3239425 1.90278221,13.6031672 2.22266588,13.6031672 C5.74889526,13.6033851 9.27491009,13.6033851 12.8011395,13.6031672 C13.1240267,13.6031672 13.3995,13.3243781 13.3995,12.9972365 C13.3997145,10.7423116 13.3995,8.48760447 13.3995,6.23289735 L13.3995,6.18606949 L11.9650653,6.18606949 C12.1675939,6.84318419 12.2298114,7.5116247 12.1504304,8.19291564 C12.0706204,8.87442439 11.854361,9.50866967 11.5020814,10.0943446 C11.1495872,10.680673 10.6926105,11.166376 10.1330822,11.5529781 C8.68277131,12.5557478 6.77333826,12.6439584 5.23442105,11.7670794 C4.45648799,11.3242839 3.84568396,10.7068095 3.41981603,9.91117148 C2.7845541,8.72392182 2.68307524,7.47786508 3.0557365,6.18498047 C2.57988004,6.18541608 2.10595446,6.18541608 1.6255926,6.18541608 L1.6255926,6.22658104 Z" id="Path" fill="#FFFFFF"></path>
                <path d="M4.4685024,7.58066857 C4.44447358,9.31025021 5.80832368,10.6813265 7.44335617,10.7170463 C9.14468247,10.754073 10.5207615,9.37406679 10.5565902,7.69566909 C10.5932771,5.96478062 9.21805619,4.5351151 7.5132972,4.53620412 C5.84672688,4.5351151 4.49188759,5.89639016 4.4685024,7.58066857 Z" id="Path" fill="#FFFFFF"></path>
                <path d="M12.8219501,3.91241343 C13.1401175,3.90435468 13.3992855,3.62752579 13.3992855,3.30408683 C13.3995,2.82252217 13.3995,2.3407397 13.3992855,1.85917503 C13.3992855,1.51373787 13.1300339,1.23886921 12.7901978,1.2386514 C12.3171304,1.2384336 11.844063,1.2382158 11.370781,1.2386514 C11.031803,1.23908701 10.7616933,1.51460909 10.7614788,1.86004625 C10.7612643,2.33747264 10.759977,2.81489903 10.7631951,3.29254322 C10.7636242,3.36376513 10.7769259,3.43781849 10.7992384,3.50533774 C10.8841974,3.75951502 11.1135439,3.91546269 11.3943808,3.91676951 C11.6226546,3.91720512 11.8509284,3.91655171 12.0794167,3.91655171 C12.3265703,3.91372026 12.574582,3.91851194 12.8219501,3.91241343 Z" id="Path" fill="#FFFFFF"></path>
            </g>
        </g>
    </g>
</svg>