<?xml version="1.0" encoding="UTF-8"?>
<svg width="14px" height="11px" viewBox="0 0 14 11" version="1.1" xmlns="http://www.w3.org/2000/svg" xmlns:xlink="http://www.w3.org/1999/xlink">
    <!-- Generator: Sketch 52.6 (67491) - http://www.bohemiancoding.com/sketch -->
    <title>icon_mail</title>
    <desc>Created with Sketch.</desc>
    <g id="Page-1" stroke="none" stroke-width="1" fill="none" fill-rule="evenodd" opacity="0.600888207">
        <path d="M14,3.546875 L14,9.75 C14,10.0937517 13.8776054,10.3880196 13.6328125,10.6328125 C13.3880196,10.8776054 13.0937517,11 12.75,11 L1.25,11 C0.906248281,11 0.611980391,10.8776054 0.3671875,10.6328125 C0.122394609,10.3880196 0,10.0937517 0,9.75 L0,3.546875 C0.229167812,3.80208461 0.492186016,4.02864484 0.7890625,4.2265625 C2.67448859,5.50781891 3.96874648,6.40624742 4.671875,6.921875 C4.96875148,7.14062609 5.20963449,7.3111973 5.39453125,7.43359375 C5.57942801,7.5559902 5.8255193,7.68098895 6.1328125,7.80859375 C6.4401057,7.93619855 6.72656117,8 6.9921875,8 L7.0078125,8 C7.27343883,8 7.5598943,7.93619855 7.8671875,7.80859375 C8.1744807,7.68098895 8.42057199,7.5559902 8.60546875,7.43359375 C8.79036551,7.3111973 9.03124852,7.14062609 9.328125,6.921875 C10.2135461,6.2812468 11.5104081,5.38281828 13.21875,4.2265625 C13.5156265,4.02343648 13.7760405,3.79687625 14,3.546875 Z M14,1.25 C14,1.66146039 13.8723971,2.05468563 13.6171875,2.4296875 C13.3619779,2.80468937 13.0442727,3.12499867 12.6640625,3.390625 C10.7057194,4.7500068 9.48698156,5.5963525 9.0078125,5.9296875 C8.95572891,5.96614602 8.84505293,6.0455723 8.67578125,6.16796875 C8.50650957,6.2903652 8.36588598,6.38932254 8.25390625,6.46484375 C8.14192652,6.54036496 8.00651121,6.62499953 7.84765625,6.71875 C7.68880129,6.81250047 7.5390632,6.88281227 7.3984375,6.9296875 C7.2578118,6.97656273 7.12760477,7 7.0078125,7 L6.9921875,7 C6.87239523,7 6.7421882,6.97656273 6.6015625,6.9296875 C6.4609368,6.88281227 6.31119871,6.81250047 6.15234375,6.71875 C5.99348879,6.62499953 5.85807348,6.54036496 5.74609375,6.46484375 C5.63411402,6.38932254 5.49349043,6.2903652 5.32421875,6.16796875 C5.15494707,6.0455723 5.04427109,5.96614602 4.9921875,5.9296875 C4.5182268,5.5963525 3.83594195,5.12109684 2.9453125,4.50390625 C2.05468305,3.88671566 1.52083422,3.51562562 1.34375,3.390625 C1.02083172,3.17187391 0.716147266,2.87109566 0.4296875,2.48828125 C0.143227734,2.10546684 0,1.75000164 0,1.421875 C0,1.01562297 0.108071836,0.677084687 0.32421875,0.40625 C0.540365664,0.135415313 0.848956328,0 1.25,0 L12.75,0 C13.0885434,0 13.3815092,0.122394609 13.6289062,0.3671875 C13.8763033,0.611980391 14,0.906248281 14,1.25 Z" id="icon_mail" fill="#000000"></path>
    </g>
</svg>