<?xml version="1.0" encoding="UTF-8" standalone="no"?>
<svg width="30px" height="30px" viewBox="0 0 30 30" version="1.1" xmlns="http://www.w3.org/2000/svg" xmlns:xlink="http://www.w3.org/1999/xlink" xmlns:sketch="http://www.bohemiancoding.com/sketch/ns">
    <!-- Generator: Sketch 3.4.4 (17249) - http://www.bohemiancoding.com/sketch -->
    <title>icon</title>
    <desc>Created with Sketch.</desc>
    <defs></defs>
    <g id="Page-1" stroke="none" stroke-width="1" fill="none" fill-rule="evenodd" sketch:type="MSPage">
        <g id="icon" sketch:type="MSLayerGroup">
            <circle id="Oval" fill="#FFFFFF" sketch:type="MSShapeGroup" cx="15" cy="15" r="15"></circle>
            <g id="Group" transform="translate(7.500000, 5.500000)" sketch:type="MSShapeGroup">
                <path d="M1.96814187,0 L3.26508757,4.00152832 L3.26508757,6.62726367 L4.35482726,6.62726367 L4.35482726,3.87762891 L5.62285234,0 L4.51483595,0 L3.8418191,2.64911328 L3.77333398,2.64911328 L3.06551437,0 L1.96814187,0 Z" id="Path" fill="#2a2a2a"></path>
                <path d="M7.14261976,1.61470313 C7.54278153,1.61470313 7.87165716,1.73307422 8.12816124,1.96996094 C8.3827046,2.20630566 8.51099165,2.51130273 8.51099165,2.8840127 L8.51099165,5.40969629 C8.51099165,5.82764453 8.38564568,6.15508008 8.13589908,6.39344824 C7.8832114,6.63127441 7.53896513,6.75072949 7.0982935,6.75072949 C6.67593359,6.75072949 6.3365191,6.6272998 6.08190571,6.38257227 C5.82925305,6.13672461 5.70103602,5.80585645 5.70103602,5.39040137 L5.70096599,2.85662402 C5.70096599,2.47697656 5.83114374,2.17544824 6.09247959,1.9515332 C6.3528701,1.7271123 6.70383883,1.61470313 7.14261976,1.61470313 Z" id="Path" fill="#2a2a2a"></path>
                <path d="M7.09629777,5.90374023 C7.22749089,5.90374023 7.33063872,5.86598145 7.40875237,5.79180078 C7.48595569,5.71613867 7.52453984,5.61319629 7.52453984,5.48279297 L7.52453984,2.8192627 C7.52453984,2.7123457 7.48494032,2.62624121 7.40588132,2.5600459 C7.32682232,2.49439258 7.22363948,2.46201758 7.09629777,2.46201758 C6.97770928,2.46201758 6.88226427,2.49439258 6.80800203,2.5600459 C6.73472015,2.62624121 6.69711636,2.71227344 6.69711636,2.8192627 L6.69711636,5.4828291 C6.69708135,5.61666504 6.73275943,5.71964355 6.80120954,5.79378809 C6.86969466,5.86742676 6.96808074,5.90374023 7.09629777,5.90374023 Z" id="Path" fill="#FFFFFF"></path>
                <path d="M11.0895474,6.6272998 L11.0895474,6.08743945 C10.9130477,6.28595313 10.7269894,6.43875879 10.5330883,6.54220703 C10.3402376,6.64619727 10.153129,6.69801172 9.97179744,6.69801172 C9.7462097,6.69801172 9.5793385,6.62484277 9.46561679,6.47955273 C9.3527704,6.33375684 9.29587453,6.11583984 9.29587453,5.82421191 L9.29587453,1.73806055 L10.2620889,1.73806055 L10.2620889,5.48629785 C10.2620889,5.60224805 10.2843221,5.68582324 10.3247969,5.73756543 C10.3643264,5.78937988 10.4308508,5.81568457 10.5215341,5.81568457 C10.5919099,5.81568457 10.6825931,5.78088867 10.7915181,5.71270605 C10.8994977,5.64405371 10.9998095,5.55639551 11.0894774,5.44897266 L11.0894774,1.73806055 L12.0577225,1.73806055 L12.0577225,6.6272998 L11.0895474,6.6272998 Z" id="Path" fill="#2a2a2a"></path>
                <path d="M14.022013,9.21415625 C14.730813,9.93117578 14.7384808,13.4709268 14.7384808,13.4913779 C14.7384808,13.4913779 14.7327387,17.0495566 14.022013,17.7690693 C13.3161541,18.4845713 7.36638684,18.5 7.36638684,18.5 C7.36638684,18.5 1.41745989,18.4845713 0.70974532,17.7691055 C0.00196071915,17.0520498 0,13.5182246 0,13.4913779 C0,13.470999 0.00192570631,9.93117578 0.70974532,9.21415625 C1.41752992,8.4982207 7.36638684,8.48868164 7.36638684,8.48922363 C7.36638684,8.48868164 13.3161541,8.4982207 14.022013,9.21415625 Z" id="Path" fill="#2a2a2a"></path>
                <path d="M3.38756249,16.4419473 L2.41840702,16.4419473 L2.41840702,11.2995254 L1.41647953,11.2995254 L1.41647953,10.4257617 L4.38945496,10.4257617 L4.38948997,11.2995254 L3.38756249,11.2995254 L3.38756249,16.4419473 Z" id="Path" fill="#FFFFFF"></path>
                <path d="M6.36340896,15.9538652 C6.20336526,16.1349629 6.03940012,16.2717979 5.86682183,16.3653818 C5.69515386,16.4609531 5.52926302,16.5066611 5.3672586,16.5066611 C5.16761537,16.5066611 5.02007126,16.4419834 4.91790378,16.3086895 C4.81857235,16.1757568 4.7674536,15.9793027 4.7674536,15.7140518 L4.7674536,12.0030674 L5.62670376,12.0030674 L5.62670376,15.4075371 C5.62670376,15.5130088 5.64501547,15.5886348 5.67978322,15.6353906 C5.71738702,15.6831582 5.77620859,15.7060664 5.85624795,15.7060664 C5.91895595,15.7060664 5.99994065,15.6747031 6.09636602,15.6125186 C6.19377174,15.549792 6.28151393,15.471167 6.36344398,15.3751621 L6.36344398,12.0031396 L7.22265912,12.0031396 L7.22262411,16.4419834 L6.36340896,16.4419834 L6.36340896,15.9538652 Z" id="Path" fill="#FFFFFF"></path>
                <path d="M9.55440936,16.4981338 C9.38564746,16.4981338 9.23614262,16.4668789 9.10498452,16.402165 C8.97389644,16.3375234 8.84942578,16.2379775 8.73762978,16.1016846 L8.73762978,16.4419834 L7.86882112,16.4419834 L7.86882112,10.4257617 L8.73762978,10.4257617 L8.73762978,12.3628057 C8.85429257,12.2284277 8.97676749,12.1244375 9.10599989,12.0548457 C9.23708797,11.9842061 9.36929646,11.9493379 9.50227523,11.9493379 C9.77520034,11.9493379 9.98254639,12.0438975 10.1252587,12.2320049 C10.2698968,12.4215576 10.341288,12.6986963 10.341288,13.0619395 L10.341288,15.5249326 C10.3412179,15.8388545 10.2736432,16.0797158 10.1387387,16.2474443 C10.0047095,16.4155703 9.80898773,16.4981338 9.55440936,16.4981338 Z" id="Path" fill="#FFFFFF"></path>
                <path d="M11.6777281,15.1651943 C11.6777281,15.399082 11.7057734,15.5607764 11.7616189,15.6518311 C11.8194601,15.741874 11.9158855,15.7862451 12.0528557,15.7862451 C12.1954981,15.7862451 12.2948645,15.7478721 12.3517604,15.6712705 C12.4077109,15.5946328 12.4375768,15.4264707 12.4375768,15.1651943 L12.4375768,14.9627061 L13.3218612,14.9627061 L13.3218612,15.1906318 C13.3218612,15.6459414 13.2147569,15.9887334 12.9978523,16.2200918 C12.7838188,16.4489932 12.4616657,16.5628838 12.0335637,16.5628838 C11.6487725,16.5628838 11.3450011,16.4419473 11.1241751,16.1971475 C10.9032791,15.9539014 10.7914131,15.6184443 10.7914131,15.1905957 L10.7914131,13.197293 C10.7914131,12.8136709 10.913888,12.4981953 11.1569121,12.2563584 C11.3998662,12.0140518 11.7123208,11.8931514 12.0980923,11.8931514 C12.4914966,11.8931514 12.7943227,12.0055605 13.0054851,12.2299814 C13.2166476,12.4538604 13.3218262,12.7763096 13.3218262,13.197293 L13.3218262,14.3287559 L11.6777281,14.328792 L11.6777281,15.1651943 Z" id="Path" fill="#FFFFFF"></path>
                <path d="M9.36537502,12.7693359 C9.42605228,12.8469131 9.45598826,12.9608398 9.45598826,13.1106465 L9.45598826,15.4025146 C9.45598826,15.5452754 9.4299387,15.6457969 9.3808507,15.7080176 C9.33169267,15.7717197 9.25448935,15.803083 9.1493808,15.803083 C9.07613393,15.803083 9.00768383,15.7861006 8.94203475,15.7548096 C8.87554536,15.723916 8.80702523,15.6696807 8.73762978,15.5980654 L8.73762978,12.8325684 C8.79641634,12.7713594 8.85523791,12.726085 8.91500484,12.6971787 C8.97484178,12.667333 9.03555405,12.6538916 9.09724668,12.6538916 C9.21292911,12.6538916 9.30266702,12.6926982 9.36537502,12.7693359 Z" id="Path" fill="#2a2a2a"></path>
                <path d="M11.7664857,12.7922441 C11.7067188,12.8697852 11.6777982,13.0041631 11.6777982,13.1898135 L11.6777982,13.6381133 L12.4376819,13.6381133 L12.4376819,13.1898135 C12.4376819,13.0041992 12.4068356,12.8698936 12.3469986,12.7922441 C12.2891574,12.7091025 12.1917867,12.6698262 12.0615739,12.6698262 C11.9246737,12.6698262 11.8263226,12.7091025 11.7664857,12.7922441 Z" id="Path" fill="#2a2a2a"></path>
            </g>
        </g>
    </g>
</svg>