<?xml version="1.0" encoding="UTF-8"?>
<svg width="240px" height="240px" viewBox="0 0 240 240" version="1.1" xmlns="http://www.w3.org/2000/svg" xmlns:xlink="http://www.w3.org/1999/xlink">
    <!-- Generator: Sketch 52.6 (67491) - http://www.bohemiancoding.com/sketch -->
    <title>photo_placeholder_square</title>
    <desc>Created with Sketch.</desc>
    <g id="Page-1" stroke="none" stroke-width="1" fill="none" fill-rule="evenodd">
        <g id="photo_placeholder_square">
            <rect id="Rectangle" fill="#000000" opacity="0.149999991" x="0" y="0" width="240" height="240"></rect>
            <path d="M100.78125,129 C100.78125,116.249936 107.203061,109.875 120.046875,109.875 C132.890689,109.875 139.3125,116.249936 139.3125,129 C139.3125,141.750064 132.890689,148.125 120.046875,148.125 C107.203061,148.125 100.78125,141.750064 100.78125,129 Z M101.90625,69.09375 L137.90625,69.09375 L148.875,80.90625 L168,80.90625 C171.375017,80.90625 174.234363,82.078113 176.578125,84.421875 C178.921887,86.765637 180.09375,89.624983 180.09375,93 L180.09375,165 C180.09375,168.375017 178.921887,171.234363 176.578125,173.578125 C174.234363,175.921887 171.375017,177.09375 168,177.09375 L72.09375,177.09375 C68.7187331,177.09375 65.8593867,175.921887 63.515625,173.578125 C61.1718633,171.234363 60,168.375017 60,165 L60,93 C60,89.624983 61.1718633,86.765637 63.515625,84.421875 C65.8593867,82.078113 68.7187331,80.90625 72.09375,80.90625 L90.9375,80.90625 L101.90625,69.09375 Z M119.90625,159.09375 C128.156291,159.09375 135.234345,156.140655 141.140625,150.234375 C147.046905,144.328095 150,137.250041 150,129 C150,120.749959 147.046905,113.671905 141.140625,107.765625 C135.234345,101.859345 128.156291,98.90625 119.90625,98.90625 C111.656209,98.90625 104.625029,101.859345 98.8125,107.765625 C92.9999709,113.671905 90.09375,120.749959 90.09375,129 C90.09375,137.250041 92.9999709,144.328095 98.8125,150.234375 C104.625029,156.140655 111.656209,159.09375 119.90625,159.09375 Z" id="Camera" fill="#FFFFFF" fill-rule="nonzero" opacity="0.454910714"></path>
        </g>
    </g>
</svg>